<svg width="26" height="16" viewBox="0 0 26 16" fill="none" xmlns="http://www.w3.org/2000/svg">
<path d="M0 9.08327H26V7.08327H0V9.08327ZM17.183 0.918363C17.4139 2.2701 18.0952 4.26748 19.4186 5.95122C20.7624 7.66091 22.8057 9.08327 25.6867 9.08327V7.08327C23.5558 7.08327 22.0489 6.06119 20.991 4.71532C19.9128 3.34351 19.3411 1.67422 19.1544 0.581515L17.183 0.918363ZM19.1544 15.585C19.3411 14.4923 19.9128 12.823 20.991 11.4512C22.0489 10.1054 23.5558 9.08327 25.6867 9.08327V7.08327C22.8057 7.08327 20.7624 8.50564 19.4186 10.2153C18.0952 11.8991 17.4139 13.8964 17.183 15.2482L19.1544 15.585Z" fill="white"/>
</svg>
