<svg width="22" height="22" viewBox="0 0 22 22" fill="none" xmlns="http://www.w3.org/2000/svg">
<path d="M21.0004 15.92V18.92C21.0016 19.1985 20.9445 19.4742 20.8329 19.7293C20.7214 19.9845 20.5577 20.2136 20.3525 20.4019C20.1473 20.5901 19.905 20.7335 19.6412 20.8227C19.3773 20.9119 19.0978 20.9451 18.8204 20.92C15.7433 20.5856 12.7874 19.5341 10.1904 17.85C7.77425 16.3147 5.72576 14.2662 4.19042 11.85C2.5004 9.2412 1.44866 6.27099 1.12042 3.18C1.09543 2.90347 1.1283 2.62476 1.21692 2.36162C1.30555 2.09849 1.44799 1.85669 1.63519 1.65162C1.82238 1.44655 2.05023 1.28271 2.30421 1.17052C2.5582 1.05833 2.83276 1.00026 3.11042 1H6.11042C6.59573 0.995223 7.06621 1.16708 7.43418 1.48353C7.80215 1.79999 8.0425 2.23945 8.11042 2.72C8.23704 3.68007 8.47187 4.62273 8.81042 5.53C8.94497 5.88792 8.97408 6.27691 8.89433 6.65088C8.81457 7.02485 8.62928 7.36811 8.36042 7.64L7.09042 8.91C8.51398 11.4135 10.5869 13.4864 13.0904 14.91L14.3604 13.64C14.6323 13.3711 14.9756 13.1858 15.3495 13.1061C15.7235 13.0263 16.1125 13.0555 16.4704 13.19C17.3777 13.5286 18.3204 13.7634 19.2804 13.89C19.7662 13.9585 20.2098 14.2032 20.527 14.5775C20.8441 14.9518 21.0126 15.4296 21.0004 15.92Z" stroke="#0F9447" stroke-width="2" stroke-linecap="round" stroke-linejoin="round"/>
</svg>
