<svg width="15" height="15" viewBox="0 0 15 15" fill="none" xmlns="http://www.w3.org/2000/svg">
<path d="M7.5 0C9.53775 0 9.792 0.00747774 10.5915 0.0448667C11.3903 0.0822556 11.934 0.207135 12.4125 0.392584C12.9075 0.582519 13.3245 0.839755 13.7415 1.25477C14.1229 1.62858 14.418 2.08076 14.6063 2.57983C14.7915 3.05617 14.9175 3.59906 14.955 4.39544C14.9903 5.19257 15 5.44607 15 7.47778C15 9.5095 14.9925 9.76299 14.955 10.5601C14.9175 11.3565 14.7915 11.8986 14.6063 12.3757C14.4185 12.8751 14.1233 13.3274 13.7415 13.7008C13.3665 14.0809 12.913 14.3751 12.4125 14.563C11.9347 14.7477 11.3903 14.8733 10.5915 14.9107C9.792 14.9458 9.53775 14.9556 7.5 14.9556C5.46225 14.9556 5.208 14.9481 4.4085 14.9107C3.60975 14.8733 3.066 14.7477 2.5875 14.563C2.08674 14.3756 1.63315 14.0814 1.2585 13.7008C0.877055 13.327 0.581949 12.8748 0.39375 12.3757C0.20775 11.8994 0.0825 11.3565 0.045 10.5601C0.00974996 9.76299 0 9.5095 0 7.47778C0 5.44607 0.00749996 5.19257 0.045 4.39544C0.0825 3.59831 0.20775 3.05692 0.39375 2.57983C0.581427 2.08045 0.876603 1.62815 1.2585 1.25477C1.63325 0.874326 2.08682 0.580074 2.5875 0.392584C3.066 0.207135 3.609 0.0822556 4.4085 0.0448667C5.208 0.00972108 5.46225 0 7.5 0ZM7.5 3.73889C6.50544 3.73889 5.55161 4.13281 4.84835 4.83399C4.14509 5.53517 3.75 6.48617 3.75 7.47778C3.75 8.4694 4.14509 9.4204 4.84835 10.1216C5.55161 10.8228 6.50544 11.2167 7.5 11.2167C8.49456 11.2167 9.44839 10.8228 10.1517 10.1216C10.8549 9.4204 11.25 8.4694 11.25 7.47778C11.25 6.48617 10.8549 5.53517 10.1517 4.83399C9.44839 4.13281 8.49456 3.73889 7.5 3.73889ZM12.375 3.55195C12.375 3.30404 12.2762 3.06629 12.1004 2.891C11.9246 2.7157 11.6861 2.61722 11.4375 2.61722C11.1889 2.61722 10.9504 2.7157 10.7746 2.891C10.5988 3.06629 10.5 3.30404 10.5 3.55195C10.5 3.79985 10.5988 4.0376 10.7746 4.2129C10.9504 4.38819 11.1889 4.48667 11.4375 4.48667C11.6861 4.48667 11.9246 4.38819 12.1004 4.2129C12.2762 4.0376 12.375 3.79985 12.375 3.55195ZM7.5 5.23445C8.09674 5.23445 8.66903 5.4708 9.09099 5.89151C9.51295 6.31221 9.75 6.88281 9.75 7.47778C9.75 8.07275 9.51295 8.64335 9.09099 9.06406C8.66903 9.48477 8.09674 9.72112 7.5 9.72112C6.90326 9.72112 6.33097 9.48477 5.90901 9.06406C5.48705 8.64335 5.25 8.07275 5.25 7.47778C5.25 6.88281 5.48705 6.31221 5.90901 5.89151C6.33097 5.4708 6.90326 5.23445 7.5 5.23445Z" fill="#2878EB"/>
</svg>
