<svg width="15" height="15" viewBox="0 0 15 15" fill="none" xmlns="http://www.w3.org/2000/svg">
<path d="M0.00301003 14.9556L1.01701 11.2406C0.348863 10.0986 -0.00216797 8.79984 1.00742e-05 7.47778C1.00742e-05 3.3478 3.35776 0 7.50001 0C11.6423 0 15 3.3478 15 7.47778C15 11.6078 11.6423 14.9556 7.50001 14.9556C6.17459 14.9577 4.8725 14.608 3.72751 13.9423L0.00301003 14.9556ZM4.79326 3.9692C4.6964 3.9752 4.60176 4.00063 4.51501 4.04398C4.43365 4.08992 4.35938 4.14734 4.29451 4.21448C4.20451 4.29897 4.15351 4.37226 4.09876 4.4433C3.82157 4.80297 3.67247 5.24448 3.67501 5.69807C3.67651 6.06448 3.77251 6.42117 3.92251 6.75468C4.22926 7.42917 4.73401 8.1433 5.40076 8.80508C5.56126 8.96436 5.71801 9.12438 5.88676 9.27319C6.7143 9.99963 7.70045 10.5235 8.76675 10.8031L9.1935 10.8682C9.33225 10.8757 9.471 10.8652 9.6105 10.8585C9.82893 10.8472 10.0422 10.7883 10.2353 10.6857C10.3335 10.6353 10.4293 10.5804 10.5225 10.5212C10.5225 10.5212 10.5548 10.5003 10.6163 10.4539C10.7175 10.3792 10.7798 10.3261 10.8638 10.2386C10.926 10.1743 10.98 10.0987 11.0213 10.0127C11.0798 9.89086 11.1383 9.6583 11.1623 9.46462C11.1803 9.31656 11.175 9.2358 11.1728 9.1857C11.1698 9.10569 11.103 9.02269 11.0303 8.98754L10.5938 8.79237C10.5938 8.79237 9.94125 8.50896 9.543 8.328C9.50101 8.30975 9.45602 8.29936 9.41025 8.29734C9.35894 8.29209 9.30709 8.29784 9.25819 8.31423C9.20929 8.33061 9.16448 8.35723 9.12675 8.39231V8.39081C9.123 8.39081 9.07275 8.43344 8.5305 9.08849C8.49938 9.13019 8.45651 9.1617 8.40736 9.17901C8.3582 9.19633 8.30499 9.19866 8.2545 9.1857C8.20564 9.17267 8.15776 9.15618 8.11125 9.13635C8.01825 9.09747 7.986 9.08251 7.92225 9.05484L7.9185 9.05335C7.48944 8.86657 7.09217 8.61429 6.74101 8.30557C6.64651 8.22331 6.55876 8.13358 6.46876 8.04684C6.17369 7.7651 5.91654 7.44638 5.70376 7.09865L5.65951 7.02762C5.62772 6.97988 5.60203 6.92839 5.58301 6.87432C5.55451 6.7644 5.62876 6.67616 5.62876 6.67616C5.62876 6.67616 5.81101 6.47725 5.89576 6.36957C5.96632 6.28008 6.03216 6.18698 6.09301 6.09065C6.18151 5.94857 6.20926 5.80276 6.16276 5.68984C5.95276 5.17836 5.73526 4.66912 5.51176 4.16363C5.46751 4.06342 5.33626 3.99164 5.21701 3.97743C5.17651 3.97294 5.13601 3.96846 5.09551 3.96547C4.99479 3.96048 4.89386 3.96148 4.79326 3.96846V3.9692Z" fill="#2878EB"/>
</svg>
