<svg width="50" height="48" viewBox="0 0 50 48" fill="none" xmlns="http://www.w3.org/2000/svg">
<path d="M48.9576 45.6429H36.1789V41.6494C38.8611 42.1766 41.9262 42.0923 44.1482 40.5211C47.7908 37.944 47.9911 32.2464 47.9984 32.0054C48.0107 31.5421 47.7165 31.1258 47.2752 30.9841C47.0464 30.9109 41.6049 29.2069 37.9634 31.782C37.2398 32.2942 36.6564 32.9323 36.1792 33.624V28.6442C38.8615 29.1715 41.9265 29.0871 44.1485 27.5159C47.7912 24.9388 47.9914 19.2412 47.9987 19.0002C48.011 18.5369 47.7168 18.1206 47.2755 17.9789C47.0468 17.9058 41.6052 16.2024 37.9638 18.7769C37.2402 19.289 36.6567 19.9272 36.1796 20.6188V17.7164C37.2671 16.8518 40.1214 14.2759 40.2385 10.9733C40.381 6.9786 36.4453 3.75227 36.2774 3.61711C35.9161 3.32559 35.4078 3.30826 35.0281 3.57244C34.8509 3.69606 30.6957 6.63472 30.5544 10.629C30.4377 13.8977 33.0502 16.6497 34.0965 17.6171V20.5643C33.6256 19.8935 33.0521 19.2762 32.347 18.7774C28.7052 16.2007 23.264 17.9052 23.0361 17.9795C22.5948 18.1212 22.3006 18.5375 22.3129 19.0008C22.3198 19.2418 22.5216 24.9394 26.1642 27.5165C28.3816 29.0866 31.4366 29.1682 34.0966 28.6514V33.57C33.6256 32.8991 33.0521 32.2819 32.3471 31.7831C28.7052 29.2064 23.264 30.9109 23.0361 30.9852C22.5948 31.1269 22.3006 31.5432 22.3129 32.0064C22.3198 32.2475 22.5216 37.945 26.1643 40.5222C28.3816 42.0923 31.4366 42.1739 34.0966 41.6571V45.644L15.3376 45.6432V26.1311H16.8715C17.4473 26.1311 17.9132 25.6648 17.9132 25.0895V20.1394H20.2804C20.8562 20.1394 21.3221 19.673 21.3221 19.0977V10.8539H21.6914C22.2671 10.8539 22.7331 10.3875 22.7331 9.8122C22.7331 9.2369 22.2671 8.77054 21.6914 8.77054H18.7473C18.1716 8.77054 17.7057 9.2369 17.7057 9.8122C17.7057 10.3875 18.1717 10.8539 18.7473 10.8539H19.2387V18.056H17.9133V14.7334C17.9133 14.1581 17.4473 13.6918 16.8716 13.6918H1.04166C0.465937 13.6918 0 14.1581 0 14.7334V25.0899C0 25.6652 0.465976 26.1315 1.04166 26.1315H2.57556V45.6436H1.04166C0.465937 45.6436 0 46.11 0 46.6853C0 47.2606 0.465976 47.727 1.04166 47.727H48.9583C49.5341 47.727 50 47.2606 50 46.6853C50 46.11 49.5333 45.6429 48.9576 45.6429ZM39.1665 33.4824C41.2579 32.0009 44.3899 32.4449 45.8437 32.7642C45.6646 34.2407 45.0442 37.3341 42.9447 38.8199C41.4101 39.907 39.3162 39.9548 37.7342 39.778L41.6576 37.0014C42.1267 36.6687 42.2384 36.0187 41.906 35.5493C41.5733 35.0798 40.9256 34.9685 40.4535 35.3005L36.5316 38.0759C36.8913 36.5258 37.6322 34.5688 39.1665 33.4824ZM39.1665 20.4769C41.2579 18.9962 44.3899 19.4383 45.8437 19.7587C45.6646 21.2352 45.0442 24.3286 42.9447 25.8144C41.4204 26.8942 39.3451 26.9474 37.767 26.7749L41.8987 23.8512C42.3677 23.5185 42.4794 22.8684 42.1471 22.399C41.8144 21.93 41.1655 21.8172 40.6945 22.1503L36.5234 25.102C36.8804 23.547 37.6222 21.5702 39.1665 20.4769ZM32.6347 10.7019C32.7122 8.5496 34.5687 6.66257 35.5788 5.79146C36.6529 6.86014 38.2275 8.87839 38.1566 10.8975C38.1012 12.4618 37.1065 13.8797 36.1791 14.8757V11.1136C36.1791 10.5383 35.7131 10.072 35.1374 10.072C34.5617 10.072 34.0958 10.5383 34.0958 11.1136V14.5114C33.319 13.4801 32.5843 12.1249 32.6347 10.7019ZM27.3654 25.8142C25.2751 24.335 24.6505 21.2345 24.4672 19.7558C25.9198 19.4342 29.0437 18.991 31.1433 20.4767C32.5551 21.4756 33.2898 23.207 33.68 24.6854L30.0973 22.1499C29.626 21.8168 28.9779 21.9296 28.6452 22.3986C28.3124 22.8681 28.4245 23.5181 28.8936 23.8508L32.9514 26.7229C31.339 26.949 29.0299 26.991 27.3654 25.8142ZM27.3654 38.8196C25.2751 37.3404 24.6505 34.24 24.4672 32.7612C25.9198 32.4393 29.0437 31.9956 31.1433 33.4821C32.6787 34.5685 33.4201 36.5268 33.7797 38.0771L29.8555 35.3005C29.3865 34.9686 28.7364 35.0799 28.404 35.5493C28.0713 36.0187 28.1834 36.6691 28.6532 37.0015L32.5766 39.7777C30.995 39.954 28.9023 39.9064 27.3654 38.8196ZM2.08307 15.7742H15.8299V24.0469H2.08307V15.7742ZM8.23661 26.1306H9.67685V40.7558C9.67685 41.1533 9.35337 41.4767 8.95671 41.4767C8.56006 41.4767 8.23657 41.1533 8.23657 40.7558L8.23661 26.1306ZM4.65863 45.6427V26.1306H6.1528V40.7558C6.1528 42.3021 7.41016 43.5597 8.95638 43.5597C10.5026 43.5597 11.76 42.302 11.76 40.7558L11.7604 26.1306H13.2545V45.6427H4.65863Z" fill="#0F9447"/>
<path d="M5.04746 19.4405C5.62318 19.4405 6.08912 18.9741 6.08912 18.3988C6.08912 17.8235 5.62314 17.3572 5.04746 17.3572H4.94387C4.36814 17.3572 3.95416 17.8235 3.95416 18.3988C3.95378 18.9742 4.47174 19.4405 5.04748 19.4405H5.04746Z" fill="#0F9447"/>
<path d="M0.771794 5.11951C1.17885 5.52733 1.83889 5.52618 2.24595 5.12028C4.20732 3.16168 6.81324 2.08334 9.58449 2.08334H9.59257C12.3676 2.08604 14.9748 3.16818 16.935 5.13142C17.3409 5.53847 18.002 5.53924 18.4079 5.13258C18.8157 4.7263 18.8157 4.06667 18.4098 3.65961C16.0561 1.30202 12.926 0.00266182 9.5945 0H9.58449C6.25721 0 3.1279 1.29512 0.772978 3.6461C0.365926 4.05277 0.365926 4.7124 0.771822 5.11947L0.771794 5.11951Z" fill="#0F9447"/>
<path d="M15.2186 8.31796C15.6256 7.91168 15.6256 7.25205 15.2197 6.84499C13.7194 5.34235 11.7203 4.51393 9.59148 4.51245H9.58531C7.45921 4.51245 5.46127 5.33734 3.95981 6.83691C3.55275 7.24319 3.55275 7.90282 3.95865 8.30988C4.3657 8.7177 5.02574 8.71693 5.43281 8.31104C7.72453 6.02236 11.4546 6.02276 13.7448 8.3172C14.1488 8.72233 14.8088 8.72656 15.2185 8.31797L15.2186 8.31796Z" fill="#0F9447"/>
<path d="M7.14533 10.0278C6.73828 10.4341 6.73828 11.0937 7.14533 11.5008C7.55238 11.9086 8.21124 11.9078 8.6183 11.5019C8.87555 11.2443 9.21829 11.1026 9.58452 11.1026H9.58568C9.95191 11.1029 10.2958 11.245 10.5531 11.5034C10.9551 11.9066 11.6151 11.9147 12.026 11.505C12.4338 11.0983 12.4338 10.4387 12.0279 10.0312C10.6824 8.68376 8.49463 8.6807 7.14529 10.0278L7.14533 10.0278Z" fill="#0F9447"/>
</svg>
