<svg width="40" height="40" viewBox="0 0 40 40" fill="none" xmlns="http://www.w3.org/2000/svg">
<path d="M31.2197 13.7427C31.6803 13.7427 32.053 13.3696 32.053 12.9093V9.80537C32.053 9.34509 31.6802 8.97203 31.2197 8.97203H28.0066V8.31981C29.0107 7.97166 29.7384 7.02648 29.7384 5.90502C29.7384 4.49024 28.5877 3.3396 27.1733 3.3396C25.758 3.3396 24.6072 4.49032 24.6072 5.90502C24.6072 7.02648 25.3349 7.97199 26.3399 8.31981V9.8051C26.3399 10.2654 26.7127 10.6384 27.1733 10.6384H30.3863V12.909C30.3866 13.3696 30.7591 13.7427 31.2197 13.7427V13.7427ZM27.1735 5.00617C27.6693 5.00617 28.0719 5.40946 28.0719 5.90514C28.0719 6.40086 27.669 6.80411 27.1735 6.80411C26.6778 6.80411 26.2742 6.40082 26.2742 5.90514C26.2742 5.40942 26.6778 5.00617 27.1735 5.00617Z" fill="#0F9447"/>
<path d="M8.85749 8.97255C8.3969 8.97255 8.02414 9.34565 8.02414 9.8059V12.9099C8.02414 13.3701 8.39693 13.7432 8.85749 13.7432C9.31807 13.7432 9.69083 13.3701 9.69083 12.9099V10.6392H12.9039C13.3645 10.6392 13.7372 10.2661 13.7372 9.8059V8.32029C14.7412 7.97215 15.469 7.02697 15.469 5.90551C15.469 4.49073 14.3182 3.34009 12.9039 3.34009C11.4885 3.34009 10.3378 4.49081 10.3378 5.90551C10.3378 7.02697 11.0655 7.97247 12.0705 8.32029V8.97221L8.85749 8.97255ZM12.9039 5.00686C13.3997 5.00686 13.8024 5.41015 13.8024 5.90583C13.8024 6.40154 13.3994 6.80479 12.9039 6.80479C12.4082 6.80449 12.0047 6.4012 12.0047 5.90551C12.0047 5.41011 12.4083 5.00678 12.9039 5.00678V5.00686Z" fill="#0F9447"/>
<path d="M1.73074 12.8791V31.8388C1.73074 32.2991 2.10353 32.6721 2.56408 32.6721H15.9256C15.6772 32.9516 15.4659 33.2526 15.3186 33.5794C14.8928 33.4501 14.4323 33.3832 13.9513 33.3832C12.3995 33.3832 11.0808 34.1013 10.5041 35.1476C10.0574 35.0059 9.57463 34.9316 9.08413 34.9316C7.007 34.9316 5.31712 36.2678 5.31499 37.9111H1.39023C0.929639 37.9111 0.556882 38.2842 0.556882 38.7445C0.556882 39.2048 0.929671 39.5778 1.39023 39.5778H38.6692C39.1298 39.5778 39.5026 39.2047 39.5026 38.7445C39.5026 38.2842 39.1298 37.9111 38.6692 37.9111H34.7624C34.7602 36.2403 33.1051 34.9316 30.9923 34.9316C30.4959 34.9316 30.0125 35.0074 29.5753 35.1464C28.9958 34.101 27.6791 33.3832 26.1312 33.3832C25.6534 33.3832 25.1864 33.4525 24.7544 33.5841C24.6099 33.26 24.4099 32.9531 24.1625 32.6719L37.4349 32.6722C37.8955 32.6722 38.2682 32.2991 38.2682 31.8388V12.8791C39.2723 12.531 40 11.5858 40 10.4647C40 9.04989 38.8493 7.89925 37.4349 7.89925C36.0196 7.89925 34.8688 9.04997 34.8688 10.4647C34.8688 11.5861 35.5965 12.5313 36.6015 12.8791V31.0052H20.8724V27.7736C21.6947 27.9538 22.8981 28.1532 24.2472 28.1532C25.9938 28.1532 27.9615 27.818 29.5817 26.6713C33.3977 23.9715 33.61 17.9592 33.6174 17.7045C33.6273 17.3339 33.3919 17.0008 33.0388 16.8875C32.797 16.8098 27.0539 15.0103 23.2415 17.7095C22.2076 18.4412 21.4451 19.4181 20.8726 20.4557V5.40169C21.8766 5.05386 22.6044 4.10861 22.6044 2.98723C22.6044 1.57276 21.4537 0.422119 20.0393 0.422119C18.6239 0.422119 17.4732 1.57284 17.4732 2.98723C17.4732 4.10869 18.2009 5.05419 19.2059 5.40201V20.4553C18.6335 19.4176 17.871 18.4407 16.8371 17.709C13.0235 15.0095 7.28109 16.8094 7.03975 16.887C6.68667 17.0004 6.4513 17.3334 6.46116 17.704C6.46855 17.9582 6.68083 23.9708 10.4962 26.6708C12.1174 27.8175 14.0842 28.1527 15.8308 28.1527C17.1805 28.1527 18.3839 27.9531 19.2065 27.7728V31.0047H3.39846V12.8787C4.40311 12.5308 5.13116 11.5856 5.13116 10.4642C5.13116 9.04943 3.98044 7.89878 2.56511 7.89878C1.15064 7.89878 0 9.04951 0 10.4642C0 11.5854 0.727708 12.5305 1.73176 12.8787L1.73074 12.8791ZM37.4347 9.56587C37.9304 9.56587 38.3331 9.96916 38.3331 10.4648C38.3331 10.9137 37.9963 11.2708 37.5653 11.3368C37.521 11.3294 37.4809 11.3103 37.4344 11.3103C37.3879 11.3103 37.3478 11.3294 37.3034 11.3368C36.8721 11.2708 36.5351 10.9137 36.5351 10.4648C36.5354 9.96912 36.939 9.56587 37.4347 9.56587ZM22.3798 33.317C22.9871 33.7169 23.3362 34.2409 23.362 34.7927C23.3768 35.0922 23.5509 35.3608 23.8177 35.4964C24.0854 35.6323 24.4052 35.6135 24.6551 35.4477C25.0358 35.1951 25.5737 35.0503 26.1314 35.0503C27.3407 35.0503 28.2042 35.721 28.2231 36.323C28.2329 36.6175 28.4012 36.8834 28.66 37.0248C28.9178 37.1666 29.237 37.1582 29.4899 37.0082C29.5275 36.9863 29.5638 36.9626 29.6501 36.9207C30.0309 36.7127 30.5078 36.5984 30.9922 36.5984C32.1112 36.5984 33.0927 37.2115 33.0958 37.9112H6.98096C6.98435 37.2895 7.84696 36.5984 9.08397 36.5984C9.63483 36.5984 10.1777 36.7454 10.5742 37.0014C10.8281 37.1647 11.1497 37.1789 11.4156 37.0384C11.6824 36.8976 11.8519 36.624 11.8599 36.3227C11.8753 35.721 12.738 35.0503 13.9515 35.0503C14.5123 35.0503 15.0323 35.1902 15.4165 35.444C15.6648 35.6092 15.9846 35.6276 16.2523 35.4927C16.5191 35.3581 16.6935 35.0903 16.7089 34.7912C16.7669 33.6479 18.1887 32.7196 19.9045 32.6722H20.1762C21.0108 32.695 21.7878 32.9159 22.3799 33.317L22.3798 33.317ZM24.2037 19.0706C26.6817 17.3157 30.4247 17.9565 31.8991 18.3071C31.7395 19.8155 31.099 23.5567 28.6195 25.3109C26.612 26.7315 23.7792 26.5824 21.9895 26.2879L26.9081 22.6296C27.2775 22.3548 27.3542 21.8329 27.0797 21.4638C26.8055 21.0948 26.2821 21.0165 25.9136 21.2925L21.1007 24.8722C21.4325 23.0868 22.2413 20.4589 24.2038 19.0706L24.2037 19.0706ZM20.0387 2.08973C20.5344 2.08973 20.9371 2.49302 20.9371 2.98814C20.9371 3.48386 20.5341 3.88711 20.0387 3.88711C19.5429 3.88711 19.1394 3.48382 19.1394 2.98814C19.1394 2.49305 19.543 2.08973 20.0387 2.08973ZM11.4583 25.3116H11.4577C8.97793 23.5574 8.33743 19.8162 8.17811 18.3078C9.65259 17.9578 13.3956 17.317 15.8735 19.0713C17.8361 20.4595 18.6448 23.0875 18.9769 24.8731L14.163 21.2934C13.7927 21.0186 13.2711 21.0959 12.9969 21.4647C12.7227 21.8341 12.7992 22.3557 13.1686 22.6305L18.0881 26.2888C16.2987 26.5833 13.4649 26.7327 11.4583 25.3115V25.3116ZM2.56408 9.56666C3.0598 9.56666 3.46337 9.96995 3.46337 10.4656C3.46337 10.9583 3.06347 11.3584 2.57118 11.3628C2.56872 11.3628 2.56656 11.3612 2.5641 11.3612C2.56163 11.3612 2.55947 11.3628 2.55701 11.3628C2.06499 11.3585 1.66569 10.9583 1.66569 10.4653C1.66569 9.96991 2.06867 9.56658 2.56411 9.56658L2.56408 9.56666Z" fill="#0F9447"/>
</svg>
