<svg width="15" height="13" viewBox="0 0 15 13" fill="none" xmlns="http://www.w3.org/2000/svg">
<path d="M15 1.43821C14.4484 1.67463 13.8481 1.84478 13.2298 1.91104C13.8717 1.53213 14.3525 0.933495 14.5818 0.227469C13.9794 0.583508 13.3195 0.833169 12.6313 0.965377C12.3437 0.659873 11.9958 0.416495 11.6094 0.250408C11.2229 0.0843206 10.8062 -0.000916624 10.3852 7.43353e-06C8.68165 7.43353e-06 7.31162 1.37194 7.31162 3.05552C7.31162 3.29193 7.34046 3.52835 7.38733 3.75581C4.83656 3.62328 2.56159 2.41253 1.04915 0.558811C0.77357 1.02648 0.629156 1.55897 0.630934 2.10089C0.630934 3.16119 1.17354 4.09611 2.00096 4.64596C1.51335 4.62688 1.03715 4.49372 0.611104 4.2573V4.29492C0.611104 5.77969 1.66747 7.01013 3.07535 7.29311C2.81101 7.36133 2.53907 7.39623 2.26595 7.39699C2.06586 7.39699 1.87658 7.37729 1.68549 7.35043C2.07487 8.56117 3.20875 9.44057 4.55895 9.46922C3.50258 10.2913 2.17943 10.7749 0.742699 10.7749C0.484918 10.7749 0.246966 10.7659 0 10.7373C1.36282 11.6059 2.97981 12.1074 4.72119 12.1074C10.3744 12.1074 13.4677 7.45431 13.4677 3.41552C13.4677 3.28298 13.4677 3.15044 13.4587 3.01791C14.0572 2.58268 14.5818 2.04358 15 1.43821Z" fill="white"/>
</svg>
