<svg width="40" height="39" viewBox="0 0 40 39" fill="none" xmlns="http://www.w3.org/2000/svg">
<path d="M39.1661 36.5141H28.9431V33.3193C31.0889 33.7411 33.5409 33.6736 35.3186 32.4167C38.2327 30.355 38.3929 25.7969 38.3987 25.6041C38.4086 25.2334 38.1732 24.9004 37.8201 24.7871C37.6371 24.7285 33.2839 23.3653 30.3708 25.4254C29.7919 25.8352 29.3251 26.3456 28.9434 26.899V22.9152C31.0892 23.3369 33.5412 23.2695 35.3188 22.0125C38.2329 19.9508 38.3931 15.3928 38.399 15.1999C38.4088 14.8293 38.1735 14.4963 37.8204 14.3829C37.6374 14.3244 33.2842 12.9617 30.371 15.0213C29.7921 15.431 29.3254 15.9415 28.9437 16.4949V14.1729C29.8137 13.4812 32.0971 11.4205 32.1908 8.77842C32.3048 5.58266 29.1562 3.0016 29.0219 2.89347C28.7329 2.66026 28.3262 2.64639 28.0225 2.85773C27.8808 2.95663 24.5566 5.30755 24.4435 8.503C24.3501 11.118 26.4401 13.3195 27.2772 14.0934V16.4512C26.9005 15.9145 26.4417 15.4207 25.8776 15.0217C22.9641 12.9603 18.6112 14.3239 18.4289 14.3834C18.0758 14.4968 17.8404 14.8298 17.8503 15.2004C17.8559 15.3932 18.0173 19.9513 20.9314 22.013C22.7053 23.2691 25.1493 23.3344 27.2772 22.9209V26.8558C26.9005 26.3191 26.4417 25.8253 25.8776 25.4263C22.9642 23.3649 18.6112 24.7285 18.4289 24.7879C18.0758 24.9013 17.8405 25.2343 17.8503 25.6049C17.8559 25.7978 18.0173 30.3558 20.9314 32.4175C22.7053 33.6736 25.1493 33.7389 27.2773 33.3255V36.515L12.2701 36.5144V20.9047H13.4972C13.9578 20.9047 14.3306 20.5316 14.3306 20.0713V16.1113H16.2244C16.6849 16.1113 17.0577 15.7382 17.0577 15.2779V8.68286H17.3531C17.8137 8.68286 18.1865 8.30978 18.1865 7.84954C18.1865 7.3893 17.8137 7.01621 17.3531 7.01621H14.9979C14.5373 7.01621 14.1646 7.3893 14.1646 7.84954C14.1646 8.30978 14.5373 8.68286 14.9979 8.68286H15.391V14.4446H14.3306V11.7865C14.3306 11.3262 13.9578 10.9532 13.4973 10.9532H0.833327C0.372749 10.9532 0 11.3263 0 11.7865V20.0717C0 20.5319 0.372781 20.905 0.833327 20.905H2.06045V36.5147H0.833327C0.372749 36.5147 0 36.8878 0 37.348C0 37.8083 0.372781 38.1813 0.833327 38.1813H39.1667C39.6273 38.1813 40 37.8083 40 37.348C40 36.8877 39.6266 36.5141 39.1661 36.5141ZM31.3332 26.7857C33.0064 25.6005 35.5119 25.9557 36.6749 26.2111C36.5317 27.3923 36.0354 29.8671 34.3557 31.0557C33.1281 31.9254 31.453 31.9636 30.1874 31.8222L33.3261 29.6009C33.7014 29.3348 33.7907 28.8147 33.5248 28.4392C33.2586 28.0637 32.7405 27.9746 32.3628 28.2402L29.2253 30.4605C29.513 29.2204 30.1057 27.6548 31.3332 26.7857ZM31.3332 16.3813C33.0064 15.1967 35.5119 15.5504 36.6749 15.8067C36.5317 16.988 36.0354 19.4627 34.3557 20.6513C33.1363 21.5152 31.4761 21.5577 30.2136 21.4197L33.519 19.0808C33.8942 18.8146 33.9835 18.2945 33.7177 17.919C33.4515 17.5438 32.9324 17.4535 32.5556 17.72L29.2188 20.0814C29.5043 18.8374 30.0978 17.256 31.3332 16.3813ZM26.1078 8.56132C26.1697 6.83946 27.655 5.32984 28.463 4.63295C29.3223 5.48789 30.582 7.10249 30.5253 8.7178C30.4809 9.96921 29.6852 11.1036 28.9433 11.9003V8.89068C28.9433 8.43041 28.5705 8.05735 28.11 8.05735C27.6494 8.05735 27.2766 8.43044 27.2766 8.89068V11.6089C26.6552 10.7838 26.0674 9.69971 26.1078 8.56132ZM21.8923 20.6511C20.2201 19.4678 19.7204 16.9874 19.5738 15.8044C20.7358 15.5471 23.235 15.1925 24.9147 16.3811C26.0441 17.1803 26.6319 18.5654 26.944 19.7481L24.0779 17.7197C23.7008 17.4532 23.1823 17.5435 22.9161 17.9187C22.65 18.2942 22.7396 18.8142 23.1148 19.0804L26.3611 21.3781C25.0712 21.559 23.2239 21.5926 21.8923 20.6511ZM21.8923 31.0555C20.2201 29.8721 19.7204 27.3918 19.5738 26.2087C20.7358 25.9512 23.235 25.5963 24.9147 26.7855C26.143 27.6546 26.7361 29.2212 27.0238 30.4615L23.8844 28.2402C23.5092 27.9746 22.9891 28.0637 22.7232 28.4392C22.457 28.8148 22.5467 29.3351 22.9225 29.601L26.0613 31.8219C24.796 31.963 23.1218 31.9249 21.8923 31.0555ZM1.66646 12.6191H12.6639V19.2373H1.66646V12.6191ZM6.58929 20.9043H7.74148V32.6044C7.74148 32.9224 7.4827 33.1812 7.16537 33.1812C6.84805 33.1812 6.58925 32.9224 6.58925 32.6044L6.58929 20.9043ZM3.7269 36.514V20.9043H4.92224V32.6044C4.92224 33.8414 5.92813 34.8475 7.16511 34.8475C8.40208 34.8475 9.40798 33.8413 9.40798 32.6044L9.40828 20.9043H10.6036V36.514H3.7269Z" fill="white"/>
<path d="M4.03797 15.5525C4.49855 15.5525 4.8713 15.1794 4.8713 14.7192C4.8713 14.2589 4.49851 13.8859 4.03797 13.8859H3.95509C3.49452 13.8859 3.16333 14.259 3.16333 14.7192C3.16302 15.1795 3.57739 15.5525 4.03798 15.5525H4.03797Z" fill="white"/>
<path d="M0.617431 4.09561C0.943072 4.42187 1.47111 4.42094 1.79675 4.09623C3.36585 2.52934 5.45058 1.66668 7.66758 1.66668H7.67405C9.89405 1.66883 11.9798 2.53455 13.548 4.10514C13.8727 4.43078 14.4016 4.43139 14.7263 4.10606C15.0526 3.78104 15.0526 3.25333 14.7279 2.92769C12.8449 1.04162 10.3408 0.00212946 7.67559 0H7.66758C5.00576 0 2.50231 1.0361 0.618377 2.91688C0.292736 3.24221 0.292736 3.76992 0.617453 4.09557L0.617431 4.09561Z" fill="white"/>
<path d="M12.1749 6.65452C12.5005 6.32949 12.5005 5.80179 12.1758 5.47614C10.9755 4.27402 9.37627 3.61129 7.67317 3.61011H7.66824C5.96736 3.61011 4.36901 4.27002 3.16784 5.46967C2.8422 5.7947 2.8422 6.3224 3.16691 6.64805C3.49256 6.97431 4.02059 6.97369 4.34624 6.64898C6.17962 4.81804 9.1637 4.81835 10.9958 6.6539C11.319 6.97801 11.847 6.98139 12.1748 6.65452L12.1749 6.65452Z" fill="white"/>
<path d="M5.71626 8.02208C5.39062 8.34711 5.39062 8.87481 5.71626 9.20046C6.0419 9.52671 6.56899 9.5261 6.89464 9.20138C7.10044 8.99527 7.37463 8.8819 7.66762 8.8819H7.66854C7.96152 8.88221 8.23664 8.99589 8.44244 9.20261C8.76407 9.52517 9.29209 9.53164 9.62082 9.20384C9.94707 8.87851 9.94707 8.3508 9.62236 8.02484C8.54596 6.94686 6.7957 6.94441 5.71623 8.02206L5.71626 8.02208Z" fill="white"/>
</svg>
