<svg width="40" height="44" viewBox="0 0 40 44" fill="none" xmlns="http://www.w3.org/2000/svg">
<path d="M3.06957 28.7337H2.12475V27.7337H3.06992V26.7338L3.99974 26.7335V27.7334H4.94492V28.7333L3.99974 28.7337V27.7337L3.06957 27.7334V28.7337ZM3.06957 29.7336H3.99974V28.7337H3.06957V29.7336ZM35.9846 27.7337H36.9298V28.7337H37.875V27.7337L36.9298 27.7334V26.7335H35.9996V27.7334H35.0398V28.7333L35.9996 28.7337L35.9846 27.7337ZM35.9846 29.7336H36.9298V28.7337H35.9996L35.9846 29.7336ZM31.7896 15.4434H32.7348V16.4434H33.68L33.6796 15.4434H32.7348V14.4432H31.7896V15.4431L30.8448 15.4434V16.4433H31.79L31.7896 15.4434ZM31.7896 17.4433H32.7348V16.4434H31.7896V17.4433ZM7.28973 15.4434H8.2349V16.4434H9.18007L9.17973 15.4434H8.20982V14.4432H7.26465V15.4431L6.31983 15.4434V16.4433H7.265L7.28973 15.4434ZM7.28973 17.4433H8.2349L8.23455 16.4434H7.26465L7.28973 17.4433ZM2.59984 37.5878H3.54501V38.5877H4.49956V37.5878H3.54465V36.5879H2.59984V37.5878H1.64975V38.5877H2.59984V37.5878ZM2.59984 39.5876H3.54501V38.5877H2.59984V39.5876ZM3.06963 1.94315H3.9998V2.94306H4.94498L4.94463 1.94315H3.99981V0.943242H3.06964V1.94315H2.12482V2.94306H3.06999L3.06963 1.94315ZM3.06963 3.94296L3.9998 3.94331V2.9434H3.06963V3.94296ZM35.9998 1.94315H36.945V2.94306H37.8902L37.8898 1.94315H36.93V0.943242H35.9999V1.94315H35.04V2.94306L35.9999 2.9434L35.9998 1.94315ZM35.9998 3.94296H36.945V2.94341H35.9998V3.94296ZM0 43.0276H5.1398V42.0277H0V43.0276ZM6.14015 43.0276H38.0552V42.0277H6.14015V43.0276ZM39.0552 42.0277V43.0276H40V42.0277H39.0552ZM7.55532 41.0278H28.3204V40.0279H7.53568L7.55532 41.0278ZM29.34 41.0278H32.8399V40.0279H29.34V41.0278ZM18.1803 28.7475C18.1876 28.6725 18.1876 28.5972 18.1803 28.5225H17.1103C17.4259 28.7294 17.8078 28.8096 18.1803 28.7475ZM21.2603 29.3226V29.3223C20.9195 29.663 20.7633 30.1468 20.84 30.6224C21.3147 30.6988 21.7974 30.5429 22.1378 30.2036C22.4781 29.8642 22.6351 29.3822 22.5601 28.9071C22.0854 28.829 21.6017 28.9835 21.2602 29.3222L21.2603 29.3226ZM16.4601 31.6528V31.6524C16.3834 32.1282 16.5396 32.6115 16.8804 32.9523C17.2211 33.2931 17.7045 33.4493 18.1803 33.3723C18.257 32.8969 18.1008 32.4132 17.76 32.0727C17.4193 31.732 16.9359 31.5757 16.4601 31.6524V31.6528ZM23.5702 29.3376V29.3373C23.6057 28.9177 23.5335 28.496 23.3602 28.1124C22.9176 27.9094 22.4255 27.84 21.9439 27.9129C21.4626 27.9858 21.013 28.1975 20.6503 28.5225H23.0952L23.5702 29.3376ZM18.9804 29.5375H18.98C18.5161 29.7471 17.9993 29.8116 17.4977 29.7227C16.9962 29.6334 16.5333 29.3945 16.1703 29.0373C16.0168 28.8877 15.8826 28.7196 15.7703 28.5375H15.0002L11.6101 34.3875H17.9501C17.8196 34.3875 17.6892 34.3774 17.5601 34.3575C16.7894 34.2365 16.119 33.7622 15.7483 33.0755C15.3775 32.3891 15.3486 31.5684 15.6701 30.8573C16.292 30.5678 17.0056 30.5462 17.6435 30.7976C18.2818 31.0494 18.7885 31.5524 19.0449 32.1885C19.3016 32.8247 19.2852 33.5386 19.0002 34.1625C18.6766 34.3097 18.3257 34.3864 17.9703 34.3875H26.5002L23.5702 29.3474V29.5225C23.4942 30.0488 23.25 30.5367 22.8744 30.913C22.4988 31.2897 22.0115 31.5349 21.4852 31.6123C21.0004 31.6981 20.5013 31.6391 20.05 31.4424C19.838 30.9796 19.7721 30.4631 19.8613 29.9616C19.951 29.4604 20.1909 28.9983 20.5502 28.6373L20.6503 28.5424H19.2001C19.2036 28.8842 19.1356 29.2232 19.0002 29.5375L18.9804 29.5375ZM16.8804 28.3325H16.88C16.5379 27.9907 16.3816 27.5048 16.4601 27.0274C16.9358 26.9507 17.4196 27.1069 17.76 27.4473C18.0453 27.7322 18.204 28.1194 18.2002 28.5226H19.2001C19.1987 28.39 19.1868 28.2579 19.1652 28.1274C19.0456 27.3556 18.5719 26.6842 17.8848 26.3121C17.1981 25.9403 16.3767 25.9106 15.6653 26.2325C15.47 26.6769 15.4124 27.17 15.5003 27.6475C15.5415 27.9538 15.6416 28.2492 15.795 28.5174H17.135C17.0423 28.4675 16.9565 28.4054 16.8801 28.3325L16.8804 28.3325ZM17.8803 7.83256C17.4101 7.20338 17.263 6.38971 17.4834 5.63569C17.7034 4.88165 18.2653 4.27517 19.0002 3.99749C19.6384 4.23779 20.1511 4.72816 20.419 5.35561C20.6872 5.98304 20.6872 6.69248 20.419 7.31953C20.1511 7.94696 19.6384 8.43765 19.0002 8.67765C18.5482 8.5064 18.1568 8.20541 17.875 7.81269L17.8803 7.83256ZM18.3804 6.35757H18.3801C18.3863 6.83155 18.6162 7.27453 19.0002 7.55247C19.3898 7.27067 19.6203 6.81865 19.6203 6.33775C19.6203 5.85644 19.3898 5.4048 19.0002 5.12266C18.6123 5.40587 18.3839 5.85752 18.385 6.33775L18.3804 6.35757ZM20.4102 8.42756C20.7852 8.04984 21.2731 7.80395 21.8 7.72758C22.2824 7.65259 22.7759 7.72025 23.2199 7.92254C23.5418 8.63508 23.5118 9.45718 23.1386 10.1442C22.7658 10.8313 22.0926 11.3042 21.3201 11.4224C20.8416 11.4971 20.3516 11.4312 19.91 11.2327C19.6976 10.7699 19.6321 10.253 19.7214 9.75182C19.8106 9.25066 20.0509 8.78852 20.4102 8.42754L20.4102 8.42756ZM20.7001 10.4274V10.4277C21.1747 10.5041 21.6571 10.3482 21.9975 10.0088C22.3379 9.66949 22.4952 9.18749 22.4202 8.71242C21.9455 8.63604 21.4628 8.79194 21.1224 9.1313C20.782 9.47065 20.6251 9.95265 20.7001 10.4277L20.7001 10.4274ZM14.8003 7.92738V7.92773C15.2418 7.72893 15.7315 7.66302 16.21 7.73765C16.9829 7.85588 17.6556 8.32882 18.0288 9.01586C18.4017 9.70294 18.4317 10.525 18.1101 11.2375C17.6661 11.4398 17.1722 11.5075 16.6903 11.4325C15.9191 11.3115 15.2491 10.8375 14.878 10.1508C14.5073 9.46409 14.4784 8.64377 14.8003 7.93261L14.8003 7.92738ZM16.0001 9.99773C16.3419 10.3364 16.8253 10.4909 17.3003 10.4128C17.3752 9.93774 17.2179 9.45572 16.8775 9.11634C16.5371 8.77699 16.0548 8.62108 15.5801 8.69747C15.5031 9.17319 15.6593 9.65693 16.0001 9.99764L16.0001 9.99773ZM23.25 12.4126C23.6249 12.0349 24.1132 11.7908 24.6401 11.7175C25.1207 11.6418 25.6129 11.7099 26.0551 11.9125C26.2619 12.3757 26.3251 12.8901 26.2358 13.3895C26.1465 13.889 25.9093 14.3497 25.555 14.7127C25.1811 15.0912 24.6925 15.3353 24.1652 15.4075C23.6874 15.4874 23.1962 15.4228 22.7551 15.2226C22.5455 14.7584 22.481 14.2416 22.5699 13.7401C22.6592 13.2389 22.8981 12.776 23.2552 12.4127L23.25 12.4126ZM23.5398 14.4124H23.5401C24.0159 14.4895 24.4992 14.3333 24.84 13.9925C25.1808 13.6518 25.337 13.168 25.26 12.6926C24.7783 12.6131 24.2879 12.7728 23.9458 13.1209C23.6036 13.4693 23.4523 13.9621 23.5401 14.4424L23.5398 14.4124ZM22.7502 22.0976C22.5378 21.6348 22.4722 21.1182 22.5615 20.6167C22.6508 20.1155 22.8911 19.6534 23.25 19.2924C23.6231 18.9119 24.1121 18.6657 24.6401 18.5924C25.1207 18.5168 25.6129 18.5848 26.0551 18.7874C26.3767 19.4993 26.3474 20.3206 25.9753 21.0073C25.6035 21.694 24.932 22.1677 24.1603 22.2877C23.6817 22.3619 23.1917 22.296 22.7502 22.0976L22.7502 22.0976ZM23.5401 21.2975C24.0148 21.3756 24.4985 21.2215 24.84 20.8825C25.1808 20.5417 25.337 20.0583 25.26 19.5826C24.7856 19.5062 24.3029 19.6617 23.9626 20.0011C23.6222 20.3408 23.4652 20.8228 23.5402 21.2975L23.5401 21.2975ZM11.7804 16.4426C11.7141 15.9596 11.7905 15.4678 12.0001 15.0276C12.4434 14.8278 12.9355 14.7633 13.4151 14.8424C13.9428 14.9206 14.4311 15.1671 14.807 15.5456C15.183 15.9243 15.4261 16.4143 15.5004 16.9424C15.5782 17.4209 15.5119 17.9116 15.3103 18.3525C14.8677 18.5537 14.3759 18.6214 13.8953 18.5475C13.3645 18.4711 12.8741 18.2217 12.5002 17.8377C12.1148 17.4631 11.862 16.9735 11.7804 16.4426L11.7804 16.4426ZM13.1852 17.1227V17.1224C13.5259 17.4631 14.0097 17.6194 14.4851 17.5426C14.5615 17.068 14.4059 16.5856 14.0666 16.2452C13.7272 15.9049 13.2452 15.7475 12.7701 15.8225C12.6903 16.2989 12.8448 16.7848 13.1852 17.1276L13.1852 17.1227ZM11.8553 1.82279C11.7772 1.34079 11.8452 0.846189 12.0502 0.402977C12.7628 0.0810587 13.5845 0.111407 14.2716 0.484241C14.9586 0.857427 15.4319 1.53022 15.5501 2.30307C15.6279 2.78124 15.562 3.27226 15.3601 3.7128C14.6489 4.03437 13.8286 4.00576 13.1419 3.63467C12.4555 3.26393 11.9811 2.59396 11.8602 1.82281L11.8553 1.82279ZM13.2553 2.5029C13.5971 2.84504 14.0829 3.00164 14.56 2.92281C14.6371 2.44744 14.4808 1.96371 14.1401 1.62291C13.7993 1.28251 13.3159 1.12591 12.8402 1.20299C12.7621 1.67767 12.9162 2.16102 13.2552 2.5029H13.2553ZM20.1452 22.3582C20.606 22.9901 20.7444 23.801 20.5198 24.5499C20.2949 25.299 19.7326 25.8996 19.0002 26.1734C18.3616 25.9331 17.8488 25.4427 17.581 24.8153C17.3131 24.1882 17.3131 23.4784 17.581 22.8514C17.8488 22.2239 18.3615 21.7335 19.0002 21.4933C19.4595 21.661 19.8582 21.9624 20.1452 22.3582L20.1452 22.3582ZM19.6451 23.8582C19.6475 23.364 19.4062 22.9002 19.0002 22.6183C18.6106 22.9005 18.3798 23.3522 18.3798 23.8331C18.3798 24.3144 18.6106 24.766 19.0002 25.0482C19.3954 24.7691 19.6318 24.3168 19.635 23.8331L19.6451 23.8582ZM21.5002 12.4431H20.5003V22.1681L20.7102 22.5332L28.145 35.3876H9.87547L17.3004 22.5323L17.5104 22.1672V12.4422H16.5004V21.8967L8.13544 36.3966L29.8755 36.3969L21.5005 21.897L21.5002 12.4431Z" fill="#0F9447"/>
</svg>
