<svg width="32" height="29" viewBox="0 0 32 29" fill="none" xmlns="http://www.w3.org/2000/svg">
<path d="M31.1668 26.1667C31.2587 26.1667 31.3334 26.2414 31.3334 26.3333V27.3333C31.3334 27.4252 31.2587 27.5 31.1668 27.5H0.833437C0.741537 27.5 0.666771 27.4252 0.666771 27.3333V26.3333C0.666771 26.2414 0.741537 26.1667 0.833437 26.1667H11.8334C11.8334 26.5348 12.1319 26.8333 12.5001 26.8333H19.5001C19.8683 26.8333 20.1668 26.5348 20.1668 26.1667H31.1668ZM31.1668 25.5H19.5001V26.1667H12.5001V25.5H0.833437C0.373204 25.5 0.000104268 25.8731 0.000104268 26.3333V27.3333C0.000104268 27.7936 0.373204 28.1667 0.833437 28.1667H31.1668C31.627 28.1667 32.0001 27.7936 32.0001 27.3333V26.3333C32.0001 25.8731 31.627 25.5 31.1668 25.5Z" fill="#0F9447"/>
<path d="M19.1668 24.8333C19.3506 24.8333 19.5001 24.9829 19.5001 25.1667V26.1667H12.5001V25.1667C12.5001 24.9829 12.6496 24.8333 12.8334 24.8333H19.1668ZM19.1668 24.1667H12.8334C12.2811 24.1667 11.8334 24.6144 11.8334 25.1667V26.1667C11.8334 26.5348 12.1319 26.8333 12.5001 26.8333H19.5001C19.8683 26.8333 20.1668 26.5348 20.1668 26.1667V25.1667C20.1668 24.6144 19.719 24.1667 19.1668 24.1667Z" fill="#0F9447"/>
<path d="M16.8334 9.33332V24.1666H15.1668V9.33332H16.8334ZM17.5001 8.66666H14.5001V24.8333H17.5001V8.66666Z" fill="#0F9447"/>
<path d="M16.3334 4.16667V6.33333H15.6668V4.16667H16.3334ZM17.0001 3.5H15.0001V7H17.0001V3.5Z" fill="#0F9447"/>
<path d="M18.0001 7.00001C18.092 7.00001 18.1668 7.07478 18.1668 7.16668V8.50001C18.1668 8.59191 18.092 8.66668 18.0001 8.66668H14.0001C13.9082 8.66668 13.8334 8.59191 13.8334 8.50001V7.16668C13.8334 7.07478 13.9082 7.00001 14.0001 7.00001H18.0001ZM18.0001 6.33334H14.0001C13.5399 6.33334 13.1668 6.70644 13.1668 7.16668V8.50001C13.1668 8.96024 13.5399 9.33334 14.0001 9.33334H18.0001C18.4603 9.33334 18.8334 8.96024 18.8334 8.50001V7.16668C18.8334 6.70644 18.4603 6.33334 18.0001 6.33334Z" fill="#0F9447"/>
<path d="M17.3334 2.83332C17.4253 2.83332 17.5001 2.90809 17.5001 2.99999V3.33332C17.5001 3.42522 17.4253 3.49999 17.3334 3.49999H14.6668C14.5749 3.49999 14.5001 3.42522 14.5001 3.33332V2.99999C14.5001 2.90809 14.5749 2.83332 14.6668 2.83332H17.3334ZM17.3334 2.16666H14.6668C14.2065 2.16666 13.8334 2.53976 13.8334 2.99999V3.33332C13.8334 3.79356 14.2065 4.16666 14.6668 4.16666H17.3334C17.7937 4.16666 18.1668 3.79356 18.1668 3.33332V2.99999C18.1668 2.53976 17.7937 2.16666 17.3334 2.16666Z" fill="#0F9447"/>
<path d="M21.6668 2.83332C21.7587 2.83332 21.8334 2.90809 21.8334 2.99999V3.33332C21.8334 3.42522 21.7587 3.49999 21.6668 3.49999H20.6668C20.5749 3.49999 20.5001 3.42522 20.5001 3.33332V2.99999C20.5001 2.90809 20.5749 2.83332 20.6668 2.83332H21.6668ZM21.6668 2.16666H20.6668C20.2065 2.16666 19.8334 2.53976 19.8334 2.99999V3.33332C19.8334 3.79356 20.2065 4.16666 20.6668 4.16666H21.6668C22.127 4.16666 22.5001 3.79356 22.5001 3.33332V2.99999C22.5001 2.53976 22.127 2.16666 21.6668 2.16666Z" fill="#0F9447"/>
<path d="M25.6668 4.83332C25.7587 4.83332 25.8334 4.90809 25.8334 4.99999V5.33332C25.8334 5.42522 25.7587 5.49999 25.6668 5.49999H24.6668C24.5749 5.49999 24.5001 5.42522 24.5001 5.33332V4.99999C24.5001 4.90809 24.5749 4.83332 24.6668 4.83332H25.6668ZM25.6668 4.16666H24.6668C24.2065 4.16666 23.8334 4.53976 23.8334 4.99999V5.33332C23.8334 5.79356 24.2065 6.16666 24.6668 6.16666H25.6668C26.127 6.16666 26.5001 5.79356 26.5001 5.33332V4.99999C26.5001 4.53976 26.127 4.16666 25.6668 4.16666Z" fill="#0F9447"/>
<path d="M25.6668 0.666666C25.7587 0.666666 25.8334 0.741433 25.8334 0.833333V1.16667C25.8334 1.25857 25.7587 1.33333 25.6668 1.33333H24.6668C24.5749 1.33333 24.5001 1.25857 24.5001 1.16667V0.833333C24.5001 0.741433 24.5749 0.666666 24.6668 0.666666H25.6668ZM25.6668 0H24.6668C24.2065 0 23.8334 0.3731 23.8334 0.833333V1.16667C23.8334 1.6269 24.2065 2 24.6668 2H25.6668C26.127 2 26.5001 1.6269 26.5001 1.16667V0.833333C26.5001 0.3731 26.127 0 25.6668 0Z" fill="#0F9447"/>
<path d="M11.3334 2.83332C11.4253 2.83332 11.5001 2.90809 11.5001 2.99999V3.33332C11.5001 3.42522 11.4253 3.49999 11.3334 3.49999H10.3334C10.2415 3.49999 10.1668 3.42522 10.1668 3.33332V2.99999C10.1668 2.90809 10.2415 2.83332 10.3334 2.83332H11.3334ZM11.3334 2.16666H10.3334C9.8732 2.16666 9.5001 2.53976 9.5001 2.99999V3.33332C9.5001 3.79356 9.8732 4.16666 10.3334 4.16666H11.3334C11.7937 4.16666 12.1668 3.79356 12.1668 3.33332V2.99999C12.1668 2.53976 11.7937 2.16666 11.3334 2.16666Z" fill="#0F9447"/>
<path d="M7.33343 4.83332C7.42533 4.83332 7.5001 4.90809 7.5001 4.99999V5.33332C7.5001 5.42522 7.42533 5.49999 7.33343 5.49999H6.33343C6.24153 5.49999 6.16677 5.42522 6.16677 5.33332V4.99999C6.16677 4.90809 6.24153 4.83332 6.33343 4.83332H7.33343ZM7.33343 4.16666H6.33343C5.8732 4.16666 5.5001 4.53976 5.5001 4.99999V5.33332C5.5001 5.79356 5.8732 6.16666 6.33343 6.16666H7.33343C7.79367 6.16666 8.16677 5.79356 8.16677 5.33332V4.99999C8.16677 4.53976 7.79367 4.16666 7.33343 4.16666Z" fill="#0F9447"/>
<path d="M7.33343 0.666666C7.42533 0.666666 7.5001 0.741433 7.5001 0.833333V1.16667C7.5001 1.25857 7.42533 1.33333 7.33343 1.33333H6.33343C6.24153 1.33333 6.16677 1.25857 6.16677 1.16667V0.833333C6.16677 0.741433 6.24153 0.666666 6.33343 0.666666H7.33343ZM7.33343 0H6.33343C5.8732 0 5.5001 0.3731 5.5001 0.833333V1.16667C5.5001 1.6269 5.8732 2 6.33343 2H7.33343C7.79367 2 8.16677 1.6269 8.16677 1.16667V0.833333C8.16677 0.3731 7.79367 0 7.33343 0Z" fill="#0F9447"/>
<path d="M5.37565 7.50001C5.66005 7.50001 6.3556 8.52226 6.3556 10.4172C6.3556 12.3121 5.66005 13.3343 5.37565 13.3343C5.09125 13.3343 4.39569 12.3121 4.39569 10.4172C4.39569 8.52226 5.09125 7.50001 5.37565 7.50001ZM5.37565 6.83334C4.46625 6.83334 3.72902 8.43788 3.72902 10.4172C3.72902 12.3964 4.46624 14.001 5.37565 14.001C6.28507 14.001 7.02226 12.3964 7.02226 10.4172C7.02226 8.43788 6.28505 6.83334 5.37565 6.83334Z" fill="#0F9447"/>
<path d="M0.971312 13.5136H0.971278C1.49204 13.5136 2.49999 13.9611 3.48244 14.9435C4.08401 15.545 4.55677 16.235 4.77957 16.8366C4.96504 17.3373 4.92464 17.6268 4.85226 17.6992C4.81462 17.7368 4.72327 17.7593 4.60789 17.7593C4.08706 17.7593 3.07903 17.3118 2.09659 16.3294C0.756695 14.9895 0.525696 13.7748 0.726795 13.5737C0.764395 13.5361 0.855812 13.5136 0.971312 13.5136ZM0.971146 12.8469C0.675596 12.8469 0.428646 12.929 0.255363 13.1023C-0.387686 13.7453 0.225596 15.4012 1.62516 16.8008C2.64759 17.8232 3.80668 18.4259 4.60786 18.4259C4.90341 18.4259 5.15036 18.3439 5.32364 18.1706C5.96669 17.5275 5.35341 15.8717 3.95383 14.4721C2.93141 13.4497 1.77234 12.8469 0.971146 12.8469Z" fill="#0F9447"/>
<path d="M0.971312 18.5412H0.971278C1.49204 18.5412 2.49999 18.9887 3.48244 19.9711C4.08401 20.5727 4.55677 21.2627 4.77957 21.8642C4.96504 22.3649 4.92464 22.6544 4.85226 22.7268C4.81462 22.7644 4.72327 22.7869 4.60789 22.7869C4.08706 22.7869 3.07903 22.3394 2.09659 21.357C1.49504 20.7554 1.02226 20.0654 0.799479 19.4639C0.614029 18.9632 0.654395 18.6737 0.726795 18.6013C0.764395 18.5637 0.855812 18.5412 0.971312 18.5412ZM0.971146 17.8745C0.675596 17.8746 0.428646 17.9566 0.255363 18.1299C-0.387686 18.773 0.225596 20.4288 1.62516 21.8284C2.64759 22.8508 3.80668 23.4536 4.60786 23.4536C4.90341 23.4536 5.15036 23.3715 5.32364 23.1982C5.96669 22.5551 5.35341 20.8993 3.95383 19.4997C2.93141 18.4773 1.77234 17.8745 0.971146 17.8745Z" fill="#0F9447"/>
<path d="M9.7802 10.6914C9.89558 10.6914 9.98695 10.7138 10.0246 10.7515C10.2257 10.9526 9.99466 12.1672 8.65475 13.5071C7.6723 14.4896 6.6643 14.937 6.14346 14.937C6.02808 14.937 5.93671 14.9146 5.8991 14.8769C5.8267 14.8045 5.78631 14.5151 5.97178 14.0143C6.19456 13.4128 6.66735 12.7228 7.2689 12.1213C8.25135 11.1388 9.25936 10.6914 9.7802 10.6914ZM9.7802 10.0247C8.979 10.0247 7.81991 10.6274 6.7975 11.6499C5.39793 13.0494 4.78465 14.7053 5.4277 15.3483C5.60098 15.5216 5.84793 15.6037 6.14348 15.6037C6.94468 15.6037 8.10376 15.001 9.12618 13.9785C10.5257 12.579 11.139 10.9231 10.496 10.2801C10.3227 10.1068 10.0757 10.0247 9.7802 10.0247Z" fill="#0F9447"/>
<path d="M9.7802 15.719C9.89558 15.719 9.98695 15.7415 10.0246 15.7791C10.2257 15.9802 9.99466 17.1949 8.65475 18.5348C7.6723 19.5172 6.6643 19.9647 6.14346 19.9647C6.02808 19.9647 5.93673 19.9422 5.8991 19.9046C5.8267 19.8322 5.78631 19.5427 5.97178 19.042C6.19456 18.4405 6.66735 17.7505 7.2689 17.1489C8.25135 16.1665 9.25938 15.719 9.7802 15.719ZM9.7802 15.0523C8.979 15.0523 7.81991 15.6551 6.7975 16.6775C5.39793 18.0771 4.78465 19.7329 5.4277 20.376C5.60098 20.5493 5.84795 20.6314 6.14348 20.6314C6.94468 20.6314 8.10376 20.0286 9.12618 19.0062C10.5257 17.6066 11.139 15.9508 10.496 15.3077C10.3227 15.1344 10.0757 15.0523 9.7802 15.0523Z" fill="#0F9447"/>
<path d="M5.33343 26.1667C5.33309 26.1667 5.33278 26.1667 5.33244 26.1667C5.14836 26.1662 4.99959 26.0164 5.00009 25.8323L5.04241 11.8324C5.04289 11.6486 5.19214 11.5 5.37574 11.5C5.37608 11.5 5.37639 11.5 5.37673 11.5C5.56081 11.5005 5.70958 11.6502 5.70908 11.8343L5.66676 25.8343C5.66628 26.0181 5.51703 26.1667 5.33343 26.1667Z" fill="#0F9447"/>
<path d="M26.6243 7.50001C26.9087 7.50001 27.6043 8.52226 27.6043 10.4172C27.6043 12.3121 26.9087 13.3343 26.6243 13.3343C26.3399 13.3343 25.6443 12.3121 25.6443 10.4172C25.6443 8.52226 26.3399 7.50001 26.6243 7.50001ZM26.6243 6.83334C25.7149 6.83334 24.9777 8.43788 24.9777 10.4172C24.9777 12.3964 25.7149 14.001 26.6243 14.001C27.5337 14.001 28.2709 12.3964 28.2709 10.4172C28.2709 8.43788 27.5337 6.83334 26.6243 6.83334Z" fill="#0F9447"/>
<path d="M22.22 13.5136H22.2199C22.7407 13.5136 23.7487 13.9611 24.7311 14.9435C26.071 16.2834 26.302 17.4981 26.1009 17.6992C26.0633 17.7368 25.9719 17.7593 25.8565 17.7593C25.3357 17.7593 24.3277 17.3118 23.3452 16.3294C22.0053 14.9895 21.7743 13.7748 21.9754 13.5737C22.013 13.5361 22.1045 13.5136 22.22 13.5136ZM22.2198 12.8469C21.9243 12.8469 21.6773 12.929 21.504 13.1023C20.861 13.7453 21.4743 15.4012 22.8738 16.8008C23.8963 17.8232 25.0553 18.4259 25.8565 18.4259C26.1521 18.4259 26.399 18.3439 26.5723 18.1706C27.2154 17.5275 26.6021 15.8717 25.2025 14.4721C24.1801 13.4497 23.021 12.8469 22.2198 12.8469Z" fill="#0F9447"/>
<path d="M22.22 18.5412H22.2199C22.7407 18.5412 23.7487 18.9887 24.7311 19.9711C25.3326 20.5727 25.8054 21.2627 26.0282 21.8642C26.2137 22.3649 26.1733 22.6544 26.1009 22.7268C26.0633 22.7644 25.9719 22.7869 25.8565 22.7869C25.3357 22.7869 24.3277 22.3394 23.3452 21.357C22.7437 20.7554 22.2709 20.0654 22.0481 19.4639C21.8627 18.9632 21.903 18.6737 21.9754 18.6013C22.013 18.5637 22.1045 18.5412 22.22 18.5412ZM22.2198 17.8745C21.9243 17.8746 21.6773 17.9566 21.504 18.1299C20.861 18.773 21.4743 20.4288 22.8738 21.8284C23.8963 22.8508 25.0553 23.4536 25.8565 23.4536C26.1521 23.4536 26.399 23.3715 26.5723 23.1982C27.2154 22.5551 26.6021 20.8993 25.2025 19.4997C24.1801 18.4773 23.021 17.8745 22.2198 17.8745Z" fill="#0F9447"/>
<path d="M31.0291 10.6914C31.1444 10.6914 31.2358 10.7138 31.2734 10.7515C31.4745 10.9526 31.2435 12.1672 29.9036 13.5071C28.9212 14.4896 27.9132 14.937 27.3923 14.937C27.2769 14.937 27.1856 14.9146 27.148 14.8769C27.0756 14.8045 27.0352 14.5151 27.2206 14.0143C27.4434 13.4128 27.9162 12.7228 28.5178 12.1212C29.5002 11.1388 30.5082 10.6914 31.0291 10.6914ZM31.0291 10.0247C30.2279 10.0247 29.0688 10.6274 28.0464 11.6499C26.6468 13.0494 26.0335 14.7053 26.6765 15.3483C26.8498 15.5216 27.0968 15.6037 27.3923 15.6037C28.1935 15.6037 29.3526 15.001 30.375 13.9785C31.7746 12.579 32.3879 10.9231 31.7448 10.2801C31.5716 10.1068 31.3246 10.0247 31.0291 10.0247Z" fill="#0F9447"/>
<path d="M31.0291 15.719C31.1444 15.719 31.2358 15.7415 31.2734 15.7791C31.4745 15.9802 31.2435 17.1949 29.9036 18.5348C28.9212 19.5172 27.9132 19.9647 27.3923 19.9647C27.2769 19.9647 27.1856 19.9422 27.148 19.9046C27.0756 19.8322 27.0352 19.5427 27.2206 19.042C27.4434 18.4405 27.9162 17.7505 28.5178 17.1489C29.5002 16.1665 30.5082 15.719 31.0291 15.719ZM31.0291 15.0523C30.2279 15.0523 29.0688 15.6551 28.0464 16.6775C26.6468 18.0771 26.0335 19.7329 26.6765 20.376C26.8498 20.5493 27.0968 20.6314 27.3923 20.6314C28.1935 20.6314 29.3526 20.0286 30.375 19.0062C31.7746 17.6066 32.3879 15.9508 31.7448 15.3077C31.5716 15.1344 31.3246 15.0523 31.0291 15.0523Z" fill="#0F9447"/>
<path d="M26.5819 26.1667C26.5816 26.1667 26.5813 26.1667 26.581 26.1667C26.3969 26.1662 26.2481 26.0164 26.2486 25.8323L26.2911 11.8324C26.2916 11.6486 26.4408 11.5 26.6244 11.5C26.6248 11.5 26.6251 11.5 26.6254 11.5C26.8095 11.5005 26.9583 11.6502 26.9578 11.8343L26.9153 25.8343C26.9148 26.0181 26.7655 26.1667 26.5819 26.1667Z" fill="#0F9447"/>
</svg>
