<svg width="40" height="40" viewBox="0 0 40 40" fill="none" xmlns="http://www.w3.org/2000/svg">
<path d="M1.73074 12.6383V31.598C1.73074 32.0583 2.10353 32.4314 2.56408 32.4314H15.9256C15.6772 32.7108 15.4659 33.0118 15.3186 33.3387C14.8928 33.2093 14.4323 33.1425 13.9513 33.1425C12.3995 33.1425 11.0808 33.8606 10.5041 34.9069C10.0574 34.7652 9.57463 34.6909 9.08413 34.6909C7.007 34.6909 5.31712 36.0271 5.31499 37.6704H1.39023C0.929639 37.6704 0.556882 38.0435 0.556882 38.5038C0.556882 38.964 0.929671 39.3371 1.39023 39.3371H38.6692C39.1298 39.3371 39.5026 38.964 39.5026 38.5038C39.5026 38.0435 39.1298 37.6704 38.6692 37.6704H34.7624C34.7602 35.9996 33.1051 34.6909 30.9923 34.6909C30.4959 34.6909 30.0125 34.7667 29.5753 34.9057C28.9958 33.8603 27.6791 33.1425 26.1312 33.1425C25.6534 33.1425 25.1864 33.2118 24.7544 33.3434C24.6099 33.0193 24.4099 32.7124 24.1625 32.4312L37.4349 32.4315C37.8955 32.4315 38.2682 32.0584 38.2682 31.5981V12.6384C39.2723 12.2903 40 11.3451 40 10.224C40 8.80917 38.8493 7.65853 37.4349 7.65853C36.0196 7.65853 34.8688 8.80925 34.8688 10.224C34.8688 11.3454 35.5965 12.2906 36.6015 12.6384V30.7645H20.8724V27.5329C21.6947 27.7131 22.8981 27.9125 24.2472 27.9125C25.9938 27.9125 27.9615 27.5773 29.5817 26.4306C33.3977 23.7308 33.61 17.7185 33.6174 17.4638C33.6273 17.0931 33.3919 16.7601 33.0388 16.6467C32.797 16.5691 27.0539 14.7695 23.2415 17.4687C22.2076 18.2004 21.4451 19.1774 20.8726 20.215V5.16097C21.8766 4.81314 22.6044 3.86789 22.6044 2.7465C22.6044 1.33204 21.4537 0.181396 20.0393 0.181396C18.6239 0.181396 17.4732 1.33212 17.4732 2.7465C17.4732 3.86797 18.2009 4.81347 19.2059 5.16129V20.2145C18.6335 19.1769 17.871 18.1999 16.8371 17.4683C13.0235 14.7688 7.28109 16.5687 7.03975 16.6463C6.68667 16.7596 6.4513 17.0927 6.46116 17.4633C6.46855 17.7175 6.68083 23.7301 10.4962 26.4301C12.1174 27.5768 14.0842 27.912 15.8308 27.912C17.1805 27.912 18.3839 27.7123 19.2065 27.5321V30.764H3.39846V12.638C4.40311 12.2901 5.13116 11.3449 5.13116 10.2235C5.13116 8.8087 3.98044 7.65806 2.56511 7.65806C1.15064 7.65806 0 8.80878 0 10.2235C0 11.3446 0.727708 12.2898 1.73176 12.638L1.73074 12.6383ZM37.4347 9.32515C37.9304 9.32515 38.3331 9.72844 38.3331 10.2241C38.3331 10.673 37.9963 11.0301 37.5653 11.096C37.521 11.0886 37.4809 11.0695 37.4344 11.0695C37.3879 11.0695 37.3478 11.0886 37.3034 11.096C36.8721 11.0301 36.5351 10.673 36.5351 10.2241C36.5354 9.7284 36.939 9.32515 37.4347 9.32515ZM22.3798 33.0762C22.9871 33.4761 23.3362 34.0002 23.362 34.552C23.3768 34.8515 23.5509 35.1201 23.8177 35.2557C24.0854 35.3915 24.4052 35.3727 24.6551 35.207C25.0358 34.9544 25.5737 34.8096 26.1314 34.8096C27.3407 34.8096 28.2042 35.4803 28.2231 36.0823C28.2329 36.3768 28.4012 36.6427 28.66 36.7841C28.9178 36.9258 29.237 36.9175 29.4899 36.7675C29.5275 36.7456 29.5638 36.7219 29.6501 36.68C30.0309 36.472 30.5078 36.3577 30.9922 36.3577C32.1112 36.3577 33.0927 36.9708 33.0958 37.6705H6.98096C6.98435 37.0488 7.84696 36.3577 9.08397 36.3577C9.63483 36.3577 10.1777 36.5047 10.5742 36.7607C10.8281 36.924 11.1497 36.9382 11.4156 36.7977C11.6824 36.6569 11.8519 36.3833 11.8599 36.082C11.8753 35.4803 12.738 34.8096 13.9515 34.8096C14.5123 34.8096 15.0323 34.9494 15.4165 35.2033C15.6648 35.3684 15.9846 35.3869 16.2523 35.252C16.5191 35.1173 16.6935 34.8496 16.7089 34.5505C16.7669 33.4072 18.1887 32.4788 19.9045 32.4314H20.1762C21.0108 32.4542 21.7878 32.6751 22.3799 33.0763L22.3798 33.0762ZM24.2037 18.8298C26.6817 17.075 30.4247 17.7158 31.8991 18.0664C31.7395 19.5748 31.099 23.316 28.6195 25.0702C26.612 26.4908 23.7792 26.3417 21.9895 26.0472L26.9081 22.3889C27.2775 22.1141 27.3542 21.5922 27.0797 21.2231C26.8055 20.854 26.2821 20.7758 25.9136 21.0518L21.1007 24.6315C21.4325 22.8461 22.2413 20.2182 24.2038 18.8299L24.2037 18.8298ZM20.0387 1.849C20.5344 1.849 20.9371 2.25229 20.9371 2.74742C20.9371 3.24314 20.5341 3.64639 20.0387 3.64639C19.5429 3.64639 19.1394 3.2431 19.1394 2.74742C19.1394 2.25232 19.543 1.849 20.0387 1.849ZM11.4583 25.0709H11.4577C8.97793 23.3166 8.33743 19.5755 8.17811 18.0671C9.65259 17.7171 13.3956 17.0763 15.8735 18.8305C17.8361 20.2188 18.6448 22.8468 18.9769 24.6324L14.163 21.0527C13.7927 20.7779 13.2711 20.8552 12.9969 21.224C12.7227 21.5934 12.7992 22.115 13.1686 22.3898L18.0881 26.0481C16.2987 26.3426 13.4649 26.492 11.4583 25.0708V25.0709ZM2.56408 9.32594C3.0598 9.32594 3.46337 9.72923 3.46337 10.2249C3.46337 10.7175 3.06347 11.1177 2.57118 11.1221C2.56872 11.1221 2.56656 11.1205 2.5641 11.1205C2.56163 11.1205 2.55947 11.1221 2.55701 11.1221C2.06499 11.1177 1.66569 10.7175 1.66569 10.2246C1.66569 9.72919 2.06867 9.32586 2.56411 9.32586L2.56408 9.32594Z" fill="#0F9447"/>
</svg>
