<svg width="20" height="20" viewBox="0 0 20 20" fill="none" xmlns="http://www.w3.org/2000/svg">
<path d="M4.16675 12.5001H3.33341C2.89139 12.5001 2.46746 12.3245 2.1549 12.0119C1.84234 11.6994 1.66675 11.2754 1.66675 10.8334V3.33341C1.66675 2.89139 1.84234 2.46746 2.1549 2.1549C2.46746 1.84234 2.89139 1.66675 3.33341 1.66675H10.8334C11.2754 1.66675 11.6994 1.84234 12.0119 2.1549C12.3245 2.46746 12.5001 2.89139 12.5001 3.33341V4.16675M9.16675 7.50008H16.6667C17.5872 7.50008 18.3334 8.24627 18.3334 9.16675V16.6667C18.3334 17.5872 17.5872 18.3334 16.6667 18.3334H9.16675C8.24627 18.3334 7.50008 17.5872 7.50008 16.6667V9.16675C7.50008 8.24627 8.24627 7.50008 9.16675 7.50008Z" stroke="#344054" stroke-width="1.67" stroke-linecap="round" stroke-linejoin="round"/>
</svg>
