<svg width="177" height="44" viewBox="0 0 177 44" fill="none" xmlns="http://www.w3.org/2000/svg">
<g clip-path="url(#clip0_2_20575)">
<path d="M152.95 23.7616H150.958V25.712H152.95V23.7616Z" fill="#0F9447"/>
<path d="M67.9747 29.8737H68.3337C68.3337 29.8737 68.3337 29.9304 68.3337 29.9417C68.3337 30.0664 68.3337 30.1572 68.3568 30.1912C68.38 30.2252 68.4031 30.2592 68.461 30.2819C68.5421 30.3159 68.82 30.3386 69.2948 30.3386C69.6422 30.3386 69.8854 30.3273 70.0359 30.2932C70.1749 30.2592 70.2444 30.1572 70.2444 29.9644C70.2444 29.8623 70.2444 29.7943 70.2096 29.7489C70.1865 29.7036 70.1517 29.6696 70.1054 29.6582C70.0475 29.6355 69.9665 29.6242 69.8622 29.6242C69.758 29.6242 69.4222 29.6242 68.8432 29.6242C68.6463 29.6242 68.4842 29.6015 68.3684 29.5675C68.2526 29.5335 68.16 29.4768 68.0905 29.3861C68.0094 29.2953 67.9747 29.1479 67.9747 28.9665C67.9747 28.751 68.0326 28.6036 68.16 28.5016C68.2179 28.4562 68.2873 28.4222 68.3568 28.3882C68.4263 28.3542 68.5305 28.3428 68.6579 28.3315C68.8663 28.3088 69.1095 28.2975 69.399 28.2975C69.6654 28.2975 69.8738 28.3088 70.0244 28.3428C70.1749 28.3655 70.2907 28.4222 70.3718 28.4789C70.4412 28.5356 70.4876 28.5923 70.5107 28.6717C70.5339 28.7397 70.5455 28.8644 70.5571 29.0232H70.1981V28.9778C70.1981 28.8644 70.1865 28.7851 70.1633 28.751C70.1286 28.6943 70.0591 28.6603 69.9317 28.6376C69.8159 28.615 69.6306 28.6036 69.399 28.6036C69.0979 28.6036 68.8779 28.6036 68.7274 28.6376C68.5768 28.6603 68.4842 28.6943 68.4263 28.7397C68.38 28.7851 68.3568 28.8644 68.3568 28.9778C68.3568 29.0799 68.3684 29.1479 68.3916 29.1933C68.4147 29.2386 68.461 29.2613 68.5305 29.284C68.6347 29.318 68.8316 29.3294 69.1327 29.3407C69.2369 29.3407 69.4917 29.3407 69.897 29.3407C70.0707 29.3407 70.1981 29.3634 70.2907 29.3861C70.3833 29.4201 70.4644 29.4768 70.5223 29.5448C70.5918 29.6355 70.6265 29.7829 70.6265 29.953C70.6265 30.1231 70.5918 30.2592 70.5339 30.3499C70.4644 30.4633 70.3254 30.5427 70.1286 30.5881C69.9317 30.6221 69.5959 30.6448 69.0979 30.6448C68.8432 30.6448 68.6463 30.6448 68.5189 30.6221C68.3916 30.6107 68.2873 30.5767 68.2179 30.5314C68.1252 30.4747 68.0673 30.418 68.0326 30.3386C67.9978 30.2592 67.9863 30.1458 67.9863 29.9984V29.885L67.9747 29.8737Z" fill="#010101"/>
<path d="M71.5877 28.3088H72.2594L73.51 30.2252L74.7375 28.3088H75.4092V30.6334H75.0502V28.6263H74.9575L73.649 30.6334H73.3595L72.0393 28.6263H71.9467V30.6334H71.5877V28.3088Z" fill="#010101"/>
<path d="M79.08 30.6221L78.8021 30.1345H76.9493L76.6714 30.6221H76.2661L77.6094 28.2975H78.142L79.4853 30.6221H79.08ZM78.64 29.8396L77.9336 28.6036H77.841L77.123 29.8396H78.64Z" fill="#010101"/>
<path d="M80.3192 30.6221V28.2975H81.8014C82.1951 28.2975 82.4499 28.3088 82.5657 28.3315C82.7626 28.3542 82.9131 28.4449 82.9826 28.6036C83.0289 28.7057 83.0637 28.8418 83.0637 29.0119C83.0637 29.1479 83.0637 29.25 83.0405 29.318C83.0173 29.3861 82.9942 29.4428 82.9594 29.4881C82.89 29.5562 82.8205 29.6015 82.751 29.6129C82.7973 29.6129 82.8552 29.6582 82.9247 29.7149C82.971 29.7603 83.0058 29.817 83.0173 29.885C83.0289 29.953 83.0405 30.0778 83.0405 30.2706V30.6107H82.6815V30.3726C82.6815 30.1912 82.6815 30.0551 82.6699 29.9871C82.6468 29.851 82.5657 29.7716 82.4383 29.7489C82.3804 29.7489 82.3341 29.7376 82.2878 29.7376C82.2415 29.7376 82.0909 29.7376 81.8246 29.7376H80.7013V30.6221H80.3423H80.3192ZM80.6781 29.4428H81.8014C82.1025 29.4428 82.2994 29.4428 82.3804 29.4314C82.4615 29.4314 82.531 29.4087 82.5773 29.3747C82.6468 29.3294 82.6931 29.2046 82.6931 29.0119C82.6931 28.8418 82.6583 28.7397 82.5889 28.683C82.5425 28.649 82.4731 28.6263 82.3804 28.6263C82.2878 28.6263 82.0909 28.615 81.813 28.615H80.6897V29.4541L80.6781 29.4428Z" fill="#010101"/>
<path d="M83.8164 28.3088H86.5261V28.615H85.3565V30.6334H84.9976V28.615H83.8279V28.3088H83.8164Z" fill="#010101"/>
<path d="M91.5867 30.6221L91.3087 30.1345H89.4559L89.178 30.6221H88.7727L90.116 28.2975H90.6487L91.992 30.6221H91.5867ZM91.1466 29.8396L90.4402 28.6036H90.3476L89.6296 29.8396H91.1466Z" fill="#010101"/>
<path d="M94.0532 29.4314H95.6397C95.6397 29.7943 95.6281 30.0324 95.605 30.1458C95.5818 30.2592 95.5471 30.3499 95.4892 30.418C95.4313 30.4747 95.3502 30.5314 95.246 30.5654C95.0954 30.6107 94.7712 30.6334 94.2617 30.6334C93.7869 30.6334 93.4511 30.6221 93.2542 30.5881C93.0689 30.5654 92.9415 30.486 92.8605 30.3613C92.7794 30.2252 92.7331 29.9304 92.7331 29.4654C92.7331 29.1479 92.7563 28.8985 92.8026 28.717C92.8489 28.5469 92.9647 28.4222 93.1268 28.3768C93.3005 28.3201 93.6363 28.2975 94.1227 28.2975C94.2848 28.2975 94.4701 28.2975 94.667 28.3088C94.8638 28.3088 95.0028 28.3315 95.0839 28.3315C95.246 28.3542 95.3618 28.4109 95.466 28.5129C95.5239 28.5696 95.5702 28.6376 95.5934 28.717C95.6166 28.7964 95.6281 28.9098 95.6281 29.0572H95.2576C95.2576 28.8758 95.2344 28.7624 95.1881 28.717C95.1649 28.6943 95.1186 28.6717 95.0723 28.6603C95.0144 28.649 94.9333 28.6376 94.8175 28.6263C94.6554 28.6263 94.447 28.615 94.1922 28.615C93.868 28.615 93.6363 28.615 93.4974 28.6376C93.3584 28.649 93.2658 28.683 93.2195 28.717C93.1847 28.751 93.15 28.8191 93.1384 28.9211C93.1268 29.0232 93.1152 29.1933 93.1152 29.4201C93.1152 29.7603 93.1268 29.9871 93.1616 30.0891C93.1731 30.1458 93.2079 30.1912 93.2426 30.2252C93.2774 30.2592 93.3353 30.2706 93.4047 30.2819C93.5553 30.3046 93.8911 30.3159 94.4006 30.3159C94.6786 30.3159 94.8986 30.3159 95.026 30.2819C95.1418 30.2592 95.2112 30.2252 95.246 30.1572C95.2807 30.0891 95.2923 29.953 95.3039 29.7263H94.088V29.4201L94.0532 29.4314Z" fill="#010101"/>
<path d="M96.6241 30.6221V28.2975H98.1063C98.5 28.2975 98.7548 28.3088 98.8706 28.3315C99.0675 28.3542 99.218 28.4449 99.2875 28.6036C99.3338 28.7057 99.3686 28.8418 99.3686 29.0119C99.3686 29.1479 99.3686 29.25 99.3454 29.318C99.3338 29.3861 99.2991 29.4428 99.2643 29.4881C99.1949 29.5562 99.1254 29.6015 99.0559 29.6129C99.1022 29.6129 99.1601 29.6582 99.2296 29.7149C99.2759 29.7603 99.3107 29.817 99.3222 29.885C99.3338 29.953 99.3454 30.0778 99.3454 30.2706V30.6107H98.9864V30.3726C98.9864 30.1912 98.9864 30.0551 98.9748 29.9871C98.9517 29.851 98.8706 29.7716 98.7432 29.7489C98.6853 29.7489 98.639 29.7376 98.5927 29.7376C98.5464 29.7376 98.3958 29.7376 98.1295 29.7376H97.0062V30.6221H96.6472H96.6241ZM96.983 29.4428H98.1063C98.4074 29.4428 98.6043 29.4428 98.6853 29.4314C98.7664 29.4314 98.8359 29.4087 98.8822 29.3747C98.9517 29.3294 98.998 29.2046 98.998 29.0119C98.998 28.8418 98.9632 28.7397 98.8938 28.683C98.8474 28.649 98.778 28.6263 98.6853 28.6263C98.5927 28.6263 98.3958 28.615 98.1179 28.615H96.9946V29.4541L96.983 29.4428Z" fill="#010101"/>
<path d="M100.364 28.3088H100.723V30.6334H100.364V28.3088Z" fill="#010101"/>
<path d="M104.163 29.8056H104.522C104.522 30.0211 104.499 30.1798 104.487 30.2479C104.452 30.4293 104.325 30.5314 104.116 30.5767C103.954 30.6108 103.676 30.6221 103.271 30.6221C102.75 30.6221 102.391 30.5994 102.206 30.5654C102.02 30.5314 101.905 30.4407 101.835 30.2819C101.777 30.1345 101.742 29.8623 101.742 29.4768C101.742 29.0912 101.766 28.8418 101.812 28.683C101.87 28.4789 102.02 28.3655 102.252 28.3201C102.472 28.2861 102.796 28.2748 103.225 28.2748C103.653 28.2748 103.92 28.2975 104.105 28.3315C104.197 28.3542 104.279 28.3882 104.348 28.4449C104.418 28.5016 104.452 28.5696 104.475 28.649C104.487 28.717 104.499 28.8531 104.51 29.0686H104.174C104.174 29.0686 104.174 28.9892 104.174 28.9778C104.174 28.8644 104.174 28.7964 104.14 28.751C104.116 28.7057 104.082 28.6717 104.024 28.649C103.908 28.6036 103.642 28.581 103.225 28.581C102.924 28.581 102.692 28.581 102.542 28.6036C102.391 28.615 102.298 28.6376 102.252 28.6717C102.206 28.7057 102.183 28.7737 102.159 28.8871C102.136 29.0005 102.125 29.1479 102.125 29.352C102.125 29.4428 102.125 29.5675 102.136 29.7149C102.136 29.8623 102.148 29.9644 102.159 30.0211C102.171 30.1118 102.194 30.1685 102.24 30.2025C102.287 30.2365 102.345 30.2592 102.437 30.2706C102.611 30.2932 102.866 30.2932 103.19 30.2932C103.294 30.2932 103.422 30.2932 103.584 30.2932C103.746 30.2932 103.85 30.2819 103.896 30.2706C103.977 30.2706 104.035 30.2479 104.082 30.2252C104.116 30.2025 104.151 30.1685 104.163 30.1345C104.174 30.1005 104.186 29.9757 104.197 29.783L104.163 29.8056Z" fill="#010101"/>
<path d="M105.448 28.3088H105.807V29.4541C105.807 29.783 105.807 29.9871 105.807 30.0551C105.807 30.1345 105.842 30.2025 105.877 30.2365C105.911 30.2706 105.981 30.2932 106.073 30.3046C106.236 30.3273 106.467 30.3386 106.768 30.3386C107.185 30.3386 107.475 30.3273 107.625 30.3046C107.718 30.2932 107.776 30.2706 107.81 30.2252C107.845 30.1912 107.868 30.1232 107.868 30.0324C107.868 29.9417 107.868 29.7603 107.88 29.4655V28.3201H108.239V29.4655C108.239 29.7716 108.239 29.9757 108.227 30.1005C108.204 30.3046 108.135 30.452 107.996 30.5314C107.915 30.5767 107.81 30.6108 107.695 30.6221C107.579 30.6334 107.289 30.6448 106.849 30.6561C106.456 30.6561 106.212 30.6561 106.143 30.6448C106.062 30.6448 105.981 30.6334 105.888 30.6108C105.726 30.5767 105.61 30.486 105.529 30.3386C105.494 30.2706 105.471 30.1912 105.46 30.0891C105.46 29.9984 105.448 29.783 105.437 29.4655V28.3201L105.448 28.3088Z" fill="#010101"/>
<path d="M109.293 28.3088H109.652V30.3273H111.493V30.6334H109.281V28.3088H109.293Z" fill="#010101"/>
<path d="M111.945 28.3088H114.654V28.615H113.485V30.6334H113.126V28.615H111.956V28.3088H111.945Z" fill="#010101"/>
<path d="M115.511 28.3088H115.87V29.4541C115.87 29.783 115.87 29.9871 115.87 30.0551C115.87 30.1345 115.905 30.2025 115.94 30.2365C115.975 30.2706 116.044 30.2932 116.137 30.3046C116.299 30.3273 116.53 30.3386 116.831 30.3386C117.248 30.3386 117.538 30.3273 117.688 30.3046C117.769 30.2932 117.839 30.2706 117.874 30.2252C117.908 30.1912 117.932 30.1232 117.932 30.0324C117.932 29.9417 117.932 29.7603 117.943 29.4655V28.3201H118.302V29.4655C118.302 29.7716 118.302 29.9757 118.291 30.1005C118.267 30.3046 118.198 30.452 118.059 30.5314C117.978 30.5767 117.874 30.6108 117.758 30.6221C117.642 30.6334 117.353 30.6448 116.913 30.6561C116.519 30.6561 116.276 30.6561 116.206 30.6448C116.125 30.6448 116.044 30.6334 115.951 30.6108C115.789 30.5767 115.673 30.486 115.592 30.3386C115.558 30.2706 115.534 30.1912 115.523 30.0891C115.523 29.9984 115.511 29.783 115.5 29.4655V28.3201L115.511 28.3088Z" fill="#010101"/>
<path d="M119.356 30.6221V28.2975H120.838C121.232 28.2975 121.487 28.3088 121.602 28.3315C121.799 28.3542 121.95 28.4449 122.019 28.6036C122.066 28.7057 122.1 28.8418 122.1 29.0119C122.1 29.1479 122.1 29.25 122.077 29.318C122.066 29.3861 122.031 29.4428 121.996 29.4881C121.927 29.5562 121.857 29.6015 121.788 29.6129C121.834 29.6129 121.892 29.6582 121.961 29.7149C122.008 29.7603 122.043 29.817 122.054 29.885C122.066 29.953 122.077 30.0778 122.077 30.2706V30.6107H121.718V30.3726C121.718 30.1912 121.718 30.0551 121.707 29.9871C121.684 29.851 121.602 29.7716 121.475 29.7489C121.417 29.7489 121.371 29.7376 121.325 29.7376C121.278 29.7376 121.128 29.7376 120.861 29.7376H119.738V30.6221H119.379H119.356ZM119.715 29.4428H120.838C121.139 29.4428 121.336 29.4428 121.417 29.4314C121.498 29.4314 121.568 29.4087 121.614 29.3747C121.684 29.3294 121.73 29.2046 121.73 29.0119C121.73 28.8418 121.695 28.7397 121.626 28.683C121.579 28.649 121.51 28.6263 121.417 28.6263C121.313 28.6263 121.128 28.615 120.85 28.615H119.726V29.4541L119.715 29.4428Z" fill="#010101"/>
<path d="M123.085 30.6221V28.2975H125.424V28.6036H123.444V29.2727H125.343V29.5788H123.444V30.3273H125.424V30.6334H123.073L123.085 30.6221Z" fill="#010101"/>
<path d="M127.867 29.8737H128.226C128.226 29.8737 128.226 29.9304 128.226 29.9417C128.226 30.0664 128.226 30.1572 128.25 30.1912C128.261 30.2365 128.296 30.2592 128.354 30.2819C128.435 30.3159 128.713 30.3386 129.188 30.3386C129.535 30.3386 129.778 30.3273 129.929 30.2932C130.068 30.2592 130.137 30.1572 130.137 29.9644C130.137 29.8623 130.137 29.7943 130.102 29.7489C130.079 29.7036 130.044 29.6696 129.998 29.6582C129.94 29.6355 129.859 29.6242 129.755 29.6242C129.651 29.6242 129.315 29.6242 128.736 29.6242C128.539 29.6242 128.377 29.6015 128.261 29.5675C128.145 29.5335 128.053 29.4768 127.983 29.3861C127.902 29.2953 127.867 29.1479 127.867 28.9665C127.867 28.751 127.925 28.6036 128.053 28.5016C128.111 28.4562 128.18 28.4222 128.25 28.3882C128.319 28.3542 128.423 28.3428 128.551 28.3315C128.759 28.3088 129.002 28.2975 129.292 28.2975C129.558 28.2975 129.767 28.3088 129.917 28.3428C130.068 28.3655 130.183 28.4222 130.264 28.4789C130.334 28.5356 130.38 28.5923 130.403 28.6717C130.427 28.7397 130.438 28.8644 130.45 29.0232H130.091V28.9778C130.091 28.8644 130.079 28.7851 130.056 28.751C130.021 28.6943 129.952 28.6603 129.824 28.6376C129.709 28.615 129.523 28.6036 129.292 28.6036C128.991 28.6036 128.771 28.6036 128.62 28.6376C128.47 28.6603 128.377 28.6943 128.319 28.7397C128.273 28.7851 128.25 28.8644 128.25 28.9778C128.25 29.0799 128.261 29.1479 128.284 29.1933C128.307 29.2386 128.354 29.2613 128.423 29.284C128.527 29.318 128.724 29.3294 129.025 29.3407C129.13 29.3407 129.384 29.3407 129.79 29.3407C129.963 29.3407 130.091 29.3634 130.183 29.3861C130.276 29.4201 130.357 29.4768 130.415 29.5448C130.484 29.6355 130.519 29.7829 130.519 29.953C130.519 30.1231 130.484 30.2592 130.427 30.3499C130.357 30.4633 130.218 30.5427 130.021 30.5881C129.824 30.6221 129.489 30.6448 128.991 30.6448C128.736 30.6448 128.539 30.6448 128.412 30.6221C128.284 30.6107 128.18 30.5767 128.111 30.5314C128.018 30.4747 127.96 30.418 127.925 30.3386C127.891 30.2592 127.879 30.1458 127.879 29.9984V29.885L127.867 29.8737Z" fill="#010101"/>
<path d="M131.272 28.3088H131.758L132.87 29.3974L133.947 28.3088H134.445L133.055 29.6809V30.6334H132.696V29.6809L131.284 28.3088H131.272Z" fill="#010101"/>
<path d="M135.198 29.8737H135.557C135.557 29.8737 135.557 29.9304 135.557 29.9417C135.557 30.0664 135.557 30.1572 135.58 30.1912C135.591 30.2365 135.626 30.2592 135.684 30.2819C135.765 30.3159 136.043 30.3386 136.518 30.3386C136.865 30.3386 137.108 30.3273 137.259 30.2932C137.398 30.2592 137.467 30.1572 137.467 29.9644C137.467 29.8623 137.467 29.7943 137.433 29.7489C137.409 29.7036 137.375 29.6696 137.328 29.6582C137.27 29.6355 137.189 29.6242 137.085 29.6242C136.981 29.6242 136.645 29.6242 136.066 29.6242C135.869 29.6242 135.707 29.6015 135.591 29.5675C135.476 29.5335 135.383 29.4768 135.313 29.3861C135.232 29.2953 135.198 29.1479 135.198 28.9665C135.198 28.751 135.256 28.6036 135.383 28.5016C135.441 28.4562 135.51 28.4222 135.58 28.3882C135.649 28.3542 135.753 28.3428 135.881 28.3315C136.089 28.3088 136.332 28.2975 136.622 28.2975C136.888 28.2975 137.097 28.3088 137.247 28.3428C137.398 28.3655 137.514 28.4222 137.595 28.4789C137.664 28.5356 137.711 28.5923 137.734 28.6717C137.757 28.7397 137.768 28.8644 137.78 29.0232H137.421V28.9778C137.421 28.8644 137.409 28.7851 137.386 28.751C137.352 28.6943 137.282 28.6603 137.155 28.6376C137.039 28.615 136.854 28.6036 136.622 28.6036C136.321 28.6036 136.101 28.6036 135.95 28.6376C135.8 28.6603 135.707 28.6943 135.649 28.7397C135.603 28.7851 135.58 28.8644 135.58 28.9778C135.58 29.0799 135.591 29.1479 135.615 29.1933C135.638 29.2386 135.684 29.2613 135.753 29.284C135.858 29.318 136.055 29.3294 136.356 29.3407C136.46 29.3407 136.715 29.3407 137.12 29.3407C137.294 29.3407 137.421 29.3634 137.514 29.3861C137.606 29.4201 137.687 29.4768 137.745 29.5448C137.815 29.6355 137.849 29.7829 137.849 29.953C137.849 30.1231 137.815 30.2592 137.757 30.3499C137.687 30.4633 137.548 30.5427 137.352 30.5881C137.155 30.6221 136.819 30.6448 136.321 30.6448C136.055 30.6448 135.869 30.6448 135.742 30.6221C135.615 30.6107 135.51 30.5767 135.441 30.5314C135.348 30.4747 135.29 30.418 135.256 30.3386C135.221 30.2592 135.209 30.1458 135.209 29.9984V29.885L135.198 29.8737Z" fill="#010101"/>
<path d="M138.649 28.3088H141.358V28.615H140.189V30.6334H139.83V28.615H138.66V28.3088H138.649Z" fill="#010101"/>
<path d="M142.238 30.6221V28.2975H144.578V28.6036H142.597V29.2727H144.497V29.5788H142.597V30.3273H144.578V30.6334H142.227L142.238 30.6221Z" fill="#010101"/>
<path d="M145.504 28.3088H146.176L147.426 30.2252L148.654 28.3088H149.325V30.6334H148.966V28.6263H148.874L147.565 30.6334H147.276L145.956 28.6263H145.863V30.6334H145.504V28.3088Z" fill="#010101"/>
<path d="M150.31 29.8737H150.669C150.669 29.8737 150.669 29.9304 150.669 29.9417C150.669 30.0664 150.669 30.1572 150.692 30.1912C150.703 30.2365 150.738 30.2592 150.796 30.2819C150.877 30.3159 151.155 30.3386 151.63 30.3386C151.977 30.3386 152.22 30.3273 152.371 30.2932C152.51 30.2592 152.579 30.1572 152.579 29.9644C152.579 29.8623 152.579 29.7943 152.545 29.7489C152.522 29.7036 152.487 29.6696 152.441 29.6582C152.383 29.6355 152.302 29.6242 152.197 29.6242C152.093 29.6242 151.757 29.6242 151.178 29.6242C150.981 29.6242 150.819 29.6015 150.703 29.5675C150.588 29.5335 150.495 29.4768 150.426 29.3861C150.344 29.2953 150.31 29.1479 150.31 28.9665C150.31 28.751 150.368 28.6036 150.495 28.5016C150.553 28.4562 150.622 28.4222 150.692 28.3882C150.761 28.3542 150.866 28.3428 150.993 28.3315C151.201 28.3088 151.445 28.2975 151.734 28.2975C152 28.2975 152.209 28.3088 152.359 28.3428C152.51 28.3655 152.626 28.4222 152.707 28.4789C152.776 28.5356 152.823 28.5923 152.846 28.6717C152.869 28.7397 152.881 28.8644 152.892 29.0232H152.533V28.9778C152.533 28.8644 152.522 28.7851 152.498 28.751C152.464 28.6943 152.394 28.6603 152.267 28.6376C152.151 28.615 151.966 28.6036 151.734 28.6036C151.433 28.6036 151.213 28.6036 151.062 28.6376C150.912 28.6603 150.819 28.6943 150.761 28.7397C150.715 28.7851 150.692 28.8644 150.692 28.9778C150.692 29.0799 150.692 29.1479 150.727 29.1933C150.75 29.2386 150.796 29.2613 150.866 29.284C150.97 29.318 151.167 29.3294 151.468 29.3407C151.572 29.3407 151.827 29.3407 152.232 29.3407C152.406 29.3407 152.533 29.3634 152.626 29.3861C152.718 29.4201 152.799 29.4768 152.857 29.5448C152.927 29.6355 152.962 29.7829 152.962 29.953C152.962 30.1231 152.927 30.2592 152.869 30.3499C152.799 30.4633 152.661 30.5427 152.464 30.5881C152.267 30.6221 151.931 30.6448 151.433 30.6448C151.167 30.6448 150.981 30.6448 150.854 30.6221C150.727 30.6107 150.622 30.5767 150.553 30.5314C150.46 30.4747 150.402 30.418 150.368 30.3386C150.333 30.2592 150.321 30.1458 150.321 29.9984V29.885L150.31 29.8737Z" fill="#010101"/>
<path d="M65.7976 21.471C65.4965 21.3689 65.1028 21.3122 64.5816 21.3122C63.4815 21.3122 62.7867 21.3122 62.5088 21.3122C61.5476 21.3122 61.1539 21.2442 60.9802 21.1875C60.8644 21.1535 60.8412 21.1195 60.8412 21.1195C60.8412 21.1195 60.7949 21.0287 60.7949 20.7339C60.7949 20.4504 60.8644 20.371 60.8644 20.371C60.876 20.371 60.9918 20.2576 61.455 20.1896C61.8371 20.1329 62.4277 20.0989 63.2268 20.0989C63.8521 20.0989 64.3153 20.1329 64.6048 20.1896C64.8943 20.2463 64.9638 20.3257 64.9638 20.3257C64.9638 20.3257 65.0101 20.4164 65.0101 20.7226V20.87H66.805C66.805 20.371 66.7587 20.0195 66.6661 19.7814C66.5734 19.5092 66.3997 19.2711 66.1566 19.0783C65.8786 18.8515 65.4965 18.6928 65.0333 18.6134C64.6048 18.534 64.0258 18.5 63.2731 18.5C62.5204 18.5 61.7908 18.534 61.2118 18.6021C60.8297 18.6474 60.5402 18.7041 60.3086 18.7835C60.0654 18.8629 59.8454 18.9876 59.6485 19.1464C59.22 19.4866 59 20.0195 59 20.7112C59 21.3236 59.1274 21.7885 59.3937 22.1174C59.6253 22.4008 59.9496 22.6163 60.3549 22.741C60.4475 22.7637 60.5402 22.7864 60.6444 22.8091C60.7602 22.8318 60.9339 22.8544 61.0729 22.8771C61.2813 22.8998 61.5129 22.9111 61.7792 22.9111C63.3426 22.9111 64.269 22.9111 64.5469 22.9225C64.848 22.9225 64.9985 22.9678 65.0796 22.9905C65.1259 23.0018 65.1375 23.0245 65.1491 23.0472C65.1607 23.0699 65.207 23.1833 65.207 23.4668C65.207 23.9204 65.0449 23.9544 64.9522 23.9657C64.5701 24.0451 63.9216 24.0905 63.0183 24.0905C61.3045 24.0905 60.957 24.0111 60.8991 23.9771C60.8644 23.9657 60.8528 23.943 60.8528 23.943C60.8528 23.9317 60.8181 23.8183 60.8065 23.3761V23.342C60.8065 23.342 60.8065 23.4214 60.8065 23.342V23.2967H59.0347V23.3307C59.0347 23.5348 59.0347 23.5008 59.0347 23.5235C59.0347 23.9884 59.0926 24.3513 59.2084 24.6121C59.3358 24.8956 59.5674 25.145 59.8917 25.3265C60.1464 25.4626 60.4591 25.5533 60.8528 25.61C61.2118 25.6553 61.7445 25.678 62.4856 25.678C63.8637 25.678 64.8133 25.6213 65.3691 25.5079C66.006 25.3832 66.4692 25.0997 66.724 24.6801C66.9208 24.3513 67.0251 23.9204 67.0251 23.3874C67.0251 22.8204 66.8977 22.3555 66.6429 22.0266C66.4345 21.7545 66.1566 21.5504 65.8207 21.437L65.7976 21.471Z" fill="#1F449C"/>
<path d="M73.5331 23.4327L70.3486 18.5227H67.9052V25.6893H69.7001V20.7339L72.931 25.6893H74.1585L77.3314 20.7679V25.6893H79.1263V18.5227H76.6714L73.5331 23.4327Z" fill="#1F449C"/>
<path d="M85.9471 18.5227H84.0248L79.9022 25.6893H81.9288L82.693 24.3626L83.6079 22.741L83.7353 22.5256L84.9975 20.337L86.3755 22.741H84.4648L83.5963 24.3626H87.2788L88.0315 25.6893H90.0465L85.9355 18.5227H85.9471Z" fill="#1F449C"/>
<path d="M97.1335 18.6021C96.8093 18.5567 96.1145 18.534 95.0028 18.5227H90.556V25.6893H92.3509V23.274H95.0028C95.8829 23.274 96.1608 23.274 96.2419 23.274C96.3461 23.274 96.4735 23.2853 96.6008 23.308C96.763 23.3307 96.8672 23.3987 96.9019 23.6255C96.9135 23.7503 96.9367 24.0224 96.9367 24.6461V25.6893H98.7316V24.3513C98.7316 23.7843 98.7084 23.4214 98.6737 23.2173C98.6274 22.9678 98.5116 22.741 98.3379 22.5483C98.3842 22.5142 98.4189 22.4689 98.4653 22.4235C98.6158 22.2534 98.72 22.038 98.7779 21.7772C98.8242 21.5504 98.8474 21.2555 98.8474 20.8586C98.8474 20.3143 98.7663 19.8834 98.6042 19.5546C98.4189 19.1804 98.0136 18.7155 97.1567 18.6021H97.1335ZM96.9019 21.5277C96.9019 21.5277 96.7398 21.6071 96.543 21.6297C96.3924 21.6411 96.0103 21.6638 95.0028 21.6638H92.3509V20.1556H95.0028C95.7555 20.1556 96.265 20.1669 96.5198 20.1896C96.7977 20.2123 96.8904 20.269 96.9135 20.2917C96.9483 20.3143 97.0293 20.4618 97.0293 20.8586C97.0293 21.4256 96.9019 21.539 96.9135 21.539L96.9019 21.5277Z" fill="#1F449C"/>
<path d="M99.658 20.1442H102.866V25.6893H104.661V20.1442H107.845V18.5227H99.658V20.1442Z" fill="#1F449C"/>
<path d="M114.573 18.5227H112.651L108.528 25.6893H110.555L111.319 24.3626L112.234 22.741L112.361 22.5256L113.624 20.337L115.002 22.741H113.091L112.223 24.3626H115.905L116.658 25.6893H118.673L114.562 18.5227H114.573Z" fill="#0F9447"/>
<path d="M127.369 21.6184V22.0153C127.369 23.0585 127.323 23.7162 127.254 24.0451C127.173 24.442 127.045 24.7368 126.848 24.9636C126.651 25.1904 126.362 25.3605 125.991 25.4852C125.54 25.6326 124.648 25.7007 123.189 25.7007C121.857 25.7007 120.931 25.6553 120.375 25.5759C119.761 25.4739 119.31 25.2017 119.032 24.7595C118.754 24.3172 118.615 23.4781 118.615 22.106C118.615 21.1875 118.684 20.4844 118.823 19.9628C118.985 19.3505 119.391 18.9309 119.981 18.7381C120.502 18.5794 121.429 18.5 122.83 18.5C123.27 18.5 123.78 18.5 124.335 18.534C124.903 18.5567 125.285 18.5794 125.493 18.6134C126.003 18.6814 126.431 18.8855 126.767 19.2144C126.976 19.4299 127.115 19.668 127.196 19.9288C127.265 20.1669 127.3 20.4731 127.311 20.8927H125.493C125.493 20.4958 125.436 20.337 125.412 20.303C125.389 20.303 125.354 20.269 125.285 20.2576C125.204 20.235 125.019 20.2123 124.648 20.1783C124.208 20.1556 123.641 20.1329 122.981 20.1329C122.112 20.1329 121.487 20.1556 121.116 20.2009C120.699 20.2463 120.607 20.3257 120.607 20.3257C120.607 20.3257 120.537 20.3937 120.491 20.6772C120.444 20.938 120.433 21.3803 120.433 21.9813C120.433 23.1039 120.491 23.5575 120.537 23.7276C120.56 23.8183 120.595 23.8637 120.618 23.8863C120.618 23.8863 120.688 23.9317 120.873 23.9657C121.267 24.0224 122.158 24.0564 123.536 24.0564C124.277 24.0564 124.833 24.0338 125.181 23.9657C125.378 23.9317 125.459 23.8863 125.482 23.841C125.493 23.8183 125.551 23.6822 125.574 23.2173H122.263V21.5957H127.381L127.369 21.6184Z" fill="#0F9447"/>
<path d="M134.885 18.6021C134.561 18.5567 133.866 18.534 132.754 18.5227H128.307V25.6893H130.102V23.274H132.754C133.634 23.274 133.912 23.274 133.993 23.274C134.097 23.274 134.225 23.2853 134.352 23.308C134.514 23.3307 134.619 23.3987 134.653 23.6255C134.665 23.7503 134.688 24.0224 134.688 24.6461V25.6893H136.483V24.3513C136.483 23.7956 136.46 23.4214 136.425 23.2173C136.379 22.9678 136.263 22.741 136.089 22.5483C136.136 22.5142 136.17 22.4689 136.217 22.4235C136.367 22.2534 136.471 22.038 136.529 21.7772C136.576 21.5617 136.599 21.2555 136.599 20.8586C136.599 20.3143 136.518 19.8834 136.356 19.5546C136.17 19.1804 135.765 18.7155 134.908 18.6021H134.885ZM134.653 21.5277C134.653 21.5277 134.491 21.6071 134.294 21.6297C134.144 21.6411 133.762 21.6638 132.754 21.6638H130.102V20.1556H132.754C133.507 20.1556 134.016 20.1669 134.271 20.1896C134.549 20.2123 134.642 20.269 134.665 20.2917C134.7 20.3143 134.781 20.4618 134.781 20.8586C134.781 21.4256 134.653 21.539 134.665 21.539L134.653 21.5277Z" fill="#0F9447"/>
<path d="M139.332 18.5227H137.537V25.6893H139.332V18.5227Z" fill="#0F9447"/>
<path d="M148.723 18.5227H146.616L141.544 22.2648V24.3739H146.963V25.7007H148.735V24.3739H149.87V22.775H148.735V18.534L148.723 18.5227ZM146.951 22.7637H143.697L146.951 20.3257V22.7637Z" fill="#0F9447"/>
<path d="M162.237 20.4504C162.191 20.0535 162.098 19.7587 161.959 19.5319C161.693 19.0783 161.265 18.7835 160.686 18.6701C160.153 18.5681 159.261 18.5114 157.953 18.5114C156.795 18.5114 155.984 18.5794 155.498 18.7041C154.791 18.8856 154.34 19.3732 154.189 20.1102C154.085 20.6092 154.039 21.2669 154.039 22.1287C154.039 22.8885 154.073 23.4668 154.131 23.8977C154.259 24.7595 154.745 25.3265 155.556 25.5193C156.1 25.6553 156.922 25.712 158.057 25.712C158.879 25.712 159.539 25.6894 160.026 25.644C160.558 25.5873 160.952 25.5079 161.207 25.3718C161.716 25.1337 162.029 24.6801 162.156 24.0224C162.249 23.5121 162.295 22.8318 162.295 21.9586C162.295 21.3009 162.272 20.802 162.226 20.4504H162.237ZM160.35 23.8864C160.35 23.8864 160.246 23.9657 159.829 24.0224C159.458 24.0678 158.856 24.0905 158.057 24.0905C156.32 24.0905 156.019 23.8977 155.996 23.8977C155.972 23.875 155.81 23.6142 155.81 22.2194C155.81 21.7772 155.834 21.3463 155.868 20.938C155.915 20.4958 155.984 20.337 156.007 20.2917C156.042 20.269 156.146 20.2236 156.424 20.1896C156.737 20.1443 157.258 20.1329 157.987 20.1329C158.786 20.1329 159.377 20.1443 159.759 20.1783C160.222 20.2123 160.338 20.2917 160.35 20.2917C160.35 20.2917 160.419 20.3937 160.477 20.7793C160.523 21.1195 160.547 21.6184 160.547 22.2534C160.547 23.6255 160.373 23.8637 160.35 23.8864Z" fill="#0F9447"/>
<path d="M44.2942 38.5683C43.3099 38.8064 38.7473 39.6002 32.5751 40.0084C27.5145 40.3486 21.377 40.4167 15.2395 39.7249C14.8458 39.6796 14.4405 39.6342 14.0352 39.5775C12.7498 39.4074 11.4528 39.2033 10.179 38.9652C10.0979 38.9425 10.0053 38.9198 9.91264 38.9085C8.78936 38.6817 7.66608 38.4322 6.56597 38.1374C6.56597 38.1374 6.3691 38.1374 6.09118 38.0694C5.54691 37.9446 4.72472 37.5817 4.56259 36.5272C4.48153 36.0282 4.56259 35.3705 4.89842 34.52C4.93316 34.4293 4.9679 34.3499 5.00264 34.2479C5.07212 34.2479 5.13002 34.2592 5.1995 34.2592C5.40795 34.2592 5.60481 34.2139 5.79009 34.1345C6.34594 33.8964 6.72809 33.3407 6.72809 32.6944V32.6717C6.72809 32.1727 6.60071 31.4583 6.23014 31.1748C6.50807 30.5058 6.71651 30.0295 7.08707 29.2131C9.66945 23.4752 14.4405 14.3468 22.8361 3.77821C25.6038 1.06803 25.847 0.228899 28.7189 3.29061C30.178 4.84414 33.4899 8.90374 37.1376 14.5963C37.1955 14.6756 37.2419 14.7663 37.2998 14.8457C37.3113 14.8684 37.3229 14.8911 37.3345 14.9024C37.3808 14.9705 37.4272 15.0385 37.4735 15.1065C39.6274 18.5198 41.8855 22.4887 43.9468 26.8544C44.271 27.5348 44.5837 28.2265 44.8964 28.9296C45.128 29.4399 45.348 29.9615 45.568 30.4945C45.8807 31.2429 46.1933 32.014 46.4828 32.7851C46.7724 33.5222 47.0503 34.2706 47.3166 35.019C48.0925 38.0807 46.4713 38.024 44.2942 38.5456V38.5683Z" fill="#0F9447"/>
<path d="M10.6532 25.7772L10.6191 25.7545L10.6532 25.7772Z" fill="#010101"/>
<path d="M34.37 4.93486C34.15 4.91218 33.9415 4.90084 33.7215 4.87816C33.9184 4.6627 34.0342 4.39055 34.0342 4.10706C34.0342 3.99366 34.0226 3.89161 33.9878 3.78955L34.37 4.93486Z" fill="#010101"/>
<path d="M35.8407 9.30061C35.3775 9.49338 35.0648 9.95831 35.0648 10.4913C34.4048 10.3665 33.7447 10.2305 33.0731 10.1057C32.3088 9.96965 31.5213 9.83357 30.7339 9.72018C16.6871 7.70172 4.57422 10.8428 3.68255 16.7508C3.26566 19.5176 5.37326 22.3866 9.18314 24.87L9.12524 24.9834C4.59738 22.1938 2.04974 18.894 2.52453 15.7415C3.48569 9.30061 16.6987 5.86469 32.0308 8.07593C32.6562 8.16664 33.2699 8.25736 33.8721 8.37076C34.4627 8.47281 35.0533 8.58621 35.6439 8.69961L35.8407 9.30061Z" fill="#1F449C"/>
<path d="M33.9648 3.71016C33.7795 3.21122 33.2469 2.85969 32.61 2.85969C31.8225 2.85969 31.1856 3.41533 31.1856 4.10705C31.1856 4.33384 31.2551 4.5493 31.3825 4.74207C30.5718 4.70805 29.7612 4.68537 28.9622 4.67403C13.8964 4.4926 1.92247 9.11918 1.47084 15.6508C1.22766 19.0527 4.15745 22.3639 9.12534 25.006L9.04428 25.1761C3.28893 22.3979 -0.185121 18.7466 0.000161607 14.8911C0.370727 7.73574 13.2595 2.47414 29.3675 2.62155C30.3287 2.62155 31.3014 2.65557 32.2857 2.70093C32.7489 2.72361 33.2005 2.74629 33.6522 2.78031L33.9648 3.69882V3.71016Z" fill="#1F449C"/>
<path d="M32.633 0.999987C31.2317 0.999987 30.0042 1.65769 29.3789 2.62156C29.0894 3.07515 28.9157 3.58543 28.9157 4.12973C28.9157 4.31117 28.9389 4.4926 28.9736 4.6627C29.2747 6.14819 30.8033 7.27082 32.6445 7.27082C34.6942 7.27082 36.3618 5.8647 36.3618 4.12973C36.3618 2.39477 34.6942 0.988647 32.6445 0.988647L32.633 0.999987ZM32.6098 5.35442C32.0887 5.35442 31.6255 5.10495 31.3823 4.74208C31.2549 4.56064 31.1854 4.34519 31.1854 4.10705C31.1854 3.41534 31.8223 2.85969 32.6098 2.85969C33.2351 2.85969 33.7678 3.21122 33.9647 3.71017C33.9647 3.71017 33.9878 3.76687 33.9878 3.80088C34.0226 3.90294 34.0342 4.005 34.0342 4.11839C34.0342 4.41323 33.9184 4.68538 33.7215 4.88949C33.4551 5.17298 33.0614 5.36576 32.6098 5.36576V5.35442Z" fill="#1F449C"/>
<path d="M36.3502 7.28217C35.3659 7.28217 34.4858 7.70173 33.8721 8.38211C33.4436 8.85838 33.1541 9.45938 33.073 10.1171C33.0499 10.2532 33.0499 10.3892 33.0499 10.5366C33.0499 12.3283 34.5321 13.7911 36.3502 13.7911C38.1683 13.7911 39.6621 12.3397 39.6621 10.5366C39.6621 8.73364 38.1799 7.28217 36.3502 7.28217ZM36.3271 11.7954C35.6322 11.7954 35.0648 11.2284 35.0648 10.514C35.0648 9.95833 35.3891 9.4934 35.8407 9.30063C35.9912 9.23259 36.1534 9.19857 36.3271 9.19857C37.0219 9.19857 37.5893 9.77689 37.5893 10.4913C37.5893 11.2057 37.0219 11.784 36.3271 11.784V11.7954Z" fill="#1F449C"/>
<path d="M36.8019 30.6986C36.6513 31.6397 36.4081 32.5242 36.0955 33.3634C35.6902 34.4747 35.1691 35.4952 34.5669 36.4364C33.6289 37.8992 32.4824 39.1353 31.2781 40.1105C30.0043 40.394 28.6957 40.6434 27.3408 40.8702C26.8313 39.895 26.7155 40.0084 26.7039 40.0198C26.7039 39.9971 26.8661 39.26 27.0861 38.0467C27.2366 37.1735 27.4219 36.0622 27.5956 34.7922C27.6998 34.0211 27.8041 33.1933 27.8967 32.3315C28.4873 26.6957 28.5799 19.4156 25.9281 15.6735C26.5766 18.0095 28.0241 22.1258 25.5691 27.1152C24.77 28.7481 24.2953 30.6759 24.0405 32.6036C23.9247 33.4428 23.8552 34.2706 23.8089 35.0643C23.7394 36.323 23.7394 37.5024 23.7626 38.5116C23.7973 39.895 23.9015 40.9383 23.9594 41.3805C23.9015 41.3578 21.9676 40.5867 20.0685 38.8745C19.0147 37.9219 17.9841 36.6746 17.2777 35.0983C16.9303 34.3272 16.6755 33.4768 16.5365 32.5469C16.3976 31.583 16.3744 30.5398 16.5365 29.3945C17.6946 20.731 24.3879 17.0116 22.1992 11.4665C22.1992 11.4665 31.336 10.6727 35.6323 21.4341C36.9987 24.8473 37.2535 27.9657 36.7903 30.7099L36.8019 30.6986Z" fill="white"/>
<path d="M45.8923 26.2421C45.7533 27.1493 45.4175 28.0111 44.8848 28.8162C40.9475 34.8716 26.6576 37.8085 10.3758 35.4612C9.6347 35.3592 8.88199 35.2344 8.15244 35.1097C7.43447 34.985 6.72808 34.8602 6.02169 34.7128L5.7785 33.9871C6.33435 33.7489 6.7165 33.1933 6.7165 32.5469V32.5243C7.50395 32.6944 8.30298 32.8531 9.1136 33.0005C10.04 33.1706 10.978 33.3294 11.9276 33.4654C27.4103 35.6994 40.9475 32.7057 43.9236 26.7183C44.2015 26.174 44.3868 25.5957 44.4679 25.0061C44.9774 21.5928 42.2792 18.0322 37.4503 14.9705L37.3229 14.755C37.4735 14.8344 37.624 14.9138 37.7745 14.9931C43.3215 18.3837 46.4481 22.3753 45.8807 26.2081L45.8923 26.2421Z" fill="#1F449C"/>
<path d="M48.9147 27.2853C48.6136 33.1706 41.2718 37.99 30.4559 40.394C29.4021 40.6321 28.3136 40.8362 27.2019 41.029C26.287 41.1878 25.349 41.3238 24.3995 41.4372C21.2265 41.8341 17.8566 42.0496 14.3594 42.0496C14.1047 42.0496 13.8383 42.0496 13.5836 42.0496C12.4255 42.0496 11.2559 42.0042 10.0748 41.9475C9.51892 41.9248 8.97465 41.8908 8.43038 41.8568L8.05981 40.7569C8.29142 41.3465 8.92833 41.7774 9.69262 41.7774C10.6422 41.7774 11.4065 41.1084 11.4065 40.2693C11.4065 39.9858 11.3138 39.725 11.1749 39.5095C12.1476 39.5549 13.1204 39.5775 14.0815 39.5889C16.5249 39.6116 18.9104 39.5435 21.1917 39.3734C22.234 39.294 23.253 39.192 24.2489 39.0786C25.1869 38.9652 26.1017 38.8405 27.005 38.693C29.1936 38.3415 31.2665 37.8993 33.1772 37.3663C41.4223 35.0644 46.8303 31.1408 47.1661 26.3782C47.4556 22.2505 43.8773 18.2363 37.7977 15.0385C37.6356 14.9364 37.4735 14.8457 37.2998 14.7437L37.1377 14.4942C44.6069 17.8848 49.1695 22.466 48.9147 27.2967V27.2853Z" fill="#1F449C"/>
<path d="M9.65788 44C11.3486 44 12.8193 43.2062 13.5836 42.0383C13.9425 41.494 14.1394 40.8816 14.1394 40.2126C14.1394 39.9971 14.1162 39.7817 14.0699 39.5775C13.7109 37.7972 11.8697 36.4365 9.65788 36.4365C7.1913 36.4365 5.18793 38.1261 5.18793 40.2126C5.18793 42.2991 7.1913 43.9887 9.65788 43.9887V44ZM9.68104 38.7611C10.3064 38.7611 10.8622 39.0559 11.1633 39.4982C11.3138 39.725 11.3949 39.9858 11.3949 40.2579C11.3949 41.0857 10.6306 41.7661 9.68104 41.7661C8.92833 41.7661 8.27984 41.3352 8.05981 40.7455C8.05981 40.7455 8.03665 40.6775 8.02507 40.6435C7.99033 40.5187 7.96717 40.394 7.96717 40.2693C7.96717 39.9177 8.10613 39.5889 8.33774 39.3394C8.6504 38.9879 9.13677 38.7724 9.68104 38.7724V38.7611Z" fill="#1F449C"/>
<path d="M7.09866 29.0884C6.53123 28.7822 5.88274 28.6121 5.18793 28.6121C2.98769 28.6121 1.20435 30.3697 1.20435 32.5243C1.20435 34.4747 2.66345 36.0963 4.57418 36.3911C4.77104 36.4251 4.97948 36.4365 5.18793 36.4365C6.36911 36.4365 7.43448 35.9262 8.16403 35.1211C8.68514 34.5541 9.03255 33.8283 9.13677 33.0232C9.15993 32.8531 9.17151 32.6944 9.17151 32.5243C9.17151 31.0388 8.33774 29.7574 7.09866 29.0884ZM6.73967 32.5696C6.73967 33.216 6.35753 33.7716 5.80168 34.0098C5.61639 34.0891 5.41953 34.1345 5.21109 34.1345C5.14161 34.1345 5.08371 34.1345 5.01423 34.1232C4.26151 34.0211 3.6825 33.3747 3.6825 32.581C3.6825 31.7192 4.36574 31.0161 5.21109 31.0161C5.55849 31.0161 5.87116 31.1295 6.12592 31.3336C6.48491 31.6171 6.72809 32.0593 6.72809 32.5583V32.581L6.73967 32.5696Z" fill="#1F449C"/>
<path d="M9.25173 25.0741C9.25173 25.0741 9.15968 25.0287 9.11365 25.006C9.11365 25.006 9.1942 25.0514 9.24022 25.0741H9.25173Z" fill="#1F449C"/>
</g>
<defs>
<clipPath id="clip0_2_20575">
<rect width="177" height="43" fill="white" transform="translate(0 0.5)"/>
</clipPath>
</defs>
</svg>
