<svg width="100" height="100" viewBox="0 0 100 100" fill="none" xmlns="http://www.w3.org/2000/svg">
<path opacity="0.4" d="M50 91.6666C73.0119 91.6666 91.6667 73.0118 91.6667 49.9999C91.6667 26.9881 73.0119 8.33325 50 8.33325C26.9881 8.33325 8.33334 26.9881 8.33334 49.9999C8.33334 73.0118 26.9881 91.6666 50 91.6666Z" stroke="white" stroke-width="2" stroke-linecap="round" stroke-linejoin="round"/>
<path d="M44.7192 65.4484L44.1784 64.6073L44.7192 65.4484ZM41.5183 67.0121L41.447 68.0096L41.5183 67.0121ZM39.9989 66.1826L40.7995 65.5833L39.9989 66.1826ZM64.3883 47.1961L64.9291 46.3549L64.3883 47.1961ZM66.8164 49.1892L67.7376 48.8L66.8164 49.1892ZM64.3883 52.804L63.8476 51.9628L64.3883 52.804ZM66.8164 50.8109L67.7376 51.2001L66.8164 50.8109ZM44.7192 34.5517L44.1784 35.3929L44.7192 34.5517ZM41.5183 32.988L41.447 31.9905L41.5183 32.988ZM39.9989 33.8175L40.7995 34.4168L39.9989 33.8175ZM44.1784 35.3929L63.8476 48.0373L64.9291 46.3549L45.26 33.7105L44.1784 35.3929ZM63.8476 51.9628L44.1784 64.6073L45.26 66.2896L64.9291 53.6452L63.8476 51.9628ZM40.5833 62.6445V37.3556H38.5833V62.6445H40.5833ZM44.1784 64.6073C43.3253 65.1557 42.7434 65.5286 42.2891 65.765C41.827 66.0056 41.6504 66.019 41.5895 66.0147L41.447 68.0096C42.0778 68.0546 42.6652 67.824 43.2125 67.5391C43.7675 67.2502 44.4402 66.8166 45.26 66.2896L44.1784 64.6073ZM38.5833 62.6445C38.5833 63.619 38.5823 64.4194 38.6395 65.0425C38.6958 65.6568 38.8194 66.2757 39.1984 66.782L40.7995 65.5833C40.7629 65.5345 40.6787 65.3786 40.6311 64.8599C40.5843 64.3498 40.5833 63.6587 40.5833 62.6445H38.5833ZM41.5895 66.0147C41.2761 65.9923 40.9878 65.8349 40.7995 65.5833L39.1984 66.782C39.7344 67.4979 40.5549 67.9459 41.447 68.0096L41.5895 66.0147ZM63.8476 48.0373C64.5897 48.5144 65.088 48.8359 65.4378 49.1087C65.7871 49.3811 65.8697 49.5178 65.8953 49.5784L67.7376 48.8C67.5125 48.2673 67.1068 47.874 66.6677 47.5316C66.229 47.1894 65.6386 46.8111 64.9291 46.3549L63.8476 48.0373ZM64.9291 53.6452C65.6386 53.189 66.229 52.8107 66.6677 52.4685C67.1068 52.1261 67.5125 51.7329 67.7376 51.2001L65.8953 50.4217C65.8697 50.4823 65.7871 50.619 65.4378 50.8914C65.088 51.1642 64.5897 51.4857 63.8476 51.9628L64.9291 53.6452ZM65.8953 49.5784C66.0092 49.848 66.0092 50.1521 65.8953 50.4217L67.7376 51.2001C68.0618 50.4329 68.0618 49.5672 67.7376 48.8L65.8953 49.5784ZM45.26 33.7105C44.4402 33.1835 43.7675 32.7499 43.2125 32.461C42.6652 32.1762 42.0778 31.9455 41.447 31.9905L41.5895 33.9854C41.6504 33.9811 41.827 33.9946 42.2891 34.2351C42.7434 34.4715 43.3253 34.8444 44.1784 35.3929L45.26 33.7105ZM40.5833 37.3556C40.5833 36.3414 40.5843 35.6503 40.6311 35.1403C40.6787 34.6215 40.7629 34.4656 40.7995 34.4168L39.1984 33.2181C38.8194 33.7244 38.6958 34.3433 38.6395 34.9576C38.5823 35.5807 38.5833 36.3811 38.5833 37.3556H40.5833ZM41.447 31.9905C40.5549 32.0542 39.7344 32.5022 39.1984 33.2181L40.7995 34.4168C40.9878 34.1652 41.2761 34.0078 41.5895 33.9854L41.447 31.9905Z" fill="white"/>
</svg>
