<svg width="70" height="75" viewBox="0 0 70 75" fill="none" xmlns="http://www.w3.org/2000/svg">
<rect width="70" height="74.1814" rx="35" fill="#0F9447" fill-opacity="0.05"/>
<mask id="path-2-inside-1_16_15841" fill="white">
<path d="M54.1661 54.5142H43.9431V51.3194C46.0889 51.7411 48.5409 51.6737 50.3186 50.4167C53.2327 48.355 53.3929 43.797 53.3987 43.6041C53.4086 43.2335 53.1732 42.9005 52.8201 42.7871C52.6371 42.7286 48.2839 41.3654 45.3708 43.4255C44.7919 43.8352 44.3251 44.3457 43.9434 44.8991V40.9152C46.0892 41.337 48.5412 41.2695 50.3188 40.0126C53.2329 37.9509 53.3931 33.3928 53.399 33.2C53.4088 32.8294 53.1735 32.4963 52.8204 32.383C52.6374 32.3244 48.2842 30.9618 45.371 33.0213C44.7921 33.4311 44.3254 33.9416 43.9437 34.4949V32.1729C44.8137 31.4813 47.0971 29.4206 47.1908 26.7785C47.3048 23.5827 44.1562 21.0017 44.0219 20.8935C43.7329 20.6603 43.3262 20.6465 43.0225 20.8578C42.8808 20.9567 39.5566 23.3076 39.4435 26.5031C39.3501 29.118 41.4401 31.3196 42.2772 32.0935V34.4513C41.9005 33.9146 41.4417 33.4208 40.8776 33.0218C37.9641 30.9604 33.6112 32.324 33.4289 32.3834C33.0758 32.4968 32.8404 32.8299 32.8503 33.2004C32.8559 33.3933 33.0173 37.9513 35.9314 40.013C37.7053 41.2691 40.1493 41.3344 42.2772 40.921V44.8558C41.9005 44.3191 41.4417 43.8253 40.8776 43.4263C37.9642 41.3649 33.6112 42.7285 33.4289 42.788C33.0758 42.9014 32.8405 43.2344 32.8503 43.605C32.8559 43.7978 33.0173 48.3559 35.9314 50.4176C37.7053 51.6736 40.1493 51.7389 42.2773 51.3255V54.515L27.2701 54.5144V38.9047H28.4972C28.9578 38.9047 29.3306 38.5316 29.3306 38.0714V34.1113H31.2244C31.6849 34.1113 32.0577 33.7382 32.0577 33.278V26.6829H32.3531C32.8137 26.6829 33.1865 26.3098 33.1865 25.8496C33.1865 25.3894 32.8137 25.0163 32.3531 25.0163H29.9979C29.5373 25.0163 29.1646 25.3894 29.1646 25.8496C29.1646 26.3098 29.5373 26.6829 29.9979 26.6829H30.391V32.4447H29.3306V29.7866C29.3306 29.3263 28.9578 28.9532 28.4973 28.9532H15.8333C15.3727 28.9532 15 29.3263 15 29.7866V38.0717C15 38.532 15.3728 38.9051 15.8333 38.9051H17.0604V54.5147H15.8333C15.3727 54.5147 15 54.8878 15 55.3481C15 55.8083 15.3728 56.1814 15.8333 56.1814H54.1667C54.6273 56.1814 55 55.8083 55 55.3481C55 54.8878 54.6266 54.5142 54.1661 54.5142ZM46.3332 44.7857C48.0064 43.6006 50.5119 43.9558 51.6749 44.2112C51.5317 45.3924 51.0354 47.8671 49.3557 49.0557C48.1281 49.9254 46.453 49.9637 45.1874 49.8223L48.3261 47.601C48.7014 47.3348 48.7907 46.8148 48.5248 46.4393C48.2586 46.0637 47.7405 45.9747 47.3628 46.2402L44.2253 48.4606C44.513 47.2205 45.1057 45.6549 46.3332 44.7857ZM46.3332 34.3814C48.0064 33.1968 50.5119 33.5505 51.6749 33.8068C51.5317 34.988 51.0354 37.4628 49.3557 38.6514C48.1363 39.5152 46.4761 39.5577 45.2136 39.4197L48.519 37.0808C48.8942 36.8146 48.9835 36.2946 48.7177 35.9191C48.4515 35.5438 47.9324 35.4536 47.5556 35.7201L44.2188 38.0815C44.5043 36.8375 45.0978 35.256 46.3332 34.3814ZM41.1078 26.5614C41.1697 24.8395 42.655 23.3299 43.463 22.633C44.3223 23.4879 45.582 25.1025 45.5253 26.7179C45.4809 27.9693 44.6852 29.1036 43.9433 29.9004V26.8907C43.9433 26.4305 43.5705 26.0574 43.11 26.0574C42.6494 26.0574 42.2766 26.4305 42.2766 26.8907V29.609C41.6552 28.7839 41.0674 27.6998 41.1078 26.5614ZM36.8923 38.6512C35.2201 37.4678 34.7204 34.9875 34.5738 33.8044C35.7358 33.5472 38.235 33.1926 39.9147 34.3812C41.0441 35.1804 41.6319 36.5654 41.944 37.7482L39.0779 35.7197C38.7008 35.4532 38.1823 35.5435 37.9161 35.9188C37.65 36.2943 37.7396 36.8143 38.1148 37.0805L41.3611 39.3782C40.0712 39.559 38.2239 39.5927 36.8923 38.6512ZM36.8923 49.0555C35.2201 47.8722 34.7204 45.3918 34.5738 44.2088C35.7358 43.9513 38.235 43.5963 39.9147 44.7855C41.143 45.6547 41.7361 47.2212 42.0238 48.4615L38.8844 46.2403C38.5092 45.9747 37.9891 46.0637 37.7232 46.4393C37.457 46.8148 37.5467 47.3352 37.9225 47.601L41.0613 49.822C39.796 49.9631 38.1218 49.9249 36.8923 49.0555ZM16.6665 30.6192H27.6639V37.2374H16.6665V30.6192ZM21.5893 38.9043H22.7415V50.6045C22.7415 50.9224 22.4827 51.1812 22.1654 51.1812C21.848 51.1812 21.5893 50.9224 21.5893 50.6045L21.5893 38.9043ZM18.7269 54.514V38.9043H19.9222V50.6045C19.9222 51.8415 20.9281 52.8476 22.1651 52.8476C23.4021 52.8476 24.408 51.8414 24.408 50.6045L24.4083 38.9043H25.6036V54.514H18.7269Z"/>
</mask>
<path d="M54.1661 54.5142H43.9431V51.3194C46.0889 51.7411 48.5409 51.6737 50.3186 50.4167C53.2327 48.355 53.3929 43.797 53.3987 43.6041C53.4086 43.2335 53.1732 42.9005 52.8201 42.7871C52.6371 42.7286 48.2839 41.3654 45.3708 43.4255C44.7919 43.8352 44.3251 44.3457 43.9434 44.8991V40.9152C46.0892 41.337 48.5412 41.2695 50.3188 40.0126C53.2329 37.9509 53.3931 33.3928 53.399 33.2C53.4088 32.8294 53.1735 32.4963 52.8204 32.383C52.6374 32.3244 48.2842 30.9618 45.371 33.0213C44.7921 33.4311 44.3254 33.9416 43.9437 34.4949V32.1729C44.8137 31.4813 47.0971 29.4206 47.1908 26.7785C47.3048 23.5827 44.1562 21.0017 44.0219 20.8935C43.7329 20.6603 43.3262 20.6465 43.0225 20.8578C42.8808 20.9567 39.5566 23.3076 39.4435 26.5031C39.3501 29.118 41.4401 31.3196 42.2772 32.0935V34.4513C41.9005 33.9146 41.4417 33.4208 40.8776 33.0218C37.9641 30.9604 33.6112 32.324 33.4289 32.3834C33.0758 32.4968 32.8404 32.8299 32.8503 33.2004C32.8559 33.3933 33.0173 37.9513 35.9314 40.013C37.7053 41.2691 40.1493 41.3344 42.2772 40.921V44.8558C41.9005 44.3191 41.4417 43.8253 40.8776 43.4263C37.9642 41.3649 33.6112 42.7285 33.4289 42.788C33.0758 42.9014 32.8405 43.2344 32.8503 43.605C32.8559 43.7978 33.0173 48.3559 35.9314 50.4176C37.7053 51.6736 40.1493 51.7389 42.2773 51.3255V54.515L27.2701 54.5144V38.9047H28.4972C28.9578 38.9047 29.3306 38.5316 29.3306 38.0714V34.1113H31.2244C31.6849 34.1113 32.0577 33.7382 32.0577 33.278V26.6829H32.3531C32.8137 26.6829 33.1865 26.3098 33.1865 25.8496C33.1865 25.3894 32.8137 25.0163 32.3531 25.0163H29.9979C29.5373 25.0163 29.1646 25.3894 29.1646 25.8496C29.1646 26.3098 29.5373 26.6829 29.9979 26.6829H30.391V32.4447H29.3306V29.7866C29.3306 29.3263 28.9578 28.9532 28.4973 28.9532H15.8333C15.3727 28.9532 15 29.3263 15 29.7866V38.0717C15 38.532 15.3728 38.9051 15.8333 38.9051H17.0604V54.5147H15.8333C15.3727 54.5147 15 54.8878 15 55.3481C15 55.8083 15.3728 56.1814 15.8333 56.1814H54.1667C54.6273 56.1814 55 55.8083 55 55.3481C55 54.8878 54.6266 54.5142 54.1661 54.5142ZM46.3332 44.7857C48.0064 43.6006 50.5119 43.9558 51.6749 44.2112C51.5317 45.3924 51.0354 47.8671 49.3557 49.0557C48.1281 49.9254 46.453 49.9637 45.1874 49.8223L48.3261 47.601C48.7014 47.3348 48.7907 46.8148 48.5248 46.4393C48.2586 46.0637 47.7405 45.9747 47.3628 46.2402L44.2253 48.4606C44.513 47.2205 45.1057 45.6549 46.3332 44.7857ZM46.3332 34.3814C48.0064 33.1968 50.5119 33.5505 51.6749 33.8068C51.5317 34.988 51.0354 37.4628 49.3557 38.6514C48.1363 39.5152 46.4761 39.5577 45.2136 39.4197L48.519 37.0808C48.8942 36.8146 48.9835 36.2946 48.7177 35.9191C48.4515 35.5438 47.9324 35.4536 47.5556 35.7201L44.2188 38.0815C44.5043 36.8375 45.0978 35.256 46.3332 34.3814ZM41.1078 26.5614C41.1697 24.8395 42.655 23.3299 43.463 22.633C44.3223 23.4879 45.582 25.1025 45.5253 26.7179C45.4809 27.9693 44.6852 29.1036 43.9433 29.9004V26.8907C43.9433 26.4305 43.5705 26.0574 43.11 26.0574C42.6494 26.0574 42.2766 26.4305 42.2766 26.8907V29.609C41.6552 28.7839 41.0674 27.6998 41.1078 26.5614ZM36.8923 38.6512C35.2201 37.4678 34.7204 34.9875 34.5738 33.8044C35.7358 33.5472 38.235 33.1926 39.9147 34.3812C41.0441 35.1804 41.6319 36.5654 41.944 37.7482L39.0779 35.7197C38.7008 35.4532 38.1823 35.5435 37.9161 35.9188C37.65 36.2943 37.7396 36.8143 38.1148 37.0805L41.3611 39.3782C40.0712 39.559 38.2239 39.5927 36.8923 38.6512ZM36.8923 49.0555C35.2201 47.8722 34.7204 45.3918 34.5738 44.2088C35.7358 43.9513 38.235 43.5963 39.9147 44.7855C41.143 45.6547 41.7361 47.2212 42.0238 48.4615L38.8844 46.2403C38.5092 45.9747 37.9891 46.0637 37.7232 46.4393C37.457 46.8148 37.5467 47.3352 37.9225 47.601L41.0613 49.822C39.796 49.9631 38.1218 49.9249 36.8923 49.0555ZM16.6665 30.6192H27.6639V37.2374H16.6665V30.6192ZM21.5893 38.9043H22.7415V50.6045C22.7415 50.9224 22.4827 51.1812 22.1654 51.1812C21.848 51.1812 21.5893 50.9224 21.5893 50.6045L21.5893 38.9043ZM18.7269 54.514V38.9043H19.9222V50.6045C19.9222 51.8415 20.9281 52.8476 22.1651 52.8476C23.4021 52.8476 24.408 51.8414 24.408 50.6045L24.4083 38.9043H25.6036V54.514H18.7269Z" fill="white" stroke="#1F449C" stroke-width="2" mask="url(#path-2-inside-1_16_15841)"/>
<path d="M18.6633 32.7192V32.7195C18.6632 32.8725 18.8216 33.0525 19.038 33.0525L18.6633 32.7192ZM18.6633 32.7192C18.6633 32.5007 18.8038 32.3859 18.9551 32.3859H19.038C19.2223 32.3859 19.3713 32.535 19.3713 32.7192C19.3713 32.9034 19.2223 33.0525 19.038 33.0525L18.6633 32.7192Z" fill="white" stroke="#1F449C"/>
<path d="M22.6745 19.1667H22.674H22.6676C20.3182 19.1667 18.1065 20.0818 16.4437 21.7422C16.3138 21.8716 16.105 21.8724 15.975 21.746L15.9715 21.7425C15.8414 21.612 15.8416 21.4006 15.9718 21.2706C17.762 19.4834 20.1383 18.5 22.6676 18.5H22.6754C25.2079 18.5021 27.5848 19.4888 29.374 21.2809C29.504 21.4115 29.5034 21.6223 29.3734 21.7518L29.3724 21.7529C29.2436 21.882 29.0319 21.8823 28.902 21.7521L28.9018 21.7519C27.2399 20.0874 25.027 19.169 22.6745 19.1667Z" fill="white" stroke="#1F449C"/>
<path d="M18.521 23.8235L18.5211 23.8234C19.6282 22.7177 21.0994 22.11 22.6682 22.11H22.673C24.2437 22.1112 25.7154 22.7213 26.8217 23.8291C26.951 23.9588 26.9514 24.1679 26.8245 24.2977L26.8217 24.3004C26.6901 24.4317 26.4787 24.43 26.3498 24.3008L26.3497 24.3006C24.3224 22.2695 21.0218 22.2692 18.9932 24.2949C18.8623 24.4253 18.6507 24.425 18.5208 24.2948L18.1669 24.648L18.5209 24.2949C18.3907 24.1643 18.3912 23.9531 18.521 23.8235Z" fill="white" stroke="#1F449C"/>
<path d="M21.0789 26.3666L21.0695 26.376C20.9397 26.5055 20.9393 26.7163 21.0698 26.8469L21.0702 26.8472C21.2001 26.9774 21.4108 26.9778 21.5416 26.8473L21.8947 27.2014M21.0789 26.3666L23.7965 26.8496C23.4962 26.548 23.0935 26.3823 22.6691 26.3819H22.6686H22.6676C22.2427 26.3819 21.841 26.5475 21.5408 26.8481L21.8947 27.2014M21.0789 26.3666C21.0757 26.3697 21.0726 26.3728 21.0695 26.3759L20.8077 26.1136L20.7163 26.0221L20.4987 26.4723L20.4987 26.4722L20.4848 26.4655C20.4391 26.7242 20.5163 27.0004 20.7163 27.2005C21.0419 27.5267 21.569 27.5261 21.8947 27.2014M21.0789 26.3666L22.6686 26.8819M21.0789 26.3666C21.9635 25.4935 23.39 25.4986 24.2683 26.3779M21.0789 26.3666L24.2683 26.3779M21.8947 27.2014C22.1005 26.9953 22.3746 26.8819 22.6676 26.8819H22.6686M22.6686 26.8819C22.9615 26.8822 23.2367 26.9959 23.4425 27.2026C23.7641 27.5252 24.2921 27.5316 24.6208 27.2038L22.6686 26.8819ZM24.2683 26.3779C24.3985 26.5088 24.398 26.7199 24.2678 26.8498L24.2678 26.8498C24.1367 26.9805 23.9253 26.9786 23.7966 26.8496L24.2683 26.3779Z" fill="white" stroke="#1F449C"/>
</svg>
