<svg width="630" height="340" viewBox="0 0 630 340" fill="none" xmlns="http://www.w3.org/2000/svg">
<g clip-path="url(#clip0_16_18618)">
<path opacity="0.5" d="M149.933 161.61C149.933 161.61 153.568 151.441 162.262 152.572C162.262 152.572 174.884 135.623 188.342 150.311C188.342 150.311 202.648 146.672 213.245 153.463C220.308 157.991 222.642 162.74 222.642 162.74L149.933 161.61Z" fill="#F8FCFF"/>
<path opacity="0.5" d="M97.2971 126.097C97.2971 126.097 101.701 113.777 112.233 115.147C112.233 115.147 127.524 94.6122 143.829 112.409C143.829 112.409 161.163 107.999 173.998 116.228C182.557 121.714 185.383 127.467 185.383 127.467L97.2949 126.097H97.2971Z" fill="#F8FCFF"/>
<path opacity="0.5" d="M244.863 115.528C244.863 115.528 250.71 104.739 264.692 105.938C264.692 105.938 284.992 87.9566 306.639 103.54C306.639 103.54 329.649 99.6788 346.69 106.882C358.051 111.685 361.806 116.725 361.806 116.725L244.863 115.526V115.528Z" fill="#F8FCFF"/>
<path d="M597.99 311.259C597.573 313.037 597.103 314.861 596.582 316.687C596.11 318.515 595.485 320.446 594.809 322.376C594.494 323.314 594.129 324.256 593.818 325.193C592.721 328.17 591.471 331.246 589.955 334.431C589.483 335.475 589.016 336.57 588.492 337.616C588.362 337.941 588.209 338.27 588.051 338.595C587.958 338.79 587.856 338.983 587.761 339.178H525.706L507.543 339.129H344.922L321.943 339.103H321.872L297.663 339.074H172.22L119.926 339.023H25.3593C25.3593 339.023 25.3283 338.937 25.2618 338.768C25.2441 338.717 25.2241 338.66 25.1998 338.593C25.1222 338.389 25.0202 338.117 24.8895 337.766L24.8385 337.664V337.613C24.8385 337.613 24.7875 337.558 24.7875 337.507C24.5792 337.09 24.4218 336.618 24.2135 336.047C24.1071 335.783 24.0052 335.47 23.8478 335.158V335.051L23.7968 335C23.0787 333.139 22.1922 330.712 21.166 327.782C21.0752 327.516 20.9799 327.248 20.8823 326.977C20.1133 324.763 19.2688 322.283 18.369 319.553C16.2302 312.926 13.7745 304.836 11.3765 295.703C10.4367 292.101 9.49702 288.344 8.60827 284.428C8.08521 282.167 7.55994 279.814 7.05683 277.438C6.91056 276.742 6.76871 276.044 6.62465 275.348C5.70265 270.897 4.83385 266.312 4.05148 261.626C3.02089 255.474 2.13435 249.148 1.46059 242.728C1.12592 239.576 0.844446 236.4 0.618379 233.209C0.61173 233.127 0.605081 233.04 0.600649 232.958C0.591783 232.872 0.587351 232.787 0.580702 232.701C0.272631 228.204 0.0775935 223.676 0.0199688 219.153C-0.0265743 215.511 0.0133198 211.867 0.155165 208.235C0.257117 205.781 0.414476 203.328 0.571836 200.874C0.988507 195.655 1.61351 190.436 2.50226 185.373C3.0763 181.929 3.80547 178.483 4.64103 175.143C6.67562 166.949 9.44383 159.121 13.0941 151.709C14.3996 149.152 15.756 146.647 17.2697 144.194C20.6607 138.609 24.1049 133.389 27.6045 128.485H27.6555C29.4817 125.876 31.308 123.422 33.1342 121.071C39.9694 112.201 46.911 104.579 53.9079 98.0033C139.758 17.6833 238.19 95.1863 299.099 41.2739C358.645 -11.3862 470.074 -12.1686 519.912 36.4202C520.852 37.3599 521.843 38.2996 522.783 39.3435C530.852 47.9074 537.078 57.9097 540.899 69.3327C543.844 78.1294 545.365 87.766 545.201 98.2382C545.183 99.3375 545.15 100.45 545.094 101.569C544.864 106.346 544.292 111.288 543.348 116.394C542.727 119.777 541.945 123.23 540.994 126.76C538.698 135.216 535.464 144.037 531.185 153.378C530.766 154.265 530.347 155.151 529.93 156.04C516.311 184.536 527.53 201.601 544.702 217.207C555.294 226.863 568.084 235.944 578.73 246.799C580.137 248.26 581.496 249.72 582.852 251.236C583.373 251.839 583.883 252.442 584.388 253.054C585.811 254.771 587.178 256.524 588.488 258.333C589.151 259.27 589.791 260.221 590.407 261.19C592.229 264.044 593.849 267.037 595.219 270.197C596.17 272.4 596.999 274.685 597.69 277.057C598.57 280.075 599.224 283.24 599.612 286.569C600.481 293.93 600.064 302.092 597.987 311.257L597.99 311.259Z" fill="#DCEAFF"/>
<path d="M437.128 339.076H248.48L169.838 339.025H27.6155C27.6155 339.025 27.5335 338.883 27.3717 338.598C27.2565 338.394 27.1035 338.121 26.9041 337.771L26.8265 337.669V337.618C26.8265 337.618 26.7489 337.563 26.7489 337.512C26.4342 337.095 26.2015 336.623 25.8868 336.051C25.7272 335.787 25.572 335.475 25.3349 335.162V335.056L25.2573 335.005C24.1802 333.143 22.8437 330.716 21.3012 327.786C21.1615 327.52 21.0219 327.252 20.8778 326.982C20.1088 324.768 19.2644 322.288 18.3645 319.557C16.2258 312.93 13.7701 304.841 11.372 295.707C10.4323 292.105 9.49253 288.349 8.60378 284.433C8.08073 282.172 7.55545 279.818 7.05235 277.442C6.90607 276.746 6.76422 276.048 6.62016 275.352C5.69816 270.902 4.82936 266.316 4.047 261.631C2.51107 252.457 1.29652 242.901 0.613892 233.213C61.7005 236.36 179.452 244.647 268.026 264.43C393.007 292.343 423.892 296.851 476.836 301.857C506.464 304.659 472.656 323.247 437.126 339.076H437.128Z" fill="#FFCF83"/>
<path d="M330.128 217.138L325.699 303.761H330.128L332.12 217.138H330.128Z" fill="#ADC8FE"/>
<path d="M330.48 209.297L331.604 214.629L351.755 190.715L330.48 209.297Z" fill="#ADC8FE"/>
<path d="M337.721 215.7L332.284 215.294L349.636 241.312L337.721 215.7Z" fill="#ADC8FE"/>
<path d="M326.606 219.953L329.762 215.507L298.521 216.923L326.606 219.953Z" fill="#ADC8FE"/>
<path d="M331.929 217.543C333.172 217.029 333.762 215.604 333.247 214.361C332.732 213.118 331.307 212.528 330.064 213.043C328.822 213.557 328.231 214.982 328.746 216.225C329.261 217.468 330.686 218.058 331.929 217.543Z" fill="#ADC8FE"/>
<path d="M316.94 291.527C316.94 291.527 155.268 247.196 104.301 242.73C53.3339 238.264 102.158 248.701 102.158 248.701C102.158 248.701 240.517 285.1 272.884 300.106C305.254 315.113 316.94 291.527 316.94 291.527Z" fill="#F7C274"/>
<path d="M267.636 326.9C267.636 326.9 127.847 259.829 82.1973 247.238C36.5474 234.647 79.254 252.247 79.254 252.247C79.254 252.247 199.142 308.26 226.108 327.203C253.077 346.146 267.636 326.9 267.636 326.9Z" fill="#F7C274"/>
<path d="M216.724 233.357L213.098 304.26H216.724L218.356 233.357H216.724Z" fill="#ADC8FE"/>
<path d="M217.012 226.936L217.932 231.303L234.426 211.728L217.012 226.936Z" fill="#ADC8FE"/>
<path d="M222.939 232.18L218.489 231.848L232.691 253.142L222.939 232.18Z" fill="#ADC8FE"/>
<path d="M213.841 235.66L216.425 232.021L190.853 233.18L213.841 235.66Z" fill="#ADC8FE"/>
<path d="M215.441 231.848C215.441 230.746 216.334 229.853 217.436 229.853C218.537 229.853 219.43 230.746 219.43 231.848C219.43 232.949 218.537 233.842 217.436 233.842C216.334 233.842 215.441 232.949 215.441 231.848Z" fill="#ADC8FE"/>
<path d="M599.616 286.571C599.284 290.893 598.747 295.388 597.992 300.069C597.974 300.175 597.958 300.277 597.936 300.386C597.533 302.777 597.083 305.228 596.582 307.68C596.11 310.242 595.485 312.948 594.809 315.656C594.494 316.971 594.129 318.289 593.818 319.604C592.721 323.777 591.471 328.088 589.955 332.554C589.483 334.016 589.015 335.552 588.492 337.02C588.362 337.476 588.209 337.937 588.051 338.394H25.1997C25.1221 338.108 25.0202 337.724 24.8894 337.237L24.8384 337.09V337.02C24.8384 337.02 24.7874 336.942 24.7874 336.871C24.5791 336.288 24.4218 335.625 24.2134 334.825C24.107 334.457 24.0051 334.016 23.8477 333.58V333.431L23.7967 333.36C23.0787 330.75 22.1921 327.35 21.166 323.243C20.3215 319.858 19.3796 316.002 18.3689 311.705C16.2302 302.416 13.7745 291.077 11.3764 278.273C10.4367 273.225 9.49695 267.959 8.6082 262.471C8.08514 259.304 7.55987 256.004 7.05676 252.672C58.6508 272.271 191.334 316.314 286.091 291.684C303.119 287.261 321.907 283.298 341.621 279.756C346.025 278.963 350.48 278.191 354.968 277.442C406.081 268.889 461.964 262.963 508.791 258.876H508.802C509.343 258.829 509.879 258.783 510.42 258.736C510.947 258.69 511.475 258.645 512.002 258.599C512.643 258.546 513.281 258.488 513.919 258.433C515.245 258.322 516.561 258.207 517.873 258.098C518.044 258.085 518.212 258.069 518.385 258.056C519.391 257.969 520.391 257.887 521.388 257.805C525.068 257.497 528.678 257.203 532.213 256.919C533.006 256.857 533.802 256.793 534.587 256.731C535.46 256.66 536.329 256.591 537.189 256.522C538.352 256.431 539.505 256.343 540.651 256.252C541.36 256.199 542.062 256.143 542.763 256.09C544.015 255.993 545.256 255.899 546.484 255.804C547.089 255.758 547.69 255.713 548.29 255.667C549.115 255.605 549.935 255.545 550.75 255.481C550.817 255.474 550.881 255.469 550.95 255.467C552.284 255.368 553.603 255.268 554.908 255.17C555.323 255.139 555.739 255.11 556.152 255.079C556.174 255.077 556.192 255.077 556.205 255.073C556.225 255.071 556.236 255.071 556.236 255.071C566.797 254.288 576.28 253.625 584.397 253.063C585.82 254.78 587.187 256.533 588.497 258.342C589.159 259.279 589.8 260.23 590.416 261.199C592.238 264.053 593.858 267.045 595.228 270.206C596.179 272.409 597.008 274.694 597.699 277.065C598.579 280.084 599.233 283.249 599.621 286.578L599.616 286.571Z" fill="#82B378"/>
<path d="M354.966 277.438C341.59 284.958 312.754 304.207 295.034 338.389C294.908 338.626 294.786 338.866 294.662 339.105L281.191 338.389L276.978 338.165C277.383 337.024 296.173 308.537 341.621 279.752C346.025 278.958 350.48 278.187 354.968 277.438H354.966Z" fill="#6E9E63"/>
<path d="M305.229 338.214C305.657 337.013 327.51 303.772 381.498 273.692L385.746 277.014C385.746 277.014 344.219 295.264 321.94 339.107L305.229 338.214Z" fill="#6E9E63"/>
<path d="M344.259 338.214C344.687 337.013 366.54 303.772 420.527 273.692L424.776 277.014C424.776 277.014 383.251 295.264 360.97 339.107L344.259 338.214Z" fill="#6E9E63"/>
<path d="M556.231 255.066C556.231 255.066 480.588 262.761 433.351 311.425L403.548 302.884C404.37 301.682 436.729 276.471 508.789 258.874H508.8C526.072 257.369 542.113 256.11 556.231 255.066Z" fill="#6E9E63"/>
<path d="M595.221 270.199C561.243 278.404 506.845 297.203 466.171 338.389H440.129L420.993 332.851C422.207 330.973 474.07 287.582 590.412 261.192C592.234 264.047 593.854 267.039 595.224 270.199H595.221Z" fill="#6E9E63"/>
<path d="M323.884 337.614L324.272 337.514C324.117 336.82 323.729 322.875 328.104 314.743L327.752 314.553C323.319 322.793 323.736 337.039 323.884 337.611V337.614Z" fill="#6E9E63"/>
<path d="M328.853 307.274C328.853 307.274 330.229 310.162 329.392 311.456C328.554 312.751 327.86 309.056 328.853 307.274Z" fill="#FFCF83"/>
<path d="M329.713 319.462C329.713 319.462 328.337 316.572 329.174 315.277C330.012 313.983 330.706 317.678 329.713 319.462Z" fill="#FFCF83"/>
<path d="M326.096 308.156C326.096 308.156 328.649 310.087 328.501 311.623C328.352 313.158 326.036 310.197 326.096 308.156Z" fill="#FFCF83"/>
<path d="M332.47 318.58C332.47 318.58 329.917 316.649 330.065 315.113C330.214 313.577 332.53 316.538 332.47 318.58Z" fill="#FFCF83"/>
<path d="M324.077 310.233C324.077 310.233 327.229 310.794 327.791 312.23C328.357 313.666 324.95 312.077 324.077 310.233Z" fill="#FFCF83"/>
<path d="M334.489 316.629C334.489 316.629 331.338 316.069 330.775 314.632C330.21 313.196 333.616 314.785 334.489 316.629Z" fill="#FFCF83"/>
<path d="M323.425 315.299C323.425 315.299 325.95 313.331 327.395 313.872C328.84 314.413 325.382 315.885 323.425 315.299Z" fill="#FFCF83"/>
<path d="M335.378 312.855C335.378 312.855 332.554 314.36 331.222 313.58C329.893 312.799 333.552 311.944 335.378 312.855Z" fill="#FFCF83"/>
<path d="M324.817 317.498C324.817 317.498 326.386 314.708 327.927 314.65C329.467 314.59 326.845 317.283 324.817 317.498Z" fill="#FFCF83"/>
<path d="M334.288 309.779C334.288 309.779 332.719 312.567 331.176 312.627C329.636 312.686 332.258 309.994 334.288 309.779Z" fill="#FFCF83"/>
<path d="M326.883 319.143C326.883 319.143 327.089 315.949 328.452 315.229C329.815 314.508 328.618 318.07 326.883 319.143Z" fill="#FFCF83"/>
<path d="M332.076 308.083C332.076 308.083 331.87 311.277 330.507 311.997C329.144 312.717 330.34 309.156 332.076 308.083Z" fill="#FFCF83"/>
<path d="M323.264 313.238C323.264 313.238 326.253 312.097 327.477 313.037C328.7 313.976 324.963 314.371 323.264 313.238Z" fill="#FFCF83"/>
<path d="M331.51 313.431C331.51 312.201 330.513 311.204 329.283 311.204C328.053 311.204 327.056 312.201 327.056 313.431C327.056 314.661 328.053 315.659 329.283 315.659C330.513 315.659 331.51 314.661 331.51 313.431Z" fill="#365DA4"/>
<path d="M324.651 324.772C324.651 324.772 326.588 322.8 329.263 322.667C331.936 322.534 332.758 322.667 332.758 322.667C332.758 322.667 331.114 324.404 329.152 324.772C327.191 325.14 324.651 324.772 324.651 324.772Z" fill="#6E9E63"/>
<path d="M325.052 322.857C324.713 322.562 324.46 320.16 322.388 319.557C320.316 318.956 318.846 318.839 318.846 318.839C318.846 318.839 320.642 321.962 321.949 322.429C323.257 322.897 325.052 322.855 325.052 322.855V322.857Z" fill="#6E9E63"/>
<path d="M313.412 337.614L313.869 337.496C313.685 336.68 313.228 320.268 318.377 310.698L317.96 310.474C312.743 320.171 313.232 336.938 313.41 337.611L313.412 337.614Z" fill="#6E9E63"/>
<path d="M319.261 301.908C319.261 301.908 320.881 305.308 319.895 306.831C318.909 308.353 318.093 304.007 319.261 301.908Z" fill="#FFCF83"/>
<path d="M320.272 316.252C320.272 316.252 318.651 312.853 319.638 311.33C320.624 309.807 321.44 314.154 320.272 316.252Z" fill="#FFCF83"/>
<path d="M316.016 302.946C316.016 302.946 319.022 305.217 318.846 307.024C318.671 308.83 315.947 305.346 316.016 302.946Z" fill="#FFCF83"/>
<path d="M323.516 315.213C323.516 315.213 320.513 312.941 320.686 311.135C320.861 309.329 323.585 312.813 323.516 315.213Z" fill="#FFCF83"/>
<path d="M313.64 305.392C313.64 305.392 317.348 306.053 318.013 307.742C318.678 309.431 314.669 307.562 313.64 305.392Z" fill="#FFCF83"/>
<path d="M325.892 312.917C325.892 312.917 322.184 312.256 321.519 310.568C320.854 308.879 324.864 310.747 325.892 312.917Z" fill="#FFCF83"/>
<path d="M312.873 311.352C312.873 311.352 315.843 309.036 317.543 309.672C319.243 310.308 315.174 312.039 312.873 311.352Z" fill="#FFCF83"/>
<path d="M326.938 308.478C326.938 308.478 323.614 310.248 322.049 309.331C320.484 308.413 324.791 307.405 326.938 308.478Z" fill="#FFCF83"/>
<path d="M314.509 313.941C314.509 313.941 316.355 310.658 318.171 310.59C319.983 310.521 316.898 313.688 314.509 313.941Z" fill="#FFCF83"/>
<path d="M325.655 304.856C325.655 304.856 323.809 308.138 321.994 308.207C320.181 308.278 323.266 305.109 325.655 304.856Z" fill="#FFCF83"/>
<path d="M316.94 315.876C316.94 315.876 317.182 312.117 318.789 311.268C320.393 310.419 318.984 314.612 316.94 315.876Z" fill="#FFCF83"/>
<path d="M323.053 302.859C323.053 302.859 322.812 306.618 321.207 307.467C319.602 308.316 321.012 304.122 323.053 302.859Z" fill="#FFCF83"/>
<path d="M312.683 308.927C312.683 308.927 316.202 307.584 317.641 308.688C319.079 309.794 314.682 310.257 312.683 308.927Z" fill="#FFCF83"/>
<path d="M322.388 309.156C322.388 307.708 321.213 306.534 319.766 306.534C318.319 306.534 317.144 307.708 317.144 309.156C317.144 310.603 318.319 311.778 319.766 311.778C321.213 311.778 322.388 310.605 322.388 309.156Z" fill="#365DA4"/>
<path d="M313.58 329.118C313.58 329.118 315.861 326.798 319.006 326.64C322.153 326.483 323.119 326.64 323.119 326.64C323.119 326.64 321.185 328.686 318.875 329.118C316.568 329.55 313.578 329.118 313.578 329.118H313.58Z" fill="#6E9E63"/>
<path d="M314.052 326.866C313.654 326.521 313.354 323.69 310.916 322.983C308.478 322.276 306.747 322.139 306.747 322.139C306.747 322.139 308.86 325.814 310.4 326.366C311.938 326.915 314.052 326.866 314.052 326.866Z" fill="#6E9E63"/>
<path d="M326.045 337.614L326.32 337.543C326.209 337.053 325.937 327.206 329.026 321.463L328.778 321.328C325.648 327.146 325.941 337.206 326.047 337.611L326.045 337.614Z" fill="#6E9E63"/>
<path d="M329.554 316.19C329.554 316.19 330.526 318.229 329.933 319.145C329.341 320.058 328.851 317.452 329.554 316.19Z" fill="#FFCF83"/>
<path d="M330.161 324.796C330.161 324.796 329.188 322.757 329.782 321.842C330.374 320.929 330.863 323.538 330.161 324.796Z" fill="#FFCF83"/>
<path d="M327.607 316.813C327.607 316.813 329.409 318.176 329.305 319.26C329.201 320.344 327.565 318.254 327.607 316.813Z" fill="#FFCF83"/>
<path d="M332.109 324.174C332.109 324.174 330.307 322.811 330.411 321.727C330.515 320.643 332.151 322.733 332.109 324.174Z" fill="#FFCF83"/>
<path d="M326.182 318.28C326.182 318.28 328.408 318.677 328.807 319.69C329.206 320.703 326.801 319.584 326.182 318.28Z" fill="#FFCF83"/>
<path d="M333.532 322.795C333.532 322.795 331.307 322.398 330.908 321.385C330.509 320.373 332.913 321.492 333.532 322.795Z" fill="#FFCF83"/>
<path d="M325.721 321.858C325.721 321.858 327.503 320.468 328.523 320.849C329.542 321.23 327.102 322.27 325.721 321.858Z" fill="#FFCF83"/>
<path d="M334.161 320.131C334.161 320.131 332.167 321.195 331.227 320.643C330.287 320.093 332.871 319.488 334.161 320.131Z" fill="#FFCF83"/>
<path d="M326.703 323.409C326.703 323.409 327.811 321.439 328.9 321.397C329.988 321.355 328.137 323.256 326.703 323.409Z" fill="#FFCF83"/>
<path d="M333.392 317.959C333.392 317.959 332.284 319.929 331.196 319.971C330.108 320.014 331.958 318.112 333.392 317.959Z" fill="#FFCF83"/>
<path d="M328.162 324.57C328.162 324.57 328.308 322.316 329.27 321.807C330.232 321.297 329.387 323.812 328.162 324.57Z" fill="#FFCF83"/>
<path d="M331.83 316.76C331.83 316.76 331.683 319.014 330.721 319.524C329.76 320.034 330.604 317.518 331.83 316.76Z" fill="#FFCF83"/>
<path d="M325.606 320.401C325.606 320.401 327.718 319.595 328.581 320.26C329.445 320.922 326.805 321.202 325.606 320.401Z" fill="#FFCF83"/>
<path d="M331.431 320.539C331.431 319.67 330.726 318.965 329.857 318.965C328.988 318.965 328.284 319.67 328.284 320.539C328.284 321.408 328.988 322.112 329.857 322.112C330.726 322.112 331.431 321.408 331.431 320.539Z" fill="#365DA4"/>
<path d="M326.145 332.516C326.145 332.516 327.512 331.124 329.401 331.029C331.289 330.933 331.867 331.029 331.867 331.029C331.867 331.029 330.706 332.257 329.321 332.516C327.936 332.775 326.143 332.516 326.143 332.516H326.145Z" fill="#6E9E63"/>
<path d="M326.428 331.166C326.189 330.958 326.01 329.26 324.547 328.837C323.084 328.413 322.045 328.329 322.045 328.329C322.045 328.329 323.312 330.535 324.236 330.865C325.161 331.195 326.428 331.166 326.428 331.166Z" fill="#6E9E63"/>
<path d="M341.28 337.614L341.737 337.496C341.553 336.68 341.096 320.268 346.247 310.698L345.83 310.474C340.613 320.171 341.103 336.938 341.28 337.611V337.614Z" fill="#6E9E63"/>
<path d="M347.129 301.908C347.129 301.908 348.749 305.308 347.763 306.831C346.777 308.353 345.961 304.007 347.129 301.908Z" fill="#FFCF83"/>
<path d="M348.14 316.252C348.14 316.252 346.52 312.853 347.506 311.33C348.492 309.807 349.308 314.154 348.14 316.252Z" fill="#FFCF83"/>
<path d="M343.882 302.946C343.882 302.946 346.885 305.217 346.712 307.024C346.537 308.83 343.813 305.346 343.882 302.946Z" fill="#FFCF83"/>
<path d="M351.384 315.213C351.384 315.213 348.381 312.941 348.554 311.135C348.729 309.329 351.453 312.813 351.384 315.213Z" fill="#FFCF83"/>
<path d="M341.509 305.392C341.509 305.392 345.216 306.053 345.881 307.742C346.546 309.431 342.537 307.562 341.509 305.392Z" fill="#FFCF83"/>
<path d="M353.761 312.917C353.761 312.917 350.053 312.256 349.388 310.568C348.723 308.879 352.732 310.747 353.761 312.917Z" fill="#FFCF83"/>
<path d="M340.739 311.352C340.739 311.352 343.709 309.036 345.409 309.672C347.109 310.308 343.04 312.039 340.739 311.352Z" fill="#FFCF83"/>
<path d="M354.806 308.478C354.806 308.478 351.482 310.248 349.917 309.331C348.353 308.413 352.657 307.405 354.806 308.478Z" fill="#FFCF83"/>
<path d="M342.377 313.941C342.377 313.941 344.224 310.658 346.039 310.59C347.852 310.521 344.767 313.688 342.377 313.941Z" fill="#FFCF83"/>
<path d="M353.523 304.856C353.523 304.856 351.677 308.138 349.862 308.207C348.049 308.278 351.134 305.109 353.523 304.856Z" fill="#FFCF83"/>
<path d="M344.809 315.876C344.809 315.876 345.05 312.117 346.655 311.268C348.259 310.419 346.85 314.612 344.809 315.876Z" fill="#FFCF83"/>
<path d="M350.919 302.859C350.919 302.859 350.675 306.618 349.073 307.467C347.468 308.316 348.878 304.122 350.919 302.859Z" fill="#FFCF83"/>
<path d="M340.549 308.927C340.549 308.927 344.068 307.584 345.507 308.688C346.947 309.794 342.548 310.257 340.549 308.927Z" fill="#FFCF83"/>
<path d="M347.634 311.778C349.083 311.778 350.256 310.604 350.256 309.156C350.256 307.708 349.083 306.534 347.634 306.534C346.186 306.534 345.013 307.708 345.013 309.156C345.013 310.604 346.186 311.778 347.634 311.778Z" fill="#365DA4"/>
<path d="M342.182 322.5C342.182 322.5 344.463 320.18 347.608 320.022C350.753 319.865 351.721 320.022 351.721 320.022C351.721 320.022 349.787 322.068 347.477 322.5C345.17 322.933 342.18 322.5 342.18 322.5H342.182Z" fill="#6E9E63"/>
<path d="M342.654 320.248C342.258 319.903 341.956 317.072 339.518 316.365C337.08 315.658 335.349 315.521 335.349 315.521C335.349 315.521 337.461 319.196 339.002 319.748C340.54 320.297 342.654 320.248 342.654 320.248Z" fill="#6E9E63"/>
<path d="M332.84 337.614L333.297 337.487C333.113 336.605 332.656 318.848 337.805 308.495L337.388 308.254C332.171 318.746 332.661 336.884 332.838 337.614H332.84Z" fill="#6E9E63"/>
<path d="M338.689 298.983C338.689 298.983 340.309 302.662 339.323 304.309C338.337 305.958 337.521 301.255 338.689 298.983Z" fill="#FFCF83"/>
<path d="M339.7 314.502C339.7 314.502 338.08 310.822 339.066 309.176C340.052 307.529 340.868 312.232 339.7 314.502Z" fill="#FFCF83"/>
<path d="M335.445 300.106C335.445 300.106 338.448 302.564 338.275 304.519C338.1 306.474 335.376 302.704 335.445 300.106Z" fill="#FFCF83"/>
<path d="M342.945 313.378C342.945 313.378 339.942 310.92 340.114 308.965C340.29 307.01 343.013 310.78 342.945 313.378Z" fill="#FFCF83"/>
<path d="M333.069 302.753C333.069 302.753 336.777 303.469 337.442 305.295C338.106 307.121 334.097 305.102 333.069 302.753Z" fill="#FFCF83"/>
<path d="M345.321 310.896C345.321 310.896 341.613 310.18 340.948 308.353C340.283 306.525 344.292 308.546 345.321 310.896Z" fill="#FFCF83"/>
<path d="M332.302 309.202C332.302 309.202 335.272 306.698 336.972 307.385C338.672 308.072 334.602 309.947 332.302 309.202Z" fill="#FFCF83"/>
<path d="M346.367 306.091C346.367 306.091 343.042 308.008 341.477 307.015C339.913 306.022 344.219 304.931 346.367 306.091Z" fill="#FFCF83"/>
<path d="M333.938 312.002C333.938 312.002 335.784 308.451 337.599 308.376C339.412 308.3 336.327 311.727 333.938 312.002Z" fill="#FFCF83"/>
<path d="M345.083 302.174C345.083 302.174 343.237 305.725 341.422 305.8C339.609 305.876 342.694 302.447 345.083 302.174Z" fill="#FFCF83"/>
<path d="M336.369 314.094C336.369 314.094 336.61 310.027 338.215 309.109C339.82 308.192 338.41 312.726 336.369 314.094Z" fill="#FFCF83"/>
<path d="M342.481 300.013C342.481 300.013 342.238 304.08 340.635 304.998C339.031 305.915 340.44 301.381 342.481 300.013Z" fill="#FFCF83"/>
<path d="M332.111 306.578C332.111 306.578 335.631 305.124 337.069 306.321C338.51 307.518 334.11 308.019 332.111 306.578Z" fill="#FFCF83"/>
<path d="M341.816 306.824C341.816 305.257 340.642 303.987 339.195 303.987C337.747 303.987 336.573 305.257 336.573 306.824C336.573 308.391 337.747 309.661 339.195 309.661C340.642 309.661 341.816 308.391 341.816 306.824Z" fill="#365DA4"/>
<path d="M333.009 328.422C333.009 328.422 335.289 325.911 338.434 325.743C341.582 325.572 342.548 325.743 342.548 325.743C342.548 325.743 340.613 327.955 338.304 328.422C335.996 328.89 333.007 328.422 333.007 328.422H333.009Z" fill="#6E9E63"/>
<path d="M333.481 325.987C333.084 325.612 332.783 322.551 330.345 321.784C327.907 321.018 326.176 320.871 326.176 320.871C326.176 320.871 328.288 324.847 329.828 325.444C331.366 326.04 333.481 325.987 333.481 325.987Z" fill="#6E9E63"/>
<path d="M343.822 337.613L344.146 337.531C344.017 336.955 343.694 325.366 347.331 318.608L347.038 318.451C343.355 325.297 343.7 337.137 343.824 337.613H343.822Z" fill="#6E9E63"/>
<path d="M347.954 312.401C347.954 312.401 349.097 314.801 348.401 315.876C347.703 316.951 347.129 313.881 347.954 312.401Z" fill="#FFCF83"/>
<path d="M348.667 322.529C348.667 322.529 347.524 320.129 348.219 319.054C348.918 317.979 349.492 321.049 348.667 322.529Z" fill="#FFCF83"/>
<path d="M345.662 313.134C345.662 313.134 347.783 314.739 347.659 316.013C347.535 317.29 345.611 314.83 345.662 313.134Z" fill="#FFCF83"/>
<path d="M350.959 321.796C350.959 321.796 348.838 320.191 348.962 318.917C349.086 317.642 351.01 320.1 350.959 321.796Z" fill="#FFCF83"/>
<path d="M343.984 314.861C343.984 314.861 346.602 315.328 347.071 316.521C347.541 317.713 344.709 316.394 343.984 314.861Z" fill="#FFCF83"/>
<path d="M352.634 320.175C352.634 320.175 350.017 319.708 349.547 318.515C349.077 317.323 351.91 318.642 352.634 320.175Z" fill="#FFCF83"/>
<path d="M343.441 319.069C343.441 319.069 345.538 317.434 346.739 317.884C347.94 318.334 345.066 319.555 343.441 319.069Z" fill="#FFCF83"/>
<path d="M353.375 317.039C353.375 317.039 351.028 318.289 349.922 317.642C348.816 316.995 351.857 316.281 353.375 317.039Z" fill="#FFCF83"/>
<path d="M344.598 320.898C344.598 320.898 345.901 318.58 347.182 318.531C348.463 318.482 346.285 320.718 344.598 320.898Z" fill="#FFCF83"/>
<path d="M352.468 314.484C352.468 314.484 351.165 316.802 349.884 316.851C348.603 316.9 350.782 314.663 352.468 314.484Z" fill="#FFCF83"/>
<path d="M346.313 322.263C346.313 322.263 346.484 319.61 347.617 319.01C348.749 318.411 347.754 321.37 346.313 322.263Z" fill="#FFCF83"/>
<path d="M350.629 313.074C350.629 313.074 350.458 315.727 349.325 316.328C348.193 316.926 349.188 313.967 350.629 313.074Z" fill="#FFCF83"/>
<path d="M343.306 317.358C343.306 317.358 345.79 316.41 346.808 317.19C347.825 317.97 344.718 318.298 343.306 317.358Z" fill="#FFCF83"/>
<path d="M350.161 317.518C350.161 316.496 349.332 315.667 348.31 315.667C347.289 315.667 346.46 316.496 346.46 317.518C346.46 318.54 347.289 319.369 348.31 319.369C349.332 319.369 350.161 318.54 350.161 317.518Z" fill="#365DA4"/>
<path d="M343.942 331.616C343.942 331.616 345.553 329.978 347.774 329.867C349.995 329.757 350.677 329.867 350.677 329.867C350.677 329.867 349.31 331.31 347.681 331.616C346.052 331.922 343.942 331.616 343.942 331.616Z" fill="#6E9E63"/>
<path d="M344.274 330.025C343.993 329.781 343.782 327.782 342.06 327.283C340.338 326.785 339.117 326.687 339.117 326.687C339.117 326.687 340.609 329.282 341.697 329.67C342.783 330.058 344.274 330.025 344.274 330.025Z" fill="#6E9E63"/>
<path d="M355.626 337.614L355.859 337.554C355.766 337.139 355.533 328.795 358.151 323.93L357.94 323.817C355.287 328.746 355.538 337.27 355.626 337.614Z" fill="#6E9E63"/>
<path d="M358.601 319.462C358.601 319.462 359.425 321.19 358.922 321.964C358.421 322.737 358.007 320.528 358.601 319.462Z" fill="#FFCF83"/>
<path d="M359.113 326.753C359.113 326.753 358.288 325.025 358.791 324.251C359.292 323.478 359.707 325.687 359.113 326.753Z" fill="#FFCF83"/>
<path d="M356.95 319.989C356.95 319.989 358.477 321.144 358.388 322.064C358.299 322.981 356.914 321.21 356.95 319.989Z" fill="#FFCF83"/>
<path d="M360.764 326.226C360.764 326.226 359.237 325.071 359.326 324.154C359.414 323.236 360.799 325.007 360.764 326.226Z" fill="#FFCF83"/>
<path d="M355.742 321.233C355.742 321.233 357.628 321.569 357.965 322.427C358.302 323.287 356.265 322.336 355.742 321.233Z" fill="#FFCF83"/>
<path d="M361.972 325.058C361.972 325.058 360.088 324.721 359.749 323.863C359.412 323.006 361.449 323.954 361.972 325.058Z" fill="#FFCF83"/>
<path d="M355.352 324.262C355.352 324.262 356.861 323.085 357.725 323.409C358.59 323.733 356.522 324.612 355.352 324.262Z" fill="#FFCF83"/>
<path d="M362.504 322.802C362.504 322.802 360.815 323.702 360.017 323.236C359.219 322.771 361.411 322.257 362.504 322.802Z" fill="#FFCF83"/>
<path d="M356.185 325.579C356.185 325.579 357.125 323.91 358.047 323.874C358.969 323.839 357.4 325.45 356.185 325.579Z" fill="#FFCF83"/>
<path d="M361.852 320.96C361.852 320.96 360.913 322.629 359.991 322.664C359.069 322.7 360.638 321.089 361.852 320.96Z" fill="#FFCF83"/>
<path d="M357.422 326.563C357.422 326.563 357.546 324.652 358.361 324.22C359.177 323.788 358.461 325.92 357.422 326.563Z" fill="#FFCF83"/>
<path d="M360.527 319.945C360.527 319.945 360.403 321.855 359.587 322.288C358.771 322.72 359.487 320.588 360.527 319.945Z" fill="#FFCF83"/>
<path d="M355.254 323.03C355.254 323.03 357.043 322.347 357.774 322.908C358.506 323.471 356.269 323.706 355.254 323.03Z" fill="#FFCF83"/>
<path d="M358.858 324.477C359.594 324.477 360.19 323.881 360.19 323.145C360.19 322.41 359.594 321.813 358.858 321.813C358.122 321.813 357.526 322.41 357.526 323.145C357.526 323.881 358.122 324.477 358.858 324.477Z" fill="#365DA4"/>
<path d="M356.085 329.929C356.085 329.929 357.244 328.75 358.845 328.671C360.445 328.591 360.935 328.671 360.935 328.671C360.935 328.671 359.951 329.71 358.778 329.929C357.606 330.149 356.085 329.929 356.085 329.929Z" fill="#6E9E63"/>
<path d="M356.325 328.786C356.123 328.609 355.97 327.172 354.731 326.811C353.492 326.452 352.612 326.381 352.612 326.381C352.612 326.381 353.687 328.249 354.47 328.529C355.252 328.808 356.327 328.784 356.327 328.784L356.325 328.786Z" fill="#6E9E63"/>
<path d="M349.361 337.613L349.634 337.543C349.523 337.055 349.25 327.237 352.331 321.51L352.083 321.377C348.962 327.179 349.255 337.21 349.359 337.613H349.361Z" fill="#6E9E63"/>
<path d="M352.86 316.253C352.86 316.253 353.831 318.287 353.239 319.198C352.65 320.109 352.162 317.509 352.86 316.253Z" fill="#FFCF83"/>
<path d="M353.466 324.832C353.466 324.832 352.495 322.797 353.087 321.886C353.676 320.975 354.164 323.575 353.466 324.832Z" fill="#FFCF83"/>
<path d="M350.919 316.873C350.919 316.873 352.716 318.232 352.612 319.313C352.508 320.395 350.877 318.309 350.919 316.873Z" fill="#FFCF83"/>
<path d="M355.407 324.211C355.407 324.211 353.61 322.853 353.714 321.771C353.818 320.69 355.449 322.775 355.407 324.211Z" fill="#FFCF83"/>
<path d="M349.498 318.336C349.498 318.336 351.717 318.73 352.114 319.741C352.51 320.752 350.112 319.635 349.498 318.336Z" fill="#FFCF83"/>
<path d="M356.828 322.837C356.828 322.837 354.609 322.443 354.212 321.432C353.816 320.421 356.214 321.538 356.828 322.837Z" fill="#FFCF83"/>
<path d="M349.04 321.902C349.04 321.902 350.817 320.517 351.834 320.896C352.852 321.275 350.416 322.312 349.04 321.902Z" fill="#FFCF83"/>
<path d="M357.455 320.182C357.455 320.182 355.467 321.241 354.529 320.692C353.592 320.142 356.17 319.539 357.455 320.182Z" fill="#FFCF83"/>
<path d="M350.019 323.451C350.019 323.451 351.125 321.487 352.209 321.445C353.295 321.403 351.449 323.298 350.019 323.451Z" fill="#FFCF83"/>
<path d="M356.688 318.014C356.688 318.014 355.582 319.978 354.498 320.02C353.412 320.062 355.259 318.167 356.688 318.014Z" fill="#FFCF83"/>
<path d="M351.473 324.608C351.473 324.608 351.619 322.359 352.579 321.851C353.539 321.343 352.697 323.852 351.473 324.608Z" fill="#FFCF83"/>
<path d="M355.13 316.82C355.13 316.82 354.984 319.069 354.024 319.577C353.064 320.085 353.907 317.576 355.13 316.82Z" fill="#FFCF83"/>
<path d="M348.924 320.45C348.924 320.45 351.03 319.646 351.89 320.308C352.752 320.969 350.119 321.248 348.924 320.45Z" fill="#FFCF83"/>
<path d="M354.731 320.588C354.731 319.721 354.029 319.018 353.162 319.018C352.295 319.018 351.593 319.721 351.593 320.588C351.593 321.454 352.295 322.157 353.162 322.157C354.029 322.157 354.731 321.454 354.731 320.588Z" fill="#365DA4"/>
<path d="M349.463 332.531C349.463 332.531 350.828 331.144 352.71 331.049C354.592 330.956 355.17 331.049 355.17 331.049C355.17 331.049 354.013 332.272 352.63 332.531C351.249 332.791 349.461 332.531 349.461 332.531H349.463Z" fill="#6E9E63"/>
<path d="M349.744 331.184C349.507 330.976 349.328 329.285 347.869 328.861C346.411 328.438 345.376 328.356 345.376 328.356C345.376 328.356 346.642 330.554 347.561 330.885C348.481 331.215 349.747 331.184 349.747 331.184H349.744Z" fill="#6E9E63"/>
<path d="M356.919 337.614L357.083 337.571C357.016 337.279 356.852 331.388 358.701 327.953L358.552 327.873C356.679 331.355 356.854 337.372 356.919 337.616V337.614Z" fill="#6E9E63"/>
<path d="M359.02 324.796C359.02 324.796 359.6 326.018 359.248 326.563C358.893 327.11 358.601 325.55 359.02 324.796Z" fill="#FFCF83"/>
<path d="M359.381 329.945C359.381 329.945 358.8 328.724 359.153 328.179C359.507 327.631 359.8 329.191 359.381 329.945Z" fill="#FFCF83"/>
<path d="M357.854 325.169C357.854 325.169 358.933 325.984 358.869 326.634C358.807 327.283 357.827 326.031 357.854 325.169Z" fill="#FFCF83"/>
<path d="M360.547 329.573C360.547 329.573 359.467 328.757 359.532 328.108C359.594 327.458 360.573 328.711 360.547 329.573Z" fill="#FFCF83"/>
<path d="M357.001 326.046C357.001 326.046 358.333 326.284 358.57 326.891C358.809 327.498 357.369 326.827 357.001 326.046Z" fill="#FFCF83"/>
<path d="M361.4 328.748C361.4 328.748 360.068 328.511 359.831 327.904C359.592 327.296 361.032 327.968 361.4 328.748Z" fill="#FFCF83"/>
<path d="M356.726 328.185C356.726 328.185 357.792 327.354 358.401 327.582C359.011 327.811 357.55 328.433 356.726 328.185Z" fill="#FFCF83"/>
<path d="M361.775 327.155C361.775 327.155 360.582 327.791 360.019 327.461C359.456 327.13 361.003 326.769 361.775 327.155Z" fill="#FFCF83"/>
<path d="M357.313 329.116C357.313 329.116 357.976 327.937 358.627 327.913C359.279 327.888 358.171 329.025 357.313 329.116Z" fill="#FFCF83"/>
<path d="M361.316 325.854C361.316 325.854 360.653 327.033 360.001 327.057C359.35 327.081 360.458 325.945 361.316 325.854Z" fill="#FFCF83"/>
<path d="M358.186 329.81C358.186 329.81 358.273 328.46 358.849 328.156C359.425 327.851 358.92 329.358 358.186 329.81Z" fill="#FFCF83"/>
<path d="M360.381 325.138C360.381 325.138 360.294 326.487 359.718 326.791C359.142 327.095 359.647 325.59 360.381 325.138Z" fill="#FFCF83"/>
<path d="M356.657 327.316C356.657 327.316 357.92 326.833 358.437 327.23C358.953 327.627 357.375 327.793 356.657 327.316Z" fill="#FFCF83"/>
<path d="M360.141 327.398C360.141 326.878 359.72 326.456 359.199 326.456C358.678 326.456 358.257 326.878 358.257 327.398C358.257 327.919 358.678 328.34 359.199 328.34C359.72 328.34 360.141 327.919 360.141 327.398Z" fill="#365DA4"/>
<path d="M356.981 334.564C356.981 334.564 357.799 333.73 358.929 333.675C360.059 333.62 360.405 333.675 360.405 333.675C360.405 333.675 359.709 334.409 358.882 334.564C358.053 334.719 356.981 334.564 356.981 334.564Z" fill="#6E9E63"/>
<path d="M357.149 333.757C357.007 333.633 356.899 332.618 356.023 332.363C355.148 332.108 354.527 332.059 354.527 332.059C354.527 332.059 355.285 333.378 355.837 333.575C356.389 333.773 357.149 333.755 357.149 333.755V333.757Z" fill="#6E9E63"/>
<path d="M366.034 337.613L366.307 337.543C366.196 337.055 365.924 327.237 369.004 321.51L368.756 321.377C365.635 327.179 365.928 337.21 366.034 337.613Z" fill="#6E9E63"/>
<path d="M369.534 316.253C369.534 316.253 370.505 318.287 369.913 319.198C369.323 320.109 368.836 317.509 369.534 316.253Z" fill="#FFCF83"/>
<path d="M370.139 324.832C370.139 324.832 369.168 322.797 369.76 321.886C370.35 320.975 370.837 323.575 370.139 324.832Z" fill="#FFCF83"/>
<path d="M367.592 316.873C367.592 316.873 369.39 318.232 369.286 319.313C369.182 320.395 367.55 318.309 367.592 316.873Z" fill="#FFCF83"/>
<path d="M372.081 324.211C372.081 324.211 370.283 322.853 370.387 321.771C370.491 320.69 372.123 322.775 372.081 324.211Z" fill="#FFCF83"/>
<path d="M366.172 318.336C366.172 318.336 368.39 318.73 368.787 319.741C369.184 320.752 366.786 319.635 366.172 318.336Z" fill="#FFCF83"/>
<path d="M373.501 322.837C373.501 322.837 371.283 322.443 370.886 321.432C370.489 320.421 372.887 321.538 373.501 322.837Z" fill="#FFCF83"/>
<path d="M365.711 321.902C365.711 321.902 367.488 320.517 368.506 320.896C369.523 321.277 367.089 322.312 365.711 321.902Z" fill="#FFCF83"/>
<path d="M374.129 320.182C374.129 320.182 372.14 321.241 371.203 320.692C370.265 320.142 372.843 319.539 374.129 320.182Z" fill="#FFCF83"/>
<path d="M366.69 323.451C366.69 323.451 367.796 321.487 368.88 321.445C369.966 321.403 368.12 323.298 366.69 323.451Z" fill="#FFCF83"/>
<path d="M373.359 318.014C373.359 318.014 372.253 319.978 371.17 320.02C370.084 320.062 371.93 318.167 373.359 318.014Z" fill="#FFCF83"/>
<path d="M368.147 324.608C368.147 324.608 368.293 322.359 369.253 321.851C370.212 321.343 369.37 323.852 368.147 324.608Z" fill="#FFCF83"/>
<path d="M371.801 316.82C371.801 316.82 371.655 319.069 370.695 319.577C369.736 320.085 370.578 317.576 371.801 316.82Z" fill="#FFCF83"/>
<path d="M365.598 320.45C365.598 320.45 367.703 319.646 368.563 320.308C369.425 320.969 366.792 321.248 365.598 320.45Z" fill="#FFCF83"/>
<path d="M371.405 320.588C371.405 319.721 370.702 319.018 369.835 319.018C368.969 319.018 368.266 319.721 368.266 320.588C368.266 321.454 368.969 322.157 369.835 322.157C370.702 322.157 371.405 321.454 371.405 320.588Z" fill="#365DA4"/>
<path d="M366.575 328.571C366.575 328.571 367.94 327.183 369.822 327.088C371.704 326.993 372.282 327.088 372.282 327.088C372.282 327.088 371.125 328.312 369.745 328.571C368.364 328.83 366.575 328.571 366.575 328.571Z" fill="#6E9E63"/>
<path d="M366.857 327.223C366.62 327.015 366.44 325.324 364.982 324.901C363.523 324.477 362.488 324.395 362.488 324.395C362.488 324.395 363.752 326.594 364.674 326.924C365.593 327.254 366.859 327.223 366.859 327.223H366.857Z" fill="#6E9E63"/>
<path d="M360.986 337.614L361.258 337.538C361.147 337.011 360.875 326.388 363.955 320.193L363.707 320.049C360.587 326.326 360.879 337.179 360.986 337.616V337.614Z" fill="#6E9E63"/>
<path d="M364.485 314.502C364.485 314.502 365.456 316.702 364.864 317.689C364.275 318.675 363.787 315.86 364.485 314.502Z" fill="#FFCF83"/>
<path d="M365.09 323.786C365.09 323.786 364.119 321.585 364.711 320.599C365.303 319.612 365.788 322.427 365.09 323.786Z" fill="#FFCF83"/>
<path d="M362.544 315.173C362.544 315.173 364.341 316.643 364.237 317.813C364.133 318.983 362.502 316.727 362.544 315.173Z" fill="#FFCF83"/>
<path d="M367.032 323.114C367.032 323.114 365.234 321.645 365.338 320.475C365.443 319.304 367.074 321.561 367.032 323.114Z" fill="#FFCF83"/>
<path d="M361.123 316.756C361.123 316.756 363.341 317.183 363.738 318.276C364.135 319.369 361.737 318.161 361.123 316.756Z" fill="#FFCF83"/>
<path d="M368.452 321.627C368.452 321.627 366.234 321.199 365.837 320.107C365.44 319.014 367.838 320.222 368.452 321.627Z" fill="#FFCF83"/>
<path d="M360.662 320.614C360.662 320.614 362.439 319.116 363.457 319.526C364.474 319.938 362.038 321.06 360.662 320.614Z" fill="#FFCF83"/>
<path d="M369.08 318.755C369.08 318.755 367.092 319.901 366.154 319.307C365.217 318.713 367.794 318.061 369.08 318.755Z" fill="#FFCF83"/>
<path d="M361.642 322.29C361.642 322.29 362.748 320.164 363.831 320.12C364.917 320.076 363.071 322.126 361.642 322.29Z" fill="#FFCF83"/>
<path d="M368.311 316.41C368.311 316.41 367.205 318.535 366.121 318.58C365.035 318.624 366.881 316.574 368.311 316.41Z" fill="#FFCF83"/>
<path d="M363.098 323.542C363.098 323.542 363.244 321.109 364.204 320.559C365.163 320.009 364.321 322.724 363.098 323.542Z" fill="#FFCF83"/>
<path d="M366.752 315.118C366.752 315.118 366.606 317.551 365.647 318.101C364.687 318.651 365.529 315.938 366.752 315.118Z" fill="#FFCF83"/>
<path d="M360.549 319.045C360.549 319.045 362.654 318.176 363.514 318.89C364.377 319.606 361.744 319.907 360.549 319.045Z" fill="#FFCF83"/>
<path d="M366.356 319.191C366.356 318.254 365.653 317.494 364.787 317.494C363.92 317.494 363.217 318.254 363.217 319.191C363.217 320.129 363.92 320.889 364.787 320.889C365.653 320.889 366.356 320.129 366.356 319.191Z" fill="#365DA4"/>
<path d="M361.085 332.115C361.085 332.115 362.451 330.612 364.332 330.51C366.214 330.408 366.792 330.51 366.792 330.51C366.792 330.51 365.633 331.833 364.255 332.115C362.874 332.394 361.085 332.115 361.085 332.115Z" fill="#6E9E63"/>
<path d="M361.369 330.659C361.132 330.435 360.952 328.604 359.494 328.145C358.036 327.687 357.001 327.6 357.001 327.6C357.001 327.6 358.264 329.978 359.186 330.335C360.106 330.692 361.371 330.659 361.371 330.659H361.369Z" fill="#6E9E63"/>
<path d="M367.557 337.613L367.75 337.565C367.672 337.221 367.479 330.286 369.654 326.244L369.479 326.148C367.273 330.244 367.482 337.328 367.557 337.613Z" fill="#6E9E63"/>
<path d="M370.026 322.529C370.026 322.529 370.711 323.965 370.294 324.608C369.877 325.251 369.534 323.416 370.026 322.529Z" fill="#FFCF83"/>
<path d="M370.454 328.589C370.454 328.589 369.769 327.152 370.185 326.51C370.602 325.867 370.946 327.702 370.454 328.589Z" fill="#FFCF83"/>
<path d="M368.656 322.968C368.656 322.968 369.926 323.928 369.851 324.69C369.778 325.452 368.625 323.981 368.656 322.968Z" fill="#FFCF83"/>
<path d="M371.826 328.15C371.826 328.15 370.556 327.19 370.631 326.428C370.704 325.665 371.857 327.137 371.826 328.15Z" fill="#FFCF83"/>
<path d="M367.652 324.001C367.652 324.001 369.219 324.28 369.499 324.994C369.78 325.707 368.085 324.918 367.652 324.001Z" fill="#FFCF83"/>
<path d="M372.828 327.181C372.828 327.181 371.261 326.902 370.981 326.188C370.7 325.475 372.395 326.264 372.828 327.181Z" fill="#FFCF83"/>
<path d="M367.329 326.519C367.329 326.519 368.583 325.541 369.301 325.809C370.019 326.078 368.299 326.809 367.329 326.519Z" fill="#FFCF83"/>
<path d="M373.271 325.304C373.271 325.304 371.866 326.053 371.205 325.665C370.545 325.277 372.362 324.852 373.271 325.304Z" fill="#FFCF83"/>
<path d="M368.02 327.613C368.02 327.613 368.8 326.226 369.567 326.197C370.334 326.168 369.031 327.507 368.02 327.613Z" fill="#FFCF83"/>
<path d="M372.728 323.775C372.728 323.775 371.947 325.162 371.181 325.191C370.414 325.22 371.717 323.881 372.728 323.775Z" fill="#FFCF83"/>
<path d="M369.046 328.429C369.046 328.429 369.148 326.842 369.827 326.483C370.505 326.124 369.909 327.895 369.046 328.429Z" fill="#FFCF83"/>
<path d="M371.628 322.93C371.628 322.93 371.526 324.519 370.848 324.876C370.17 325.235 370.766 323.464 371.628 322.93Z" fill="#FFCF83"/>
<path d="M367.247 325.495C367.247 325.495 368.734 324.927 369.341 325.395C369.948 325.862 368.091 326.057 367.247 325.495Z" fill="#FFCF83"/>
<path d="M371.347 325.59C371.347 324.978 370.85 324.482 370.239 324.482C369.627 324.482 369.131 324.978 369.131 325.59C369.131 326.202 369.627 326.698 370.239 326.698C370.85 326.698 371.347 326.202 371.347 325.59Z" fill="#365DA4"/>
<path d="M367.628 334.025C367.628 334.025 368.592 333.046 369.92 332.979C371.249 332.913 371.657 332.979 371.657 332.979C371.657 332.979 370.839 333.844 369.864 334.025C368.889 334.207 367.626 334.025 367.626 334.025H367.628Z" fill="#6E9E63"/>
<path d="M367.827 333.074C367.659 332.928 367.533 331.734 366.502 331.434C365.472 331.135 364.74 331.078 364.74 331.078C364.74 331.078 365.633 332.631 366.283 332.864C366.932 333.097 367.825 333.074 367.825 333.074H367.827Z" fill="#6E9E63"/>
<path d="M48.5887 232.96V338.77H25.2463C25.2352 338.739 25.2241 338.702 25.2086 338.664C25.1997 338.642 25.1909 338.617 25.182 338.595C25.1044 338.391 25.0025 338.119 24.8717 337.769L24.8207 337.667V337.616C24.8207 337.616 24.7698 337.56 24.7698 337.509C24.5614 337.093 24.4041 336.621 24.1957 336.049C24.0893 335.785 23.9874 335.472 23.83 335.16V335.054L23.7791 335.003C23.061 333.141 22.1744 330.714 21.1483 327.784C21.0574 327.518 20.9621 327.25 20.8646 326.979C20.0955 324.765 19.2511 322.285 18.3512 319.555C17.9368 318.271 17.5113 316.933 17.0746 315.541C15.2639 309.754 13.2914 303.07 11.3587 295.705C10.419 292.103 9.47926 288.347 8.59051 284.43C8.06745 282.17 7.54218 279.816 7.03907 277.44C6.89279 276.744 6.75095 276.046 6.60689 275.35C5.68489 270.9 4.81609 266.314 4.03372 261.629C3.00312 255.476 2.11659 249.151 1.44282 242.73C1.10816 239.578 0.826683 236.402 0.600616 233.211C0.593967 233.129 0.587318 233.042 0.582886 232.96H48.5887Z" fill="#FFF3E9"/>
<path d="M29.4042 189.004L54.1318 239.906H129.255L90.0874 189.19L29.4042 189.004Z" fill="#ED9F4A"/>
<path d="M126.289 239.906L124.055 237.016L87.1242 189.19L26.4387 189.004L48.5866 234.598V338.764H124.055V239.906H126.289Z" fill="#F9DDBF"/>
<path d="M97.7316 248.818H77.0598V223.845C77.0598 218.663 81.2664 214.456 86.4482 214.456H88.0262C93.3831 214.456 97.7293 218.805 97.7293 224.159V248.818H97.7316Z" fill="#EFCDAF"/>
<path d="M90.2869 189.004L90.1184 189.23L88.6556 191.178L53.3317 238.266L49.9828 242.732H1.44062C1.10595 239.581 0.824477 236.405 0.598411 233.213C0.591762 233.131 0.585113 233.045 0.58068 232.963C0.571815 232.876 0.567382 232.792 0.560733 232.705C0.250446 228.208 0.0576247 223.681 0 219.155L23.2715 189.015H33.1364L67.596 189.008L90.2846 189.002L90.2869 189.004Z" fill="#ED9F4A"/>
<path d="M95.3113 254.124L112.916 290.363H166.4L138.517 254.257L95.3113 254.124Z" fill="#ED9F4A"/>
<path d="M164.798 290.363L136.914 254.257L93.7089 254.124L111.313 290.363H111.431V338.664L164.796 338.768V290.363H164.798Z" fill="#F9DDBF"/>
<path d="M111.433 290.363H66.2418V338.664H111.433V290.363Z" fill="#FFF3E9"/>
<path d="M61.275 292.507H109.822L138.517 254.255L124.055 254.257L90.8055 254.266L61.275 292.507Z" fill="#ED9F4A"/>
<path d="M127.273 298.409V338.768H149.756V298.779C149.756 295.448 148.33 292.449 146.057 290.361C144.024 288.491 141.311 287.351 138.33 287.351C135.349 287.351 132.725 288.495 130.751 290.361C128.61 292.376 127.275 295.235 127.275 298.407L127.273 298.409Z" fill="#EFCDAF"/>
<path d="M141.039 274.375C141.039 272.981 139.908 271.853 138.517 271.853C137.125 271.853 135.994 272.983 135.994 274.375C135.994 275.767 137.125 276.897 138.517 276.897C139.908 276.897 141.039 275.767 141.039 274.375Z" fill="#EFCDAF"/>
<path d="M61.275 292.507H70.4883L124.055 254.257L90.8055 254.266L61.275 292.507Z" fill="#E58638"/>
<path d="M52.8086 224.698H8.44202L31.8465 195.994H76.2153L52.8086 224.698Z" fill="#2B478B"/>
<path d="M70.1714 203.554H25.8026L26.0797 203.217H70.4463L70.1714 203.554Z" fill="#AEC3FF"/>
<path d="M42.2767 195.992L18.87 224.698H18.5331L41.9376 195.992H42.2767Z" fill="#AEC3FF"/>
<path d="M54.0298 195.992L30.6253 224.698H30.2885L53.693 195.992H54.0298Z" fill="#AEC3FF"/>
<path d="M65.3421 195.992L41.9376 224.698H41.6007L65.0052 195.992H65.3421Z" fill="#AEC3FF"/>
<path d="M64.3734 210.513H20.0068L20.2817 210.176H64.6505L64.3734 210.513Z" fill="#AEC3FF"/>
<path d="M58.252 218.022H13.8854L14.1602 217.685H58.5268L58.252 218.022Z" fill="#AEC3FF"/>
<path d="M34.8896 204.791L34.6348 203.408L37.1459 202.027L37.4008 203.408L34.8896 204.791Z" fill="#AEC3FF"/>
<path d="M46.5188 204.791L46.2639 203.408L48.775 202.027L49.0299 203.408L46.5188 204.791Z" fill="#AEC3FF"/>
<path d="M57.9994 204.791L57.7445 203.408L60.2534 202.027L60.5105 203.408L57.9994 204.791Z" fill="#AEC3FF"/>
<path d="M29.2335 211.728L28.9786 210.345L31.4897 208.962L31.7446 210.345L29.2335 211.728Z" fill="#AEC3FF"/>
<path d="M40.8627 211.728L40.6078 210.345L43.1167 208.962L43.3738 210.345L40.8627 211.728Z" fill="#AEC3FF"/>
<path d="M52.3433 211.728L52.0884 210.345L54.5973 208.962L54.8544 210.345L52.3433 211.728Z" fill="#AEC3FF"/>
<path d="M23.1119 219.237L22.8571 217.854L25.3659 216.471L25.623 217.854L23.1119 219.237Z" fill="#AEC3FF"/>
<path d="M34.7411 219.237L34.4862 217.854L36.9951 216.471L37.25 217.854L34.7411 219.237Z" fill="#AEC3FF"/>
<path d="M46.2217 219.237L45.9668 217.854L48.4757 216.471L48.7306 217.854L46.2217 219.237Z" fill="#AEC3FF"/>
<path d="M545.203 98.2426C545.185 99.3419 545.152 100.455 545.097 101.574C544.866 106.35 544.294 111.292 543.35 116.399L473.937 115.488C473.937 115.488 480.218 100.658 495.245 102.307C495.245 102.307 517.058 77.5886 540.316 99.0117C540.316 99.0117 542.156 98.6172 545.201 98.2426H545.203Z" fill="#F8FCFF"/>
<path d="M319.449 51.1809C319.449 51.1809 322.703 43.3506 330.482 44.2194C330.482 44.2194 341.777 31.1674 353.822 42.4796C353.822 42.4796 366.626 39.6759 376.108 44.9065C382.429 48.3928 384.516 52.0497 384.516 52.0497L319.449 51.1787V51.1809Z" fill="#F8FCFF"/>
<path d="M57.7533 164.903C57.7533 164.903 61.2285 156.537 69.542 157.465C69.542 157.465 81.6099 143.52 94.478 155.606C94.478 155.606 108.157 152.612 118.288 158.199C125.043 161.925 127.273 165.832 127.273 165.832L57.7533 164.903Z" fill="#F8FCFF"/>
<path d="M39.6414 139.307C39.6414 139.307 42.301 132.904 48.6619 133.615C48.6619 133.615 57.8973 122.944 67.7445 132.192C67.7445 132.192 78.2123 129.901 85.965 134.176C91.1335 137.026 92.8401 140.018 92.8401 140.018L39.6392 139.307H39.6414Z" fill="#F8FCFF"/>
<path d="M599.689 300.895C599.366 304.202 598.807 307.653 597.989 311.259C597.972 311.334 597.956 311.408 597.934 311.485C579.585 318.132 560.673 326.951 543.833 338.598H498.301C504.899 334.353 537.062 316.545 599.689 300.895Z" fill="#6E9E63"/>
<path d="M498.556 291.206C498.556 291.206 533.496 288.143 542.993 291.206C552.49 294.269 557.24 308.515 555.884 318.919C554.527 329.322 551.36 338.141 545.254 337.915C539.148 337.689 495.956 337.915 495.956 337.915L498.556 291.206Z" fill="#EDBD77"/>
<path d="M505.69 290.669C505.69 290.669 513.086 289.293 518.117 288.783C518.117 288.783 514.159 289.594 513.669 290.009C513.669 290.009 524.412 288.389 528.33 288.783C532.251 289.18 537.621 289.843 537.621 289.843L543.594 289.444C543.594 289.444 538.618 290.047 538.882 290.122C539.146 290.197 543.745 290.762 545.214 291.704C545.214 291.704 549.775 293.136 550.755 294.003C550.755 294.003 547.098 292.156 545.666 292.27C545.666 292.27 553.951 298.016 553.973 303.491C553.995 308.965 518.341 295.246 518.341 295.246L505.688 290.669H505.69Z" fill="#EDBD77"/>
<path d="M503.551 290.931C503.551 290.931 489.644 289.874 480.825 301.066C472.006 312.259 479.13 338.181 490.661 338.278C502.195 338.378 516.399 336.605 519.474 321.55C522.548 306.494 516.102 291.31 503.551 290.931Z" fill="#FFCF83"/>
<path d="M475.074 313.263C475.074 313.263 480.049 307.533 480.577 305.951L481.33 307.533L475.074 313.263Z" fill="#FFCF83"/>
<path d="M478.664 304.783C478.664 304.783 479.294 300.676 481.104 299.169C481.104 299.169 479.46 301.922 479.885 304.22C480.311 306.516 478.666 304.785 478.666 304.785L478.664 304.783Z" fill="#FFCF83"/>
<path d="M481.104 333.844C481.195 334.063 478.429 326.324 479.334 324.854L479.861 324.859C479.861 324.859 480.22 331.694 481.107 333.844H481.104Z" fill="#FFCF83"/>
<path d="M478.881 323.779C478.881 323.779 476.809 323.101 475.641 323.779C475.641 323.779 477.563 323.241 478.731 324.382C479.901 325.523 478.881 323.779 478.881 323.779Z" fill="#FFCF83"/>
<path d="M498.048 337.886C494.85 337.886 491.003 337.343 487.716 335.333C484.163 333.159 481.845 329.655 480.821 324.916C479.076 316.849 479.934 310.231 483.365 305.244C486.574 300.583 491.991 297.547 499.032 296.465C503.784 295.734 507.9 297.272 510.932 300.907C515.314 306.159 516.572 315.036 513.993 322.489C512.171 327.755 507.304 331.009 500.976 331.191C500.794 331.195 500.615 331.199 500.435 331.199C494.061 331.199 488.314 327.941 486.339 323.152C484.327 318.269 484.433 313.493 486.634 309.703C488.868 305.856 493.09 303.351 498.518 302.655C503.432 302.021 506.082 304.311 507.441 306.341C510.061 310.257 510.054 316.62 508.299 319.692C506.608 322.651 501.925 324.936 497.858 324.794C494.923 324.688 492.683 323.331 491.55 320.971C490.092 317.935 490.189 314.799 491.812 312.367C493.119 310.41 495.231 309.216 497.191 309.322C499.442 309.444 500.4 311.323 500.539 312.897C500.661 314.282 500.189 315.822 499.05 316.088C496.933 316.583 496.184 315.428 496.153 315.377C496.153 315.377 495.01 313.491 496.433 313.221C498.062 312.91 497.632 314.174 497.632 314.174C497.654 314.209 497.228 315.916 498.917 315.521C499.613 315.359 500.07 314.227 499.959 312.946C499.835 311.541 499.035 310.002 497.159 309.9C495.398 309.801 493.491 310.898 492.295 312.689C490.788 314.945 490.708 317.87 492.073 320.718C493.401 323.482 495.963 324.145 497.878 324.214C501.747 324.347 506.198 322.194 507.793 319.404C509.272 316.818 509.669 310.721 506.958 306.665C505.143 303.95 502.248 302.762 498.591 303.232C493.347 303.905 489.278 306.308 487.137 309.996C485.029 313.626 484.936 318.218 486.878 322.93C488.817 327.636 494.611 330.794 500.958 330.61C507.036 330.435 511.703 327.327 513.443 322.299C515.958 315.027 514.742 306.385 510.484 301.279C508.465 298.859 504.857 296.161 499.121 297.039C492.241 298.096 486.96 301.046 483.844 305.572C480.506 310.421 479.679 316.886 481.388 324.792C482.377 329.369 484.608 332.749 488.019 334.836C494.912 339.054 505.783 336.501 505.879 336.477L504.648 337.141C504.595 337.155 501.763 337.886 498.05 337.886H498.048Z" fill="#EDBD77"/>
<path d="M552.606 274.98C552.606 274.98 599.587 270.862 612.36 274.98C625.131 279.098 631.518 298.256 629.692 312.243C627.868 326.23 623.61 338.09 615.401 337.786C607.192 337.483 549.11 337.786 549.11 337.786L552.606 274.98Z" fill="#EDBD77"/>
<path d="M562.202 274.26C562.202 274.26 572.145 272.407 578.911 271.724C578.911 271.724 573.59 272.814 572.932 273.371C572.932 273.371 587.375 271.192 592.646 271.724C597.916 272.256 605.139 273.149 605.139 273.149L613.171 272.611C613.171 272.611 606.482 273.422 606.837 273.524C607.192 273.626 613.375 274.386 615.352 275.651C615.352 275.651 621.485 277.577 622.801 278.743C622.801 278.743 617.885 276.259 615.959 276.412C615.959 276.412 627.101 284.14 627.13 291.5C627.159 298.863 579.215 280.414 579.215 280.414L562.202 274.26Z" fill="#EDBD77"/>
<path d="M559.326 274.61C559.326 274.61 540.624 273.187 528.767 288.24C516.907 303.291 526.486 338.145 541.994 338.278C557.501 338.411 576.602 336.029 580.735 315.783C584.867 295.536 576.201 275.119 559.326 274.61Z" fill="#FFCF83"/>
<path d="M521.034 304.641C521.034 304.641 527.723 296.937 528.432 294.809L529.445 296.937L521.032 304.641H521.034Z" fill="#FFCF83"/>
<path d="M525.861 293.236C525.861 293.236 526.71 287.713 529.141 285.685C529.141 285.685 526.929 289.388 527.501 292.476C528.073 295.565 525.861 293.234 525.861 293.234V293.236Z" fill="#FFCF83"/>
<path d="M529.141 332.312C529.263 332.609 525.542 322.201 526.759 320.224L527.466 320.231C527.466 320.231 527.949 329.422 529.139 332.312H529.141Z" fill="#FFCF83"/>
<path d="M526.151 318.781C526.151 318.781 523.363 317.868 521.792 318.781C521.792 318.781 524.374 318.059 525.947 319.592C527.521 321.126 526.151 318.781 526.151 318.781Z" fill="#FFCF83"/>
<path d="M551.925 337.749C547.626 337.749 542.45 337.02 538.031 334.316C533.255 331.392 530.136 326.68 528.758 320.308C526.413 309.462 527.565 300.563 532.18 293.856C536.495 287.589 543.78 283.506 553.246 282.052C559.636 281.07 565.17 283.136 569.246 288.025C575.137 295.089 576.828 307.024 573.362 317.046C570.913 324.127 564.368 328.502 555.859 328.748C555.615 328.755 555.374 328.759 555.132 328.759C546.559 328.759 538.833 324.378 536.18 317.937C533.476 311.372 533.616 304.949 536.575 299.854C539.58 294.679 545.254 291.314 552.555 290.377C559.162 289.526 562.728 292.604 564.554 295.332C568.078 300.598 568.069 309.154 565.706 313.285C563.432 317.263 557.134 320.335 551.666 320.144C547.721 320.002 544.709 318.176 543.184 315.002C541.225 310.92 541.353 306.702 543.536 303.433C545.294 300.8 548.135 299.196 550.771 299.337C553.798 299.501 555.088 302.03 555.272 304.145C555.436 306.009 554.8 308.081 553.271 308.438C550.425 309.1 549.416 307.549 549.374 307.482C549.374 307.482 547.838 304.945 549.749 304.581C551.939 304.165 551.362 305.862 551.362 305.862C551.393 305.909 550.821 308.207 553.091 307.675C554.026 307.456 554.642 305.935 554.492 304.213C554.326 302.325 553.251 300.257 550.726 300.12C548.357 299.985 545.793 301.463 544.186 303.87C542.16 306.904 542.051 310.838 543.889 314.666C545.673 318.382 549.117 319.271 551.692 319.364C556.896 319.541 562.881 316.649 565.026 312.897C567.014 309.419 567.548 301.219 563.902 295.767C561.46 292.117 557.57 290.519 552.654 291.152C545.602 292.059 540.132 295.288 537.251 300.248C534.416 305.129 534.292 311.306 536.903 317.64C539.509 323.967 547.302 328.214 555.837 327.968C564.009 327.733 570.285 323.555 572.624 316.793C576.006 307.017 574.37 295.394 568.645 288.531C565.932 285.277 561.079 281.649 553.366 282.83C544.117 284.251 537.014 288.218 532.825 294.304C528.337 300.825 527.226 309.519 529.522 320.147C530.852 326.301 533.853 330.845 538.439 333.653C547.705 339.324 562.324 335.891 562.453 335.858L560.799 336.751C560.729 336.769 556.919 337.753 551.925 337.753V337.749Z" fill="#EDBD77"/>
<path d="M212.502 293.176C212.502 293.176 204.439 324.289 205.162 326.747C205.884 329.205 209.934 337.56 209.934 337.56H206.037C206.037 337.56 204.461 336.789 204.526 334.861C204.59 332.933 199.127 325.413 199.127 325.413C199.127 325.413 201.27 313.469 199.127 308.763C189.896 288.502 205.357 288.694 212.5 293.176H212.502Z" fill="#CCA283"/>
<path d="M253.919 303.943C253.919 303.943 251.605 320.656 251.476 321.685C251.348 322.713 250.255 323.999 250.32 325.67C250.384 327.341 250.962 332.997 252.762 334.411C254.562 335.825 254.754 337.56 254.754 337.56H249.87C249.87 337.56 249.034 335.889 249.163 334.732C249.291 333.575 247.813 332.354 247.749 329.976C247.684 327.598 247.749 323.163 247.106 321.618C246.463 320.076 246.656 309.468 244.535 307.09C242.414 304.712 253.919 303.941 253.919 303.941V303.943Z" fill="#CCA283"/>
<path d="M200.769 298.353C200.716 299.125 200.689 299.84 200.689 300.559C200.822 318.653 218.73 313.232 219.366 312.753C220.058 312.274 221.306 312.327 221.306 312.327C230.26 315.889 242.8 312.62 245.404 311.556C248.008 310.492 254.943 313.123 258.157 312.884C259.458 312.777 260.548 311.423 261.373 309.723C262.541 307.305 263.205 304.196 263.312 303.107C263.365 302.496 264.189 300.157 265.304 297.289C265.756 296.172 266.262 294.951 266.791 293.703C266.898 293.491 266.978 293.251 267.084 293.039C266.818 292.746 266.579 292.427 266.339 292.108C264.932 290.248 263.948 288.069 262.86 285.891C261.743 283.606 260.548 281.268 258.768 279.169C256.138 278.344 253.004 279.834 251.7 279.754C250.187 279.701 248.697 279.435 247.343 279.222C246.785 279.116 246.281 279.036 245.803 278.956C243.145 278.557 227.046 280.629 215.674 280.948C213.336 281.028 211.21 281.002 209.43 280.895C209.297 280.895 209.165 280.869 209.032 280.869C204.275 280.603 201.751 280.895 200.423 281.321C198.963 281.773 198.936 282.331 198.936 282.331C194.393 286.769 200.769 298.353 200.769 298.353Z" fill="#EFCDAF"/>
<path d="M259.772 303.943C259.772 303.943 257.458 320.656 257.33 321.685C257.201 322.713 256.109 323.999 256.173 325.67C256.237 327.341 256.816 332.997 258.615 334.411C260.415 335.825 260.608 337.56 260.608 337.56H255.723C255.723 337.56 254.887 335.889 255.016 334.732C255.145 333.575 253.666 332.354 253.602 329.976C253.538 327.598 253.602 323.163 252.959 321.618C252.316 320.076 252.509 309.468 250.388 307.09C248.267 304.712 259.772 303.941 259.772 303.941V303.943Z" fill="#EFCDAF"/>
<path d="M217.531 300.135C217.531 300.135 211.024 324.287 211.746 326.747C212.469 329.207 216.518 337.56 216.518 337.56H212.622C212.622 337.56 211.046 336.789 211.11 334.861C211.175 332.933 205.711 325.413 205.711 325.413C205.711 325.413 205.27 311.78 202.057 307.728C198.843 303.679 210.388 295.654 217.531 300.135Z" fill="#EFCDAF"/>
<path d="M283.831 306.317C284.094 306.671 284.325 306.922 284.325 306.922C284.363 306.906 284.861 307.004 285.482 306.979C285.981 306.959 286.563 306.86 287.04 306.556C287.357 306.352 287.627 306.064 287.802 305.647C287.802 305.647 287.581 305.078 286.424 304.927C285.57 304.816 284.733 304.224 284.019 304.149C283.762 304.125 283.52 304.164 283.301 304.32C282.765 304.699 283.35 305.674 283.831 306.317Z" fill="#EFCDAF"/>
<path d="M285.061 308.571C285.094 308.555 285.5 308.633 286.031 308.63C286.885 308.628 288.066 308.422 288.543 307.296C288.543 307.296 288.321 306.727 287.164 306.576C287.124 306.571 287.082 306.565 287.042 306.556C286.297 306.423 285.564 305.955 284.923 305.825C284.602 305.76 284.305 305.78 284.039 305.966C283.913 306.055 283.848 306.175 283.831 306.319C283.724 307.117 285.061 308.573 285.061 308.573V308.571Z" fill="#EFCDAF"/>
<path d="M258.556 284.167C258.875 292.456 260.415 308.318 261.373 309.727C263.711 309.834 265.597 310.047 267.137 310.366C271.92 311.348 273.248 313.154 273.7 314.005C274.551 315.705 278.536 319.586 279.227 319.719C279.945 319.852 280.369 320.78 281.113 322.296C281.831 323.783 283.265 323.916 284.46 323.996C285.657 324.049 286.639 322.615 286.665 322.27C286.692 321.897 286.054 320.783 286.16 319.293C286.24 317.806 285.285 313.369 286.08 312.172C286.586 311.401 286.293 309.754 286.027 308.637C285.867 307.972 285.708 307.522 285.708 307.522C285.655 307.363 285.575 307.176 285.469 306.99C285.309 306.645 285.123 306.246 284.91 305.822C284.671 305.317 284.351 304.758 284.006 304.149C282.572 301.598 280.42 298.278 277.603 294.796C274.786 291.288 271.333 287.675 267.241 284.488C264.664 282.469 261.82 280.636 258.766 279.173C258.5 279.279 258.447 281.272 258.553 284.169L258.556 284.167Z" fill="#EFCDAF"/>
<path d="M254.845 299.843C254.677 299.415 254.763 292.141 249.515 290.647C244.265 289.153 241.392 291.452 234.841 288.808C228.289 286.163 221.394 283.98 220.703 286.853C220.013 289.725 221.277 297.773 220.703 301.45C220.129 305.126 232.567 306.43 237.669 304.169C242.771 301.908 256.692 304.552 254.845 299.84V299.843Z" fill="#2B478B"/>
<path d="M198.929 282.345C198.929 282.345 195.53 285.246 194.956 290.419C194.382 295.592 195.991 318.316 195.991 318.316L197.303 318.243L198.71 293.101L198.929 282.345Z" fill="#2B478B"/>
<path d="M197.522 321.206C197.522 321.206 194.687 318.154 196.449 317.465C198.211 316.775 197.522 318.843 197.522 319.648V321.204V321.206Z" fill="#2B478B"/>
<path d="M200.423 281.323C203.717 282.943 207.358 284.432 209.51 284.486C214.213 284.565 225.638 281.855 230.288 281.562C234.938 281.27 253.775 285.627 258.212 284.22C258.318 284.167 258.425 284.167 258.558 284.167C259.542 284.087 261.029 284.778 262.862 285.893C263.897 286.558 265.04 287.354 266.235 288.258C273.968 294.102 284.01 304.147 284.01 304.147C282.576 301.596 280.424 298.276 277.607 294.794C274.79 291.285 271.337 287.673 267.246 284.486C264.668 282.467 261.825 280.634 258.77 279.171C256.14 278.346 253.006 279.836 251.703 279.756C250.189 279.703 248.699 279.437 247.345 279.224C246.787 279.118 246.284 279.038 245.805 278.958C243.148 278.559 227.048 280.631 215.676 280.951C213.338 281.03 211.212 281.004 209.433 280.897C209.3 280.897 209.167 280.871 209.034 280.871C204.277 280.605 201.753 280.897 200.425 281.323H200.423Z" fill="#FFE7D7"/>
<path d="M215.678 280.951C217.735 282.628 221.68 283.298 227.254 282.258C234.036 280.995 235.645 283.983 241.277 284.213C246.246 284.415 247.188 280.215 247.341 279.222C246.793 279.131 246.275 279.042 245.794 278.969C243.154 278.57 227.039 280.625 215.678 280.951Z" fill="#2B478B"/>
<path d="M266.341 292.11C266.448 292.642 266.607 293.172 266.794 293.703C267.033 294.289 267.326 294.845 267.671 295.43C270.674 300.213 267.831 305.951 267.139 310.361C271.922 311.343 273.25 313.15 273.702 314.001C274.553 315.701 278.538 319.581 279.229 319.714C279.948 319.847 280.371 320.776 281.116 322.292C281.834 323.779 283.268 323.912 284.462 323.992C285.659 324.045 286.641 322.611 286.668 322.265C286.694 321.893 286.056 320.778 286.162 319.289C286.242 317.802 285.287 313.365 286.082 312.168C286.588 311.396 286.295 309.75 286.029 308.633C286.88 308.633 288.075 308.42 288.554 307.305C288.554 307.305 288.314 306.72 287.173 306.56H287.04C287.359 306.348 287.625 306.055 287.811 305.632C287.811 305.632 287.572 305.073 286.43 304.914C285.579 304.807 284.73 304.222 284.012 304.142C282.578 301.591 280.426 298.271 277.609 294.789C274.792 291.281 271.339 287.668 267.248 284.481C266.822 285.543 266.423 286.846 266.237 288.253C266.078 289.475 266.078 290.804 266.344 292.105L266.341 292.11Z" fill="#2B478B"/>
<path d="M200.762 298.349C200.711 299.12 200.691 299.854 200.696 300.552C206.529 304.878 216.762 302.695 217.531 297.489C218.415 291.494 210.357 290.645 210.949 285.705C211.19 283.69 210.242 282.074 209.031 280.871C199.025 280.277 198.932 282.343 198.932 282.343C194.401 286.777 200.765 298.349 200.765 298.349H200.762Z" fill="#2B478B"/>
<path opacity="0.6" d="M148.896 70.7601H355.066C362.36 70.7601 368.282 76.6821 368.282 83.9761V212.222C368.282 219.516 362.36 225.438 355.066 225.438H148.893C141.6 225.438 135.68 219.516 135.68 212.224V83.9761C135.68 76.6821 141.602 70.7601 148.896 70.7601Z" fill="#F8FCFF"/>
<path d="M220.827 121.122C220.827 139.608 205.847 154.589 187.36 154.589C168.874 154.589 153.894 139.608 153.894 121.122C153.894 102.635 168.874 87.6552 187.36 87.6552C189.461 87.6552 191.52 87.848 193.515 88.2226C189.337 103.447 183.794 123.609 183.422 124.865C184.111 123.779 204.466 114.655 218.365 108.506C219.956 112.401 220.829 116.66 220.829 121.124L220.827 121.122Z" fill="#7FA4F4"/>
<path d="M220.224 104.854C207.95 110.262 187.617 119.327 186.968 120.353C187.32 119.158 192.945 98.7125 196.713 85.0111C207.145 87.8724 215.72 95.224 220.226 104.856L220.224 104.854Z" fill="#F99746"/>
<path d="M301.484 80.8909C301.484 79.355 302.729 78.1094 304.265 78.1094C305.801 78.1094 307.047 79.355 307.047 80.8909C307.047 82.4269 305.801 83.6724 304.265 83.6724C302.729 83.6724 301.484 82.4269 301.484 80.8909Z" fill="#AEC3FF"/>
<path d="M315.919 80.8909C315.919 79.355 317.164 78.1094 318.7 78.1094C320.236 78.1094 321.482 79.355 321.482 80.8909C321.482 82.4269 320.236 83.6724 318.7 83.6724C317.164 83.6724 315.919 82.4269 315.919 80.8909Z" fill="#AEC3FF"/>
<path d="M335.564 82.8572C336.65 81.7709 336.65 80.0098 335.564 78.9236C334.478 77.8373 332.716 77.8373 331.63 78.9236C330.544 80.0098 330.544 81.771 331.63 82.8572C332.716 83.9434 334.478 83.9434 335.564 82.8572Z" fill="#F99746"/>
<path d="M215.206 213.918H150.447V193.31H215.206V213.918ZM151.243 213.122H214.413V194.106H151.243V213.122Z" fill="#AEC3FF"/>
<path d="M180.188 198.849H155.139V200.482H180.188V198.849Z" fill="#AEC3FF"/>
<path d="M200.601 198.849H182.826V200.482H200.601V198.849Z" fill="#AEC3FF"/>
<path d="M168.962 203.514H155.139V205.148H168.962V203.514Z" fill="#AEC3FF"/>
<path d="M189.078 203.514H171.303V205.148H189.078V203.514Z" fill="#AEC3FF"/>
<path d="M208.692 203.514H190.917V205.148H208.692V203.514Z" fill="#AEC3FF"/>
<path d="M296.499 203.514H264.438V193.312H296.499V203.514ZM264.832 203.12H296.107V193.705H264.832V203.12Z" fill="#AEC3FF"/>
<path d="M279.163 196.054H266.763V196.863H279.163V196.054Z" fill="#AEC3FF"/>
<path d="M289.267 196.054H280.469V196.863H289.267V196.054Z" fill="#AEC3FF"/>
<path d="M273.607 198.363H266.763V199.172H273.607V198.363Z" fill="#AEC3FF"/>
<path d="M283.563 198.363H274.764V199.172H283.563V198.363Z" fill="#AEC3FF"/>
<path d="M293.275 198.363H284.476V199.172H293.275V198.363Z" fill="#AEC3FF"/>
<path d="M334.729 203.514H302.667V193.312H334.729V203.514ZM303.062 203.12H334.336V193.705H303.062V203.12Z" fill="#AEC3FF"/>
<path d="M317.395 196.054H304.992V196.863H317.395V196.054Z" fill="#AEC3FF"/>
<path d="M327.499 196.054H318.7V196.863H327.499V196.054Z" fill="#AEC3FF"/>
<path d="M311.836 198.363H304.992V199.172H311.836V198.363Z" fill="#AEC3FF"/>
<path d="M321.792 198.363H312.993V199.172H321.792V198.363Z" fill="#AEC3FF"/>
<path d="M331.504 198.363H322.705V199.172H331.504V198.363Z" fill="#AEC3FF"/>
<path d="M296.499 158.139H264.438V147.937H296.499V158.139ZM264.832 157.747H296.107V148.332H264.832V157.747Z" fill="#AEC3FF"/>
<path d="M279.163 150.679H266.763V151.488H279.163V150.679Z" fill="#AEC3FF"/>
<path d="M289.267 150.679H280.469V151.488H289.267V150.679Z" fill="#AEC3FF"/>
<path d="M273.607 152.986H266.763V153.795H273.607V152.986Z" fill="#AEC3FF"/>
<path d="M283.563 152.986H274.764V153.795H283.563V152.986Z" fill="#AEC3FF"/>
<path d="M293.275 152.986H284.476V153.795H293.275V152.986Z" fill="#AEC3FF"/>
<path d="M334.729 158.139H302.667V147.937H334.729V158.139ZM303.062 157.747H334.336V148.332H303.062V157.747Z" fill="#AEC3FF"/>
<path d="M317.395 150.679H304.992V151.488H317.395V150.679Z" fill="#AEC3FF"/>
<path d="M327.499 150.679H318.7V151.488H327.499V150.679Z" fill="#AEC3FF"/>
<path d="M311.836 152.986H304.992V153.795H311.836V152.986Z" fill="#AEC3FF"/>
<path d="M321.792 152.986H312.993V153.795H321.792V152.986Z" fill="#AEC3FF"/>
<path d="M331.504 152.986H322.705V153.795H331.504V152.986Z" fill="#AEC3FF"/>
<path d="M296.499 118.64H264.438V108.438H296.499V118.64ZM264.832 118.247H296.107V108.832H264.832V118.247Z" fill="#AEC3FF"/>
<path d="M279.163 111.179H266.763V111.988H279.163V111.179Z" fill="#AEC3FF"/>
<path d="M289.267 111.179H280.469V111.988H289.267V111.179Z" fill="#AEC3FF"/>
<path d="M273.607 113.489H266.763V114.298H273.607V113.489Z" fill="#AEC3FF"/>
<path d="M283.563 113.489H274.764V114.298H283.563V113.489Z" fill="#AEC3FF"/>
<path d="M293.275 113.489H284.476V114.298H293.275V113.489Z" fill="#AEC3FF"/>
<path d="M334.729 118.64H302.667V108.438H334.729V118.64ZM303.062 118.247H334.336V108.832H303.062V118.247Z" fill="#AEC3FF"/>
<path d="M317.395 111.179H304.992V111.988H317.395V111.179Z" fill="#AEC3FF"/>
<path d="M327.499 111.179H318.7V111.988H327.499V111.179Z" fill="#AEC3FF"/>
<path d="M311.836 113.489H304.992V114.298H311.836V113.489Z" fill="#AEC3FF"/>
<path d="M321.792 113.489H312.993V114.298H321.792V113.489Z" fill="#AEC3FF"/>
<path d="M331.504 113.489H322.705V114.298H331.504V113.489Z" fill="#AEC3FF"/>
<path d="M243.318 102.066C243.318 100.062 244.943 98.4376 246.946 98.4376C248.95 98.4376 250.572 100.062 250.572 102.066C250.572 104.069 248.948 105.692 246.946 105.692C244.945 105.692 243.318 104.067 243.318 102.066Z" fill="#F99746"/>
<path d="M247.203 88.8298H246.849C246.528 88.8298 246.268 89.0898 246.268 89.4105V96.1814C246.268 96.5021 246.528 96.7621 246.849 96.7621H247.203C247.524 96.7621 247.784 96.5021 247.784 96.1814V89.4105C247.784 89.0898 247.524 88.8298 247.203 88.8298Z" fill="#F99746"/>
<path d="M247.203 107.604H246.849C246.528 107.604 246.268 107.864 246.268 108.185V114.956C246.268 115.277 246.528 115.537 246.849 115.537H247.203C247.524 115.537 247.784 115.277 247.784 114.956V108.185C247.784 107.864 247.524 107.604 247.203 107.604Z" fill="#F99746"/>
<path d="M251.301 105.521L251.51 105.235C251.698 104.976 252.064 104.92 252.323 105.109L257.791 109.098C258.05 109.287 258.106 109.652 257.917 109.912L257.709 110.197C257.52 110.457 257.155 110.512 256.895 110.324L251.428 106.334C251.168 106.146 251.113 105.78 251.301 105.521Z" fill="#F99746"/>
<path d="M236.135 94.4549L236.343 94.169C236.532 93.9096 236.897 93.8542 237.157 94.0426L242.624 98.032C242.884 98.2204 242.939 98.5861 242.751 98.8454L242.542 99.1313C242.354 99.3906 241.988 99.4461 241.729 99.2577L236.261 95.2683C236.002 95.0799 235.947 94.7142 236.135 94.4549Z" fill="#F99746"/>
<path d="M242.786 105.663L243.021 105.927C243.234 106.166 243.214 106.534 242.975 106.749L237.928 111.259C237.689 111.472 237.321 111.452 237.106 111.213L236.871 110.949C236.658 110.709 236.678 110.342 236.917 110.129L241.964 105.619C242.203 105.406 242.571 105.426 242.784 105.665L242.786 105.663Z" fill="#F99746"/>
<path d="M256.785 93.1517L257.02 93.4154C257.232 93.6548 257.212 94.0227 256.973 94.2377L251.926 98.7479C251.687 98.9607 251.319 98.9407 251.106 98.7014L250.871 98.4376C250.659 98.1983 250.679 97.8303 250.918 97.6176L255.965 93.1073C256.204 92.8946 256.572 92.9145 256.785 93.1539V93.1517Z" fill="#F99746"/>
<path d="M241.445 101.826L241.441 102.179C241.437 102.498 241.173 102.757 240.854 102.753L234.085 102.678C233.766 102.673 233.506 102.409 233.511 102.09L233.515 101.738C233.52 101.419 233.784 101.159 234.103 101.164L240.871 101.239C241.191 101.244 241.45 101.507 241.445 101.826Z" fill="#F99746"/>
<path d="M252.294 102.307L252.298 101.954C252.302 101.633 252.566 101.377 252.885 101.38L259.654 101.457C259.975 101.461 260.231 101.725 260.228 102.044L260.224 102.397C260.22 102.718 259.956 102.974 259.636 102.971L252.868 102.894C252.547 102.89 252.291 102.626 252.294 102.307Z" fill="#F99746"/>
<path d="M336.721 104.391H264.44V98.5285H336.721V104.391ZM265.125 103.704H336.034V99.2134H265.125V103.704Z" fill="#AEC3FF"/>
<path d="M320.888 98.872H264.781V104.047H320.888V98.872Z" fill="#AEC3FF"/>
<path d="M242.013 142.7C242.013 137.964 249.278 129.034 249.278 129.034C249.278 129.034 256.543 137.964 256.543 142.7C256.543 147.436 253.292 151.277 249.278 151.277C245.264 151.277 242.013 147.439 242.013 142.7Z" fill="#AEC3FF"/>
<path d="M336.721 143.086H264.44V137.224H336.721V143.086ZM265.125 142.401H336.034V137.911H265.125V142.401Z" fill="#F99746"/>
<path d="M299.068 137.567H264.781V142.742H299.068V137.567Z" fill="#F99746"/>
<path d="M252.374 189.407V170.444H248.281V189.407C246.929 190.136 246.009 191.566 246.009 193.21C246.009 195.595 247.942 197.528 250.326 197.528C252.711 197.528 254.644 195.595 254.644 193.21C254.644 191.566 253.724 190.136 252.372 189.407H252.374Z" fill="#AEC3FF"/>
<path d="M336.721 186.918H264.44V181.056H336.721V186.918ZM265.125 186.233H336.034V181.743H265.125V186.233Z" fill="#AEC3FF"/>
<path d="M311.825 181.4H264.781V186.575H311.825V181.4Z" fill="#AEC3FF"/>
<path d="M247.527 193.193C247.527 191.646 248.782 190.391 250.329 190.391C251.876 190.391 253.13 191.646 253.13 193.193C253.13 194.74 251.876 195.994 250.329 195.994C248.782 195.994 247.527 194.74 247.527 193.193Z" fill="#F99746"/>
<path d="M251.1 183.159H249.431V191.934H251.1V183.159Z" fill="#F99746"/>
<path d="M157.597 177.632H150.844V187.022H157.597V177.632Z" fill="#AEC3FF"/>
<path d="M169.166 171.406H162.413V187.02H169.166V171.406Z" fill="#AEC3FF"/>
<path d="M180.736 166.306H173.982V187.02H180.736V166.306Z" fill="#F99746"/>
<path d="M192.305 170.446H185.552V187.022H192.305V170.446Z" fill="#AEC3FF"/>
<path d="M203.874 161.623H197.121V187.02H203.874V161.623Z" fill="#AEC3FF"/>
<path d="M215.443 157.093H208.69V187.02H215.443V157.093Z" fill="#F99746"/>
<path d="M185.554 135.916H171.303V137.224H185.554V135.916Z" fill="white"/>
<path d="M193.14 138.91H171.303V140.218H193.14V138.91Z" fill="white"/>
<path d="M210.847 96.3787H196.596V97.6864H210.847V96.3787Z" fill="white"/>
<path d="M205.516 99.373H196.596V100.681H205.516V99.373Z" fill="white"/>
<path d="M475.466 125.559C475.466 125.559 502.492 156.275 511.922 175.234C511.922 175.234 500.584 199.919 463.83 219.973C463.83 219.973 462.197 219.616 459.703 217.834C455.814 215.057 460.124 213.022 460.976 212.47C470.3 206.431 486.592 180.413 487.064 178.155C487.536 175.896 466.643 155.65 460.295 148.163C453.945 140.677 465.597 121.7 475.466 125.557V125.559Z" fill="#FFB27D"/>
<path d="M404.845 124.688C404.845 124.688 369.472 158.363 361.294 157.472C353.113 156.579 321.12 148.853 321.12 148.853L318.452 154.981C318.452 154.981 350.558 173.828 365.975 173.558C381.391 173.288 401.573 158.6 401.573 158.6L404.845 124.688Z" fill="#FFB27D"/>
<path d="M430.521 80.3878C430.521 80.3878 430.696 84.1755 428.426 84.9157C426.155 85.656 430.767 93.8276 430.403 99.3485C430.042 104.867 427.6 107.084 427.6 107.084C427.6 107.084 428.772 104.047 428.116 102.17C428.116 102.17 428.22 106.075 425.37 108.045C422.52 110.016 423.285 111.718 423.285 111.718C423.285 111.718 416.839 109.787 416.66 104.956C416.66 104.956 416.383 107.141 416.607 108.045C416.607 108.045 411.042 103.868 410.778 99.0537C410.512 94.2399 415.157 90.1773 417.274 90.1042C419.39 90.031 424.111 85.8754 423.985 84.3062C423.859 82.7349 430.523 80.3922 430.523 80.3922L430.521 80.3878Z" fill="#2C3A64"/>
<path d="M412.711 53.333C416.461 47.6392 431.348 50.8263 445.962 60.4518C460.577 70.0774 469.384 82.4955 465.634 88.1893C461.884 93.883 446.997 90.696 432.383 81.0704C417.768 71.4449 408.96 59.0267 412.711 53.333Z" fill="#E2AF64"/>
<path d="M445.368 256.243C441.315 277.724 436.095 306.948 432.068 329.81C431.591 332.509 431.131 335.118 430.692 337.613C430.592 338.19 430.492 338.764 430.392 339.327H390.135C390.077 338.753 390.024 338.181 389.973 337.613C388.174 318.143 388.417 300.935 389.541 286.638C389.973 281.097 390.543 275.988 391.174 271.354C393.823 243.991 394.714 232.395 394.982 228.561L395.04 227.716C395.042 227.665 395.046 227.617 395.049 227.575L395.057 227.446C395.064 227.368 395.069 227.3 395.071 227.24L395.08 227.072C395.082 227.014 395.086 226.99 395.086 226.99L408.81 231.072L415.523 233.069L417.106 238.096L420.27 248.149L443.247 255.562L445.373 256.245L445.368 256.243Z" fill="#233862"/>
<path d="M471.771 261.653C471.078 272.814 469.934 312.17 468.657 337.613C468.629 338.194 468.6 338.764 468.571 339.327H426.833C426.704 338.759 426.576 338.187 426.447 337.613C422.017 317.689 418.389 295.315 415.789 277.156C415.332 277.176 410.567 244.725 398.626 230.418C398.517 230.29 398.504 230.188 398.568 230.11C399.16 229.35 406.737 230.664 406.737 230.664C407.38 230.835 408.07 230.97 408.803 231.07C414.535 231.857 422.855 230.589 431.111 228.665H431.113C433.345 228.144 435.565 227.577 437.735 226.987C443.848 225.327 449.508 223.505 453.544 222.134C454.546 221.794 455.446 221.48 456.23 221.205C456.864 220.981 457.423 220.782 457.891 220.613H457.893C459.019 220.208 459.646 219.97 459.646 219.97C459.646 219.97 459.93 220.219 460.411 220.733C462.013 222.442 465.807 227.074 468.607 235.157C470.863 241.662 472.472 250.403 471.769 261.651L471.771 261.653Z" fill="#2B478B"/>
<path d="M420.94 53.9801L447.21 93.8387C447.21 93.8387 450.213 87.9543 453.549 90.0643C458.753 93.3533 469.934 82.0966 467.602 66.2054C467.45 65.166 467.266 64.1797 467.064 63.24C461.822 55.6889 456.002 47.2802 451.824 41.3692C439.761 34.0819 420.938 53.9801 420.938 53.9801H420.94Z" fill="#2C3A64"/>
<path d="M409.395 134.5C413.072 137.868 417.846 140.883 424.034 143.225C447.232 152.017 459.165 133.021 464.502 119.595C461.49 117.281 458.473 116.452 456.727 115.998C455.364 115.645 453.937 115.33 452.653 115.076C451.977 114.94 451.374 114.553 450.993 113.979C448.781 110.639 446.543 102.179 447.347 90.2837L446.179 90.4322L426.6 93.0319C426.6 93.0319 426.649 99.149 426.301 104.878C426.15 107.338 425.922 109.728 425.587 111.536C425.266 113.265 423.841 114.57 422.09 114.741C422.09 114.741 422.09 114.748 422.079 114.756C421.769 115.138 415.069 123.398 409.397 134.497L409.395 134.5Z" fill="#FFB27D"/>
<path d="M426.598 93.0364C426.598 93.0364 426.651 99.1491 426.299 104.883C437.139 105.266 443.487 95.7603 446.177 90.4366L426.598 93.0342V93.0364Z" fill="#ED985F"/>
<path d="M422.64 98.2337C422.64 98.2337 448.214 100.286 449.247 84.3395C450.28 68.393 454.276 57.9186 437.99 55.935C421.704 53.9513 418.136 59.8291 416.496 65.0685C414.856 70.3079 416.013 97.2896 422.64 98.2337Z" fill="#FFB27D"/>
<path d="M417.821 56.2497C422.083 51.704 425.007 52.9473 426.591 54.4965C441.075 47.6946 449.366 59.6429 449.366 59.6429C450.35 71.1944 458.185 78.2734 458.185 78.2734C458.185 78.2734 453.336 80.8599 442.755 77.4068C439.524 76.3518 436.738 73.8296 434.424 70.8398C438.314 78.4152 443.903 84.0492 443.903 84.0492C431.432 77.2916 427.409 59.091 427.015 57.1694C425.361 58.4727 422.088 61.3251 420.957 64.2551C419.424 68.2356 418.316 76.5579 415.898 76.1191C415.898 76.1191 411.425 63.0671 417.819 56.2497H417.821Z" fill="#2C3A64"/>
<path d="M468.15 74.0535C468.15 74.0535 480.043 50.3808 463.423 41.0212C446.802 31.6639 434.637 35.3385 425.494 46.7837L468.15 74.0535Z" fill="#EDBD77"/>
<path d="M468.828 162.162C469.739 163.11 470.309 163.644 470.309 163.644C489.682 161.233 490.59 141.339 490.59 141.339C490.59 141.339 475.426 121.343 461.27 116.944C457.824 115.874 452.656 115.076 452.656 115.076C448.225 118.748 443.123 124.132 438.325 128.509C432.793 133.555 423.269 135.269 419.747 126.319C418.336 122.733 421.729 115.293 422.077 114.756C422.086 114.743 422.088 114.739 422.088 114.739C421.724 114.763 421.37 114.79 421.024 114.812C419.289 114.952 417.726 115.162 416.305 115.306C409.397 116 399.854 120.579 380.571 144.985C380.571 144.985 390.99 157.853 401.576 158.602C401.15 178.988 403.34 212.193 403.34 212.193C398.717 221.287 467.407 242.349 470.373 233.674C474.819 226.89 470.382 213.9 466.539 203.942C465.597 201.511 465.388 198.922 464.551 197.04C464.016 195.834 463.586 194.591 463.272 193.323C462.474 190.143 462.387 186.805 463.05 183.56C464.666 175.679 466.873 168.316 468.83 162.162H468.828Z" fill="#F99746"/>
<path d="M469.447 71.0237C468.946 70.5096 468.431 69.9931 467.902 69.4723H467.899C462.771 64.4567 456.233 59.3348 448.728 54.6517C442.689 50.8861 436.674 47.8076 431.029 45.4982H431.026C429.909 45.0372 428.808 44.6117 427.722 44.2149C414.781 39.4809 404.351 39.1218 401.194 44.1817C397.863 49.5186 403.499 59.4567 414.539 69.5366H414.541C414.532 69.4501 414.521 69.3659 414.512 69.2795C414.504 69.1931 414.499 69.1044 414.49 69.0157C414.481 68.916 414.473 68.8141 414.464 68.7099C414.457 68.6345 414.453 68.5614 414.446 68.4838C414.439 68.3575 414.433 68.2334 414.424 68.1048C414.415 67.9452 414.406 67.7857 414.402 67.6217C414.402 67.6039 414.399 67.584 414.399 67.564C414.393 67.4466 414.391 67.3269 414.388 67.2072V67.0964C414.386 67.0188 414.386 66.9413 414.386 66.8615C414.384 66.5822 414.386 66.2963 414.393 66.0126C414.393 65.9129 414.395 65.8087 414.402 65.709C414.404 65.6513 414.408 65.5937 414.408 65.5383C414.415 65.443 414.417 65.3499 414.426 65.2591C414.435 65.084 414.446 64.9133 414.461 64.7426C414.475 64.572 414.492 64.3991 414.51 64.2262C414.51 64.2174 414.512 64.2063 414.512 64.1974C414.519 64.1354 414.526 64.0711 414.532 64.0113C414.539 63.9714 414.541 63.9315 414.546 63.8938C414.563 63.7741 414.577 63.6544 414.594 63.5347C414.621 63.3375 414.652 63.1425 414.69 62.9496C414.696 62.9186 414.701 62.8831 414.707 62.8521C414.747 62.6216 414.794 62.3911 414.847 62.1628C414.869 62.0476 414.898 61.9345 414.927 61.8237C414.929 61.8104 414.934 61.7949 414.936 61.7816C413.757 59.2971 413.542 57.1473 414.504 55.6047C415.618 53.8161 418.154 53.0936 421.596 53.3197H421.602C421.696 53.3263 421.791 53.333 421.888 53.3418H421.891C423.163 53.4393 424.55 53.661 426.033 54.0067H426.035C426.383 54.0865 426.736 54.1729 427.095 54.266C428.398 54.6096 429.765 55.0351 431.181 55.5449H431.199C435.435 57.0741 440.091 59.3437 444.777 62.267C446.722 63.4816 448.564 64.7426 450.286 66.0259H450.289C450.459 66.1544 450.632 66.283 450.8 66.4115C458.762 72.4511 464.021 78.9383 464.624 83.4197C464.783 84.6121 464.617 85.6626 464.076 86.5248C464.034 86.5935 463.988 86.66 463.937 86.7243C463.93 86.7353 463.926 86.7442 463.919 86.7531C463.569 87.2362 463.101 87.6307 462.534 87.9455C462.534 87.9455 462.532 87.9462 462.527 87.9477C462.45 87.9942 462.372 88.0341 462.292 88.0696C462.29 88.0674 462.29 88.0696 462.29 88.0696C461.707 88.3555 461.024 88.5616 460.262 88.6857H460.255C460.182 88.7456 460.107 88.8032 460.032 88.8608C459.978 88.9029 459.921 88.9472 459.863 88.9871C459.808 89.027 459.754 89.0669 459.697 89.1068C459.679 89.1179 459.664 89.129 459.646 89.1445C459.548 89.2066 459.455 89.273 459.36 89.3351C459.212 89.4326 459.061 89.5235 458.912 89.6121C458.839 89.6543 458.764 89.6986 458.691 89.7385C458.615 89.7784 458.542 89.8183 458.467 89.8559C458.367 89.9069 458.27 89.9557 458.17 90.0022C458.132 90.0222 458.097 90.0399 458.059 90.0532C458.021 90.0709 457.986 90.0842 457.948 90.102C457.946 90.102 457.946 90.1042 457.942 90.1042C457.933 90.1064 457.924 90.113 457.915 90.1153C457.868 90.1352 457.824 90.1529 457.778 90.1729C457.709 90.1995 457.642 90.2283 457.576 90.2505C457.489 90.2815 457.407 90.3125 457.325 90.3391C457.246 90.3657 457.166 90.3901 457.088 90.41C457.082 90.4122 457.075 90.4167 457.066 90.4189C457 90.4366 456.937 90.4521 456.871 90.4676C456.849 90.4765 456.825 90.481 456.8 90.4876C456.74 90.5009 456.68 90.5164 456.618 90.5275C456.543 90.5408 456.47 90.5563 456.392 90.5674C456.346 90.5763 456.301 90.5807 456.255 90.5873C456.2 90.5962 456.146 90.6006 456.093 90.6073C456.022 90.6161 455.953 90.6206 455.883 90.625C455.854 90.6272 455.825 90.6272 455.796 90.6272H455.763C455.745 90.6294 455.725 90.6294 455.707 90.6294H455.688C455.661 90.6317 455.639 90.6317 455.612 90.6317C455.426 90.6317 455.24 90.6206 455.06 90.5984C454.881 90.5763 454.703 90.5386 454.533 90.492C454.446 90.4654 454.362 90.4411 454.278 90.4122C454.216 90.3901 454.152 90.3635 454.092 90.3369C454.045 90.3192 454.001 90.2992 453.954 90.277C453.917 90.2593 453.881 90.2438 453.844 90.2239C453.812 90.2106 453.777 90.1928 453.746 90.1729C453.68 90.1396 453.617 90.102 453.555 90.0621C453.425 89.9801 453.292 89.9069 453.163 89.8515C453.121 89.8316 453.077 89.8138 453.037 89.7983C453.019 89.7917 453.004 89.785 452.986 89.7784C452.924 89.7518 452.859 89.7318 452.797 89.7163C452.549 89.641 452.303 89.6077 452.059 89.6077H452.026C452.026 89.6077 452.008 89.6077 452 89.6099H451.964C451.933 89.6099 451.904 89.6121 451.873 89.6166C451.853 89.6166 451.833 89.6166 451.813 89.6188C451.758 89.6254 451.707 89.6299 451.656 89.6387C451.649 89.6387 451.645 89.641 451.638 89.641C451.616 89.6432 451.589 89.6498 451.567 89.6543C451.525 89.6609 451.485 89.6676 451.445 89.6809C451.406 89.6897 451.366 89.7008 451.324 89.7119C451.275 89.723 451.23 89.7385 451.182 89.754C451.151 89.7651 451.12 89.7762 451.089 89.7872C451.042 89.8005 450.993 89.8205 450.949 89.8426H450.947C450.909 89.8559 450.876 89.8715 450.838 89.8892C450.805 89.9069 450.769 89.9202 450.738 89.9379C450.699 89.9557 450.661 89.9778 450.621 89.9978L450.51 90.0576C450.47 90.0798 450.433 90.1042 450.395 90.1263C450.357 90.1485 450.324 90.1729 450.286 90.195C450.249 90.2172 450.213 90.2416 450.175 90.266C450.138 90.2881 450.1 90.3147 450.067 90.3435C449.996 90.3923 449.925 90.4455 449.856 90.5031C449.819 90.5297 449.785 90.5563 449.754 90.5851C449.721 90.6139 449.686 90.6427 449.652 90.6738C449.584 90.7314 449.517 90.7912 449.453 90.8511C449.386 90.9087 449.322 90.9708 449.258 91.0373C449.227 91.0683 449.196 91.0993 449.165 91.1348C449.134 91.1658 449.103 91.1968 449.074 91.2301C449.036 91.2633 449.005 91.2988 448.974 91.332H448.976C450.226 91.8484 451.459 92.3272 452.671 92.766C456.554 94.1734 460.204 95.1884 463.5 95.7824C471.135 97.1566 476.851 96.2634 479.048 92.7438C481.973 88.0496 477.968 79.8026 469.458 71.0215L469.447 71.0237Z" fill="#FFCF83"/>
<path d="M454.109 205.258C464.003 208.428 459.384 203.004 467.026 203.556C466.084 201.125 465.388 198.924 464.548 197.045C464.014 195.839 463.584 194.596 463.27 193.328C462.472 190.147 462.385 186.81 463.048 183.565C464.814 174.957 466.749 168.638 468.828 162.166C466.643 156.421 457.312 165.839 457.312 165.839C457.312 165.839 448.673 174.914 450.933 190.349C453.041 204.729 445.574 202.523 454.109 205.261V205.258Z" fill="#ED7D2B"/>
<path d="M461.268 116.946C461.268 116.946 445.293 127.155 441.208 148.677L436.377 147.144C436.377 147.144 438.411 131.636 456.891 115.856C456.891 115.856 458.283 116.131 458.751 116.248C459.378 116.405 461.268 116.946 461.268 116.946Z" fill="#2B478B"/>
<path d="M404.845 149.223L409.902 149.555C408.89 130.894 418.254 118.154 421.024 114.814C419.289 114.954 417.715 115.122 416.305 115.308C406.037 130.984 404.845 149.223 404.845 149.223Z" fill="#2B478B"/>
<path d="M440.723 160.617C441.035 159.287 444.132 146.368 444.132 146.368C444.132 146.368 444.845 142.328 437.746 141.929C430.647 141.53 405.465 140.202 405.465 140.202C405.465 140.202 402.034 142.275 401.983 146.523C401.932 150.772 398.506 175.087 398.506 175.087L394.98 228.563L471.774 261.653C471.774 261.653 477.04 234.625 471.144 215.788C467.707 204.802 463.272 193.33 463.272 193.33C463.272 193.33 435.944 180.925 440.725 160.619L440.723 160.617Z" fill="#2B478B"/>
<path d="M441.408 146.8C441.762 145.683 441.144 144.491 440.027 144.136C438.91 143.782 437.717 144.4 437.363 145.517C437.008 146.634 437.627 147.826 438.744 148.181C439.861 148.536 441.053 147.917 441.408 146.8Z" fill="#ED7D2B"/>
<path d="M441.044 146.685C441.399 145.568 440.78 144.376 439.666 144.021C438.549 143.666 437.356 144.285 437.002 145.402C436.647 146.519 437.265 147.711 438.382 148.066C439.499 148.42 440.692 147.802 441.046 146.685H441.044Z" fill="#F99746"/>
<path d="M440.337 146.04C440.337 145.869 440.2 145.732 440.029 145.732C439.858 145.732 439.721 145.869 439.721 146.04C439.721 146.211 439.858 146.348 440.029 146.348C440.2 146.348 440.337 146.211 440.337 146.04Z" fill="#2B478B"/>
<path d="M438.325 146.044C438.325 145.874 438.187 145.736 438.017 145.736C437.846 145.736 437.708 145.874 437.708 146.044C437.708 146.215 437.846 146.353 438.017 146.353C438.187 146.353 438.325 146.215 438.325 146.044Z" fill="#2B478B"/>
<path d="M410.182 144.105C410.536 142.988 409.918 141.796 408.801 141.441C407.684 141.087 406.491 141.705 406.137 142.822C405.782 143.939 406.401 145.131 407.518 145.486C408.635 145.841 409.827 145.222 410.182 144.105Z" fill="#ED7D2B"/>
<path d="M409.818 143.99C410.173 142.873 409.554 141.681 408.437 141.326C407.32 140.971 406.128 141.59 405.773 142.707C405.419 143.824 406.037 145.016 407.154 145.371C408.271 145.725 409.464 145.107 409.818 143.99Z" fill="#F99746"/>
<path d="M409.111 143.345C409.111 143.174 408.974 143.037 408.803 143.037C408.632 143.037 408.495 143.174 408.495 143.345C408.495 143.516 408.632 143.653 408.803 143.653C408.974 143.653 409.111 143.516 409.111 143.345Z" fill="#2B478B"/>
<path d="M407.099 143.349C407.099 143.179 406.961 143.041 406.791 143.041C406.62 143.041 406.483 143.179 406.483 143.349C406.483 143.52 406.62 143.657 406.791 143.657C406.961 143.657 407.099 143.52 407.099 143.349Z" fill="#2B478B"/>
<path d="M464.617 83.4264C464.617 83.4264 464.792 87.2119 462.523 87.9544C460.251 88.6946 464.863 96.8662 464.502 102.387C464.141 107.906 461.698 110.122 461.698 110.122C461.698 110.122 462.871 107.086 462.215 105.209C462.215 105.209 462.319 109.114 459.469 111.084C456.618 113.054 457.383 114.757 457.383 114.757C457.383 114.757 450.938 112.826 450.758 107.992C450.758 107.992 450.481 110.178 450.705 111.082C450.705 111.082 445.14 106.904 444.876 102.09C444.61 97.2763 449.256 93.2137 451.372 93.1406C453.489 93.0675 458.21 88.9118 458.083 87.3427C457.957 85.7713 464.622 83.4286 464.622 83.4286L464.617 83.4264Z" fill="#2C3A64"/>
<path d="M430.523 89.3241C430.523 89.3241 426.713 91.6335 424.001 91.3653C421.314 91.0994 419.852 87.8591 419.852 87.8591C419.852 87.8591 425.062 87.09 430.523 89.3241Z" fill="#FFF2E9"/>
<path d="M454.69 226.987H403.364C401.217 226.987 398.765 225.245 397.894 223.098L384.973 191.291C384.1 189.143 385.135 187.401 387.283 187.401H438.608C440.758 187.401 443.207 189.143 444.078 191.291L457 223.098C457.873 225.245 456.838 226.987 454.69 226.987Z" fill="#A4C9FF"/>
<path d="M451.627 226.987H400.301C398.154 226.987 395.702 225.245 394.831 223.098L381.91 191.291C381.037 189.143 382.072 187.401 384.219 187.401H435.545C437.693 187.401 440.144 189.143 441.015 191.291L453.937 223.098C454.81 225.245 453.775 226.987 451.627 226.987Z" fill="#71A4FF"/>
<path d="M387.037 189.839C388.014 189.839 389.138 190.639 389.534 191.617C389.931 192.594 389.457 193.394 388.479 193.394C387.502 193.394 386.378 192.594 385.982 191.617C385.585 190.639 386.059 189.839 387.037 189.839Z" fill="#2B478B"/>
<path d="M392.679 190.58C393.249 190.58 393.905 191.045 394.138 191.617C394.368 192.186 394.091 192.654 393.522 192.654C392.952 192.654 392.296 192.186 392.063 191.617C391.833 191.047 392.11 190.58 392.679 190.58Z" fill="#2B478B"/>
<path d="M412.757 206.187C411.902 204.079 412.914 202.368 415.024 202.368C417.134 202.368 419.537 204.077 420.392 206.187C421.248 208.295 420.235 210.004 418.125 210.004C416.015 210.004 413.613 208.295 412.757 206.187Z" fill="#A4C9FF"/>
<path d="M460.803 212.854C460.803 212.854 453.746 208.829 452.044 206.969C450.947 205.768 450.88 207.313 450.951 207.747C451.093 208.616 451.222 210.34 453.232 211.983C456.122 214.345 460.805 212.854 460.805 212.854H460.803Z" fill="#FFB27D"/>
<path d="M460.803 212.854C460.803 212.854 448.072 209.031 445.142 209.363C442.21 209.695 435.514 211.781 434.976 212.326C434.437 212.869 436.742 213.446 438.495 212.931C440.743 212.275 444.282 213.013 444.282 213.013C444.282 213.013 437.146 214.56 435.359 215.347C435.182 215.425 435.149 215.668 435.302 215.79C435.729 216.129 436.829 216.342 438.407 216.123C440.674 215.808 444.65 215.864 444.65 215.864L436.538 217.628C436.436 217.65 436.361 217.739 436.365 217.843C436.379 218.228 437.026 218.641 438.923 218.727C440.384 218.794 445.331 218.062 445.331 218.062L440.924 220.387C440.924 220.387 441.993 221.152 444.242 220.409C445.785 219.899 450.39 218.747 451.452 218.971C452.516 219.195 457.82 221.067 460.324 220.748C462.771 220.436 463.832 219.973 463.832 219.973L460.805 212.856L460.803 212.854Z" fill="#FFB27D"/>
<path d="M321.12 148.853C321.12 148.853 314.733 142.028 312.386 141.215C310.039 140.402 301.661 138.988 301.661 138.988C301.661 138.988 301.694 140.991 305.444 142.376C309.194 143.762 309.979 150.262 312.197 152.102C314.414 153.941 320.276 155.535 320.276 155.535L321.12 148.853Z" fill="#FFB27D"/>
<path d="M318.454 154.983C318.454 154.983 312.231 154.71 310.209 153.44C308.188 152.17 304.895 150.51 305.531 149.5C306.167 148.489 313.029 149.252 313.029 149.252L318.456 154.983H318.454Z" fill="#FFB27D"/>
<path d="M311.883 142.405C311.557 142.259 303.259 136.711 303.259 136.711C303.259 136.711 302.561 139.34 303.782 139.841C305.003 140.34 311.883 142.407 311.883 142.407V142.405Z" fill="#FFB27D"/>
<path d="M496.184 196.018C488.74 203.536 478.239 212.109 463.83 219.97C463.83 219.97 462.197 219.614 459.703 217.832C455.816 215.055 460.122 213.02 460.976 212.47C465.2 209.733 470.86 202.891 475.827 196.018H496.187H496.184Z" fill="#FFB27D"/>
<path d="M87.3968 338.664H25.2087C25.1998 338.642 25.1909 338.617 25.1821 338.595C25.1045 338.391 25.0025 338.119 24.8718 337.769L24.8208 337.667V337.616C24.8208 337.616 24.7698 337.56 24.7698 337.509C24.5615 337.093 24.4041 336.621 24.1958 336.049C24.0894 335.785 23.9875 335.472 23.8301 335.16V335.054L23.7791 335.003C23.061 333.141 22.1745 330.714 21.1483 327.784C21.0575 327.518 20.9622 327.25 20.8646 326.979C20.0956 324.765 19.2511 322.285 18.3513 319.555C17.9369 318.271 17.5113 316.933 17.0747 315.541C23.2206 313.83 31.2548 312.651 38.4069 314.974C43.0324 316.476 46.1641 318.699 48.5888 320.907C53.5113 325.386 55.5459 329.814 61.2773 328.092C62.7002 327.664 64.4001 327.409 66.2419 327.33C75.4663 326.915 88.2235 330.809 87.3968 338.664Z" fill="#82B378"/>
</g>
<defs>
<clipPath id="clip0_16_18618">
<rect width="630" height="338.472" fill="white" transform="translate(0 0.854614)"/>
</clipPath>
</defs>
</svg>
