<svg width="70" height="76" viewBox="0 0 70 76" fill="none" xmlns="http://www.w3.org/2000/svg">
<rect width="70" height="75.1557" rx="35" fill="#0F9447" fill-opacity="0.05"/>
<path d="M46.2196 31.3206C46.6802 31.3206 47.053 30.9475 47.053 30.4872V27.3833C47.053 26.923 46.6802 26.5499 46.2196 26.5499H43.0066V25.8977C44.0106 25.5495 44.7383 24.6044 44.7383 23.4829C44.7383 22.0681 43.5876 20.9175 42.1732 20.9175C40.7579 20.9175 39.6072 22.0682 39.6072 23.4829C39.6072 24.6044 40.3349 25.5499 41.3399 25.8977V27.383C41.3399 27.8433 41.7127 28.2163 42.1732 28.2163H45.3863V30.4869C45.3866 30.9475 45.7591 31.3206 46.2196 31.3206V31.3206ZM42.1735 22.5841C42.6692 22.5841 43.0719 22.9873 43.0719 23.483C43.0719 23.9787 42.6689 24.382 42.1735 24.382C41.6778 24.382 41.2742 23.9787 41.2742 23.483C41.2742 22.9873 41.6778 22.5841 42.1735 22.5841Z" fill="#1F449C"/>
<path d="M23.8575 26.5504C23.3969 26.5504 23.0242 26.9235 23.0242 27.3838V30.4877C23.0242 30.948 23.397 31.3211 23.8575 31.3211C24.3181 31.3211 24.6909 30.948 24.6909 30.4877V28.2171H27.9039C28.3645 28.2171 28.7372 27.844 28.7372 27.3838V25.8982C29.7413 25.55 30.469 24.6049 30.469 23.4834C30.469 22.0686 29.3183 20.918 27.9039 20.918C26.4886 20.918 25.3378 22.0687 25.3378 23.4834C25.3378 24.6049 26.0655 25.5504 27.0705 25.8982V26.5501L23.8575 26.5504ZM27.904 22.5847C28.3997 22.5847 28.8024 22.988 28.8024 23.4837C28.8024 23.9794 28.3994 24.3827 27.904 24.3827C27.4083 24.3824 27.0047 23.9791 27.0047 23.4834C27.0047 22.988 27.4083 22.5847 27.904 22.5847V22.5847Z" fill="#1F449C"/>
<path d="M16.7307 30.4569V49.4167C16.7307 49.8769 17.1035 50.25 17.5641 50.25H30.9256C30.6772 50.5294 30.4659 50.8304 30.3186 51.1573C29.8928 51.0279 29.4323 50.9611 28.9513 50.9611C27.3995 50.9611 26.0808 51.6792 25.5041 52.7255C25.0574 52.5838 24.5746 52.5095 24.0841 52.5095C22.007 52.5095 20.3171 53.8457 20.315 55.489H16.3902C15.9296 55.489 15.5569 55.8621 15.5569 56.3224C15.5569 56.7826 15.9297 57.1557 16.3902 57.1557H53.6692C54.1298 57.1557 54.5026 56.7826 54.5026 56.3224C54.5026 55.8621 54.1298 55.489 53.6692 55.489H49.7624C49.7602 53.8182 48.1051 52.5095 45.9923 52.5095C45.4959 52.5095 45.0125 52.5853 44.5753 52.7243C43.9958 51.6789 42.6791 50.9611 41.1312 50.9611C40.6534 50.9611 40.1864 51.0304 39.7544 51.162C39.6099 50.8379 39.4099 50.531 39.1625 50.2498L52.4349 50.2501C52.8955 50.2501 53.2682 49.877 53.2682 49.4167V30.457C54.2723 30.1089 55 29.1637 55 28.0426C55 26.6278 53.8493 25.4771 52.4349 25.4771C51.0196 25.4771 49.8688 26.6279 49.8688 28.0426C49.8688 29.164 50.5965 30.1092 51.6015 30.457V48.5831H35.8724V45.3515C36.6947 45.5317 37.8981 45.7311 39.2472 45.7311C40.9938 45.7311 42.9615 45.3959 44.5817 44.2492C48.3977 41.5494 48.61 35.5371 48.6174 35.2824C48.6273 34.9117 48.3919 34.5787 48.0388 34.4653C47.797 34.3877 42.0539 32.5881 38.2415 35.2873C37.2076 36.019 36.4451 36.996 35.8726 38.0336V22.9796C36.8766 22.6317 37.6044 21.6865 37.6044 20.5651C37.6044 19.1506 36.4537 18 35.0393 18C33.6239 18 32.4732 19.1507 32.4732 20.5651C32.4732 21.6866 33.2009 22.6321 34.2059 22.9799V38.0331C33.6335 36.9955 32.871 36.0185 31.8371 35.2869C28.0235 32.5874 22.2811 34.3873 22.0397 34.4649C21.6867 34.5782 21.4513 34.9113 21.4612 35.2819C21.4686 35.5361 21.6808 41.5487 25.4962 44.2487C27.1174 45.3954 29.0842 45.7306 30.8308 45.7306C32.1805 45.7306 33.3839 45.531 34.2065 45.3507V48.5826H18.3985V30.4566C19.4031 30.1087 20.1312 29.1635 20.1312 28.0421C20.1312 26.6273 18.9804 25.4767 17.5651 25.4767C16.1506 25.4767 15 26.6274 15 28.0421C15 29.1632 15.7277 30.1084 16.7318 30.4566L16.7307 30.4569ZM52.4347 27.1438C52.9304 27.1438 53.3331 27.547 53.3331 28.0427C53.3331 28.4916 52.9963 28.8487 52.5653 28.9146C52.521 28.9072 52.4809 28.8881 52.4344 28.8881C52.3879 28.8881 52.3478 28.9072 52.3034 28.9146C51.8721 28.8487 51.5351 28.4916 51.5351 28.0427C51.5354 27.547 51.939 27.1438 52.4347 27.1438ZM37.3798 50.8948C37.9871 51.2947 38.3362 51.8188 38.362 52.3706C38.3768 52.6701 38.5509 52.9387 38.8177 53.0743C39.0854 53.2101 39.4052 53.1913 39.6551 53.0256C40.0358 52.773 40.5737 52.6282 41.1314 52.6282C42.3407 52.6282 43.2042 53.2989 43.2231 53.9009C43.2329 54.1954 43.4012 54.4613 43.66 54.6027C43.9178 54.7444 44.237 54.7361 44.4899 54.5861C44.5275 54.5642 44.5638 54.5405 44.6501 54.4986C45.0309 54.2906 45.5078 54.1763 45.9922 54.1763C47.1112 54.1763 48.0927 54.7894 48.0958 55.4891H21.981C21.9844 54.8674 22.847 54.1763 24.084 54.1763C24.6348 54.1763 25.1777 54.3233 25.5742 54.5793C25.8281 54.7426 26.1497 54.7568 26.4156 54.6163C26.6824 54.4755 26.8519 54.2019 26.8599 53.9006C26.8753 53.2989 27.738 52.6282 28.9515 52.6282C29.5123 52.6282 30.0323 52.768 30.4165 53.0219C30.6648 53.187 30.9846 53.2055 31.2523 53.0706C31.5191 52.9359 31.6935 52.6682 31.7089 52.3691C31.7669 51.2258 33.1887 50.2974 34.9045 50.25H35.1762C36.0108 50.2728 36.7878 50.4937 37.3799 50.8949L37.3798 50.8948ZM39.2037 36.6484C41.6817 34.8936 45.4247 35.5344 46.8991 35.885C46.7395 37.3934 46.099 41.1346 43.6195 42.8888C41.612 44.3094 38.7792 44.1603 36.9895 43.8658L41.9081 40.2075C42.2775 39.9327 42.3542 39.4108 42.0797 39.0417C41.8055 38.6726 41.2821 38.5944 40.9136 38.8704L36.1007 42.4501C36.4325 40.6647 37.2413 38.0368 39.2038 36.6485L39.2037 36.6484ZM35.0387 19.6676C35.5344 19.6676 35.9371 20.0709 35.9371 20.566C35.9371 21.0617 35.5341 21.465 35.0387 21.465C34.5429 21.465 34.1394 21.0617 34.1394 20.566C34.1394 20.0709 34.543 19.6676 35.0387 19.6676ZM26.4583 42.8895H26.4577C23.9779 41.1352 23.3374 37.3941 23.1781 35.8857C24.6526 35.5357 28.3956 34.8949 30.8735 36.6491C32.8361 38.0374 33.6448 40.6654 33.9769 42.451L29.163 38.8713C28.7927 38.5965 28.2711 38.6738 27.9969 39.0426C27.7227 39.412 27.7992 39.9336 28.1686 40.2084L33.0881 43.8667C31.2987 44.1612 28.4649 44.3106 26.4583 42.8894V42.8895ZM17.5641 27.1445C18.0598 27.1445 18.4634 27.5478 18.4634 28.0435C18.4634 28.5361 18.0635 28.9363 17.5712 28.9407C17.5687 28.9407 17.5666 28.9391 17.5641 28.9391C17.5616 28.9391 17.5595 28.9407 17.557 28.9407C17.065 28.9363 16.6657 28.5361 16.6657 28.0432C16.6657 27.5478 17.0687 27.1445 17.5641 27.1445L17.5641 27.1445Z" fill="#1F449C"/>
</svg>
