<svg width="70" height="79" viewBox="0 0 70 79" fill="none" xmlns="http://www.w3.org/2000/svg">
<rect width="70" height="78.8462" rx="35" fill="#0F9447" fill-opacity="0.05"/>
<path d="M18.0696 46.5523H17.1247V45.5524H18.0699V44.5524L18.9997 44.5521V45.552H19.9449V46.5519L18.9997 46.5523V45.5524L18.0696 45.552V46.5523ZM18.0696 47.5522H18.9997V46.5523H18.0696V47.5522ZM50.9846 45.5524H51.9298V46.5523H52.875V45.5524L51.9298 45.552V44.5521H50.9996V45.552H50.0398V46.5519L50.9996 46.5523L50.9846 45.5524ZM50.9846 47.5522H51.9298V46.5523H50.9996L50.9846 47.5522ZM46.7896 33.2621H47.7348V34.262H48.68L48.6796 33.2621H47.7348V32.2618H46.7896V33.2617L45.8448 33.262V34.2619H46.79L46.7896 33.2621ZM46.7896 35.2619H47.7348V34.262H46.7896V35.2619ZM22.2897 33.2621H23.2349V34.262H24.1801L24.1797 33.2621H23.2098V32.2618H22.2646V33.2617L21.3198 33.262V34.2619H22.265L22.2897 33.2621ZM22.2897 35.2619H23.2349L23.2346 34.262H22.2646L22.2897 35.2619ZM17.5998 55.4064H18.545V56.4063H19.4996V55.4064H18.5447V54.4065H17.5998V55.4064H16.6498V56.4063H17.5998V55.4064ZM17.5998 57.4062H18.545V56.4063H17.5998V57.4062ZM18.0696 19.7618H18.9998V20.7617H19.945L19.9446 19.7618H18.9998V18.7618H18.0696V19.7618H17.1248V20.7617H18.07L18.0696 19.7618ZM18.0696 21.7616L18.9998 21.7619V20.762H18.0696V21.7616ZM50.9998 19.7618H51.945V20.7617H52.8902L52.8898 19.7618H51.93V18.7618H50.9999V19.7618H50.04V20.7617L50.9999 20.762L50.9998 19.7618ZM50.9998 21.7616H51.945V20.762H50.9998V21.7616ZM15 60.8462H20.1398V59.8463H15V60.8462ZM21.1402 60.8462H53.0552V59.8463H21.1402V60.8462ZM54.0552 59.8463V60.8462H55V59.8463H54.0552ZM22.5553 58.8464H43.3204V57.8465H22.5357L22.5553 58.8464ZM44.34 58.8464H47.8399V57.8465H44.34V58.8464ZM33.1803 46.5661C33.1876 46.4911 33.1876 46.4158 33.1803 46.3411H32.1103C32.4259 46.548 32.8078 46.6282 33.1803 46.5661ZM36.2603 47.1412V47.1409C35.9195 47.4816 35.7633 47.9654 35.84 48.441C36.3147 48.5174 36.7974 48.3615 37.1378 48.0222C37.4781 47.6828 37.6351 47.2008 37.5601 46.7257C37.0854 46.6476 36.6017 46.8021 36.2602 47.1408L36.2603 47.1412ZM31.4601 49.4714V49.471C31.3834 49.9468 31.5396 50.4301 31.8804 50.7709C32.2211 51.1117 32.7045 51.2679 33.1803 51.1909C33.257 50.7155 33.1008 50.2318 32.76 49.8913C32.4193 49.5506 31.9359 49.3943 31.4601 49.471V49.4714ZM38.5702 47.1562V47.1559C38.6057 46.7363 38.5335 46.3146 38.3602 45.931C37.9176 45.728 37.4255 45.6586 36.9439 45.7315C36.4626 45.8044 36.013 46.0161 35.6503 46.3411H38.0952L38.5702 47.1562ZM33.9804 47.3561H33.98C33.5161 47.5657 32.9993 47.6302 32.4977 47.5413C31.9962 47.452 31.5333 47.2131 31.1703 46.8559C31.0168 46.7063 30.8826 46.5382 30.7703 46.3561H30.0002L26.6101 52.2061H32.9501C32.8196 52.2061 32.6892 52.196 32.5601 52.1761C31.7894 52.0551 31.119 51.5808 30.7483 50.8941C30.3775 50.2077 30.3486 49.387 30.6701 48.6759C31.292 48.3864 32.0056 48.3648 32.6435 48.6162C33.2818 48.868 33.7885 49.371 34.0449 50.0071C34.3016 50.6433 34.2852 51.3572 34.0002 51.9811C33.6766 52.1283 33.3257 52.205 32.9703 52.2061H41.5002L38.5702 47.166V47.3411C38.4942 47.8674 38.25 48.3553 37.8744 48.7316C37.4988 49.1083 37.0115 49.3535 36.4852 49.4309C36.0004 49.5167 35.5013 49.4578 35.05 49.2611C34.838 48.7982 34.7721 48.2817 34.8613 47.7802C34.951 47.279 35.1909 46.8169 35.5502 46.4559L35.6503 46.361H34.2001C34.2036 46.7028 34.1356 47.0418 34.0002 47.3561L33.9804 47.3561ZM31.8804 46.1511H31.88C31.5379 45.8093 31.3816 45.3234 31.4601 44.846C31.9358 44.7693 32.4196 44.9255 32.76 45.2659C33.0453 45.5508 33.204 45.938 33.2002 46.3412H34.2001C34.1987 46.2086 34.1868 46.0765 34.1652 45.946C34.0456 45.1742 33.5719 44.5028 32.8848 44.1307C32.1981 43.7589 31.3767 43.7292 30.6653 44.0511C30.47 44.4955 30.4124 44.9886 30.5003 45.4661C30.5415 45.7724 30.6416 46.0678 30.795 46.336H32.135C32.0423 46.2861 31.9565 46.224 31.8801 46.1511L31.8804 46.1511ZM32.8803 25.6512C32.4101 25.022 32.263 24.2083 32.4834 23.4543C32.7034 22.7003 33.2653 22.0938 34.0002 21.8161C34.6384 22.0564 35.1511 22.5468 35.419 23.1742C35.6872 23.8016 35.6872 24.5111 35.419 25.1381C35.1511 25.7656 34.6384 26.2563 34.0002 26.4963C33.5482 26.325 33.1568 26.024 32.875 25.6313L32.8803 25.6512ZM33.3804 24.1762H33.3801C33.3863 24.6502 33.6162 25.0931 34.0002 25.3711C34.3898 25.0893 34.6203 24.6373 34.6203 24.1563C34.6203 23.675 34.3898 23.2234 34.0002 22.9413C33.6123 23.2245 33.3839 23.6761 33.385 24.1563L33.3804 24.1762ZM35.4102 26.2462C35.7852 25.8684 36.2731 25.6226 36.8 25.5462C37.2824 25.4712 37.7759 25.5389 38.2199 25.7411C38.5418 26.4537 38.5118 27.2758 38.1386 27.9628C37.7658 28.6499 37.0926 29.1228 36.3201 29.241C35.8416 29.3157 35.3516 29.2498 34.91 29.0513C34.6976 28.5885 34.6321 28.0716 34.7214 27.5704C34.8106 27.0693 35.0509 26.6071 35.4102 26.2461L35.4102 26.2462ZM35.7001 28.246V28.2463C36.1747 28.3227 36.6571 28.1668 36.9975 27.8274C37.3379 27.4881 37.4952 27.0061 37.4202 26.531C36.9455 26.4546 36.4628 26.6105 36.1224 26.9499C35.782 27.2893 35.6251 27.7713 35.7001 28.2463L35.7001 28.246ZM29.8003 25.746V25.7463C30.2418 25.5475 30.7315 25.4816 31.21 25.5563C31.9829 25.6745 32.6556 26.1474 33.0288 26.8345C33.4017 27.5215 33.4317 28.3436 33.1101 29.0561C32.6661 29.2584 32.1722 29.3261 31.6903 29.2511C30.9191 29.1301 30.2491 28.6561 29.878 27.9694C29.5073 27.2827 29.4784 26.4624 29.8003 25.7512L29.8003 25.746ZM31.0001 27.8163C31.3419 28.155 31.8253 28.3095 32.3003 28.2314C32.3752 27.7563 32.2179 27.2743 31.8775 26.9349C31.5371 26.5956 31.0548 26.4397 30.5801 26.5161C30.5031 26.9918 30.6593 27.4755 31.0001 27.8162L31.0001 27.8163ZM38.25 30.2312C38.6249 29.8535 39.1132 29.6094 39.6401 29.5361C40.1207 29.4604 40.6129 29.5285 41.0551 29.7311C41.2619 30.1943 41.3251 30.7087 41.2358 31.2081C41.1465 31.7076 40.9093 32.1683 40.555 32.5313C40.1811 32.9098 39.6925 33.1539 39.1652 33.2261C38.6874 33.306 38.1962 33.2414 37.7551 33.0412C37.5455 32.577 37.481 32.0602 37.5699 31.5587C37.6592 31.0575 37.8981 30.5947 38.2552 30.2313L38.25 30.2312ZM38.5398 32.231H38.5401C39.0159 32.3081 39.4992 32.1519 39.84 31.8111C40.1808 31.4704 40.337 30.9866 40.26 30.5112C39.7783 30.4317 39.2879 30.5914 38.9458 30.9395C38.6036 31.2879 38.4523 31.7808 38.5401 32.261L38.5398 32.231ZM37.7502 39.9162C37.5378 39.4534 37.4722 38.9368 37.5615 38.4353C37.6508 37.9341 37.8911 37.472 38.25 37.111C38.6231 36.7305 39.1121 36.4843 39.6401 36.411C40.1207 36.3354 40.6129 36.4034 41.0551 36.606C41.3767 37.3179 41.3474 38.1392 40.9753 38.8259C40.6035 39.5126 39.932 39.9863 39.1603 40.1063C38.6817 40.1805 38.1917 40.1146 37.7502 39.9162L37.7502 39.9162ZM38.5401 39.1161C39.0148 39.1942 39.4985 39.0401 39.84 38.7011C40.1808 38.3603 40.337 37.8769 40.26 37.4012C39.7856 37.3248 39.3029 37.4803 38.9626 37.8197C38.6222 38.1594 38.4652 38.6414 38.5402 39.1161L38.5401 39.1161ZM26.7804 34.2612C26.7141 33.7782 26.7905 33.2864 27.0001 32.8462C27.4434 32.6464 27.9355 32.5819 28.4151 32.661C28.9428 32.7392 29.4311 32.9857 29.807 33.3642C30.183 33.7429 30.4261 34.2329 30.5004 34.761C30.5782 35.2395 30.5119 35.7302 30.3103 36.1711C29.8677 36.3723 29.3759 36.44 28.8953 36.3661C28.3645 36.2897 27.8741 36.0403 27.5002 35.6563C27.1148 35.2817 26.862 34.7921 26.7804 34.2612L26.7804 34.2612ZM28.1852 34.9413V34.941C28.5259 35.2817 29.0097 35.438 29.4851 35.3612C29.5615 34.8866 29.4059 34.4042 29.0666 34.0638C28.7272 33.7235 28.2452 33.5661 27.7701 33.6411C27.6903 34.1175 27.8448 34.6034 28.1852 34.9462L28.1852 34.9413ZM26.8553 19.6414C26.7772 19.1594 26.8452 18.6648 27.0502 18.2216C27.7628 17.8997 28.5845 17.93 29.2716 18.3028C29.9586 18.676 30.4319 19.3488 30.5501 20.1217C30.6279 20.5998 30.562 21.0909 30.3601 21.5314C29.6489 21.853 28.8286 21.8244 28.1419 21.4533C27.4555 21.0825 26.9811 20.4126 26.8602 19.6414L26.8553 19.6414ZM28.2553 20.3215C28.5971 20.6636 29.0829 20.8202 29.56 20.7414C29.6371 20.266 29.4808 19.7823 29.1401 19.4415C28.7993 19.1011 28.3159 18.9445 27.8402 19.0216C27.7621 19.4963 27.9162 19.9796 28.2552 20.3215H28.2553ZM35.1452 40.1768C35.606 40.8087 35.7444 41.6196 35.5198 42.3685C35.2949 43.1176 34.7326 43.7182 34.0002 43.992C33.3616 43.7517 32.8488 43.2613 32.581 42.6339C32.3131 42.0068 32.3131 41.297 32.581 40.67C32.8488 40.0425 33.3615 39.5521 34.0002 39.3119C34.4595 39.4796 34.8582 39.781 35.1452 40.1768L35.1452 40.1768ZM34.6451 41.6769C34.6475 41.1826 34.4062 40.7188 34.0002 40.4369C33.6106 40.7191 33.3798 41.1708 33.3798 41.6517C33.3798 42.133 33.6106 42.5846 34.0002 42.8668C34.3954 42.5877 34.6318 42.1354 34.635 41.6517L34.6451 41.6769ZM36.5002 30.2617H35.5003V39.9867L35.7102 40.3518L43.145 53.2062H24.8755L32.3004 40.3509L32.5104 39.9858V30.2608H31.5004V39.7153L23.1354 54.2152L44.8755 54.2155L36.5005 39.7156L36.5002 30.2617Z" fill="#1F449C"/>
</svg>
